<svg height="450" viewBox="0 0 3310 4500" width="331" xmlns="http://www.w3.org/2000/svg"><path d="m725 4488c-2-7-11-80-20-163-8-82-22-213-30-290s-22-205-30-285c-9-80-36-318-61-530s-49-423-55-470c-5-47-16-134-24-195-9-60-25-187-37-281l-21-171-46-24c-225-118-360-266-391-429-23-119-4-293 41-386 63-131 252-259 565-383l81-32 61-152c44-109 71-194 94-301 36-168 62-220 161-313 77-73 101-78 352-78 195 1 222 3 380 34 204 39 266 54 540 133 116 33 226 65 245 70 51 15 102 43 127 70 37 39 51 100 59 242l7 134 69 22c37 13 126 51 196 85 142 69 209 122 260 207 88 147 78 400-22 558-34 54-34 54-14 69 31 21 21 96-20 152-18 24-32 38-32 33 0-10-39-6-114 12-35 8-45-110 85 979 5 44 13 118 19 165 5 47 17 146 25 220 9 74 20 169 25 210s18 154 30 250c17 144 19 187 10 243-14 93-50 165-109 220-106 99-249 145-564 183-350 41-508 59-957 109-267 30-561 64-655 75-200 23-224 24-230 8z" fill="#292829"/><g fill="#66131d"><path d="m736 4463c-3-21-17-139-31-263s-37-315-50-425c-14-110-43-346-65-525-58-473-108-875-130-1035-11-77-19-159-20-183 0-31-5-44-17-49-10-4-20-9-23-13-3-3-27-19-55-35-137-78-250-193-289-292-20-50-38-263-23-263 5 0 7-8 6-17-1-10 0-21 1-25 1-5 3-11 4-15 1-5 14-34 29-65 57-117 215-230 473-339 66-27 130-55 143-62 18-9 37-42 71-124 25-62 49-116 53-119 4-4 7-18 7-31s5-23 11-23 8-9 4-20c-4-12-2-20 5-20s10-8 7-20-1-18 5-14c7 5 9-4 6-25-2-17 0-31 5-31s6-12 3-26c-5-18-3-24 5-18 8 5 10-1 7-20-3-14-1-26 5-26 5 0 7-9 4-20s-1-23 4-26 7-9 4-13c-6-11 60-119 107-175 23-27 60-55 95-72 50-23 74-28 173-32 114-4 249 8 375 33 20 4 76 14 105 19 8 1 22 5 30 8 8 4 22 7 30 7s29 3 45 6c17 4 37 7 45 9 9 1 20 5 27 9 6 4 18 4 27 1s16-1 16 6 8 9 21 5c16-5 19-4 14 6-6 9-2 11 13 7 12-4 22-2 22 4s9 8 20 5c13-3 18-1 13 6-4 6 2 8 15 5 12-4 22-2 22 4s9 8 20 5c13-3 18-1 13 6-4 6 2 8 15 5 12-4 22-2 22 4s9 8 20 5 20-1 20 5c0 5 10 6 21 3 16-5 19-4 14 6-6 9-2 11 13 7 12-4 22-2 22 4s9 8 20 5c13-3 18-1 13 6-4 6 2 8 15 5 12-4 22-2 22 4s7 8 15 4c8-3 15 0 15 5 0 6 9 9 20 6 13-3 18-1 13 6-4 6 2 8 15 5 14-4 20-2 15 5-4 6 2 8 15 5 12-4 22-2 22 4s7 7 16 4c10-4 13-2 8 6s0 9 15 5c13-3 21-3 18-1-3 3 6 16 20 30 51 51 57 86 62 350 1 37 4 43 29 48 15 4 35 9 46 13 13 4 16 2 11-7s-4-11 4-6c6 4 9 11 6 16-6 10 43 23 57 14 6-4 8-3 4 4-3 6 4 14 16 18 13 3 69 29 126 56 212 102 304 240 289 432-10 129-66 245-172 354l-62 63 11 49c10 45 12 48 30 34 32-23 43-16 13 9l-29 22 11 95c6 52 15 131 20 175 6 44 21 177 35 295 45 385 105 903 115 985 6 44 15 118 20 165 6 47 18 142 26 211 14 117 14 145-1 239-24 147-159 262-369 315-114 29-505 79-1340 170-126 14-268 29-315 35-255 30-437 50-452 50-11 0-18-11-22-37zm1372-2912c62-9 178-38 272-68 25-7 72-21 105-30 131-35 141-57 149-318 5-176 4-196-8-169-8 19-51 59-110 104-53 40-96 76-96 80 0 19-113 33-212 26-57-4-269-8-473-10-407-3-537-15-741-66-163-41-250-87-291-155-11-18-12-17-12 15-1 19-10 106-21 192-18 139-19 161-6 185 50 98 334 197 646 227 78 7 732-3 798-13z"/><path d="m164 1898-29-33 33 29c17 17 32 31 32 33 0 8-8 1-36-29zm2998-88c20-59 20-65 7-52-28 27-79 8-79-30 0-10-5-18-11-18s-1-12 10-26c12-15 21-32 21-39 0-14 42-45 61-45 8 0 6 7-5 19-16 17-15 19 10 36 24 15 26 21 22 69-2 29-12 63-22 77-10 13-16 17-14 9zm3-60c4-6 10-8 14-6 4 3 8-12 9-33 2-31-2-39-21-48-20-9-26-8-38 11-21 31-27 59-16 74s43 16 52 2zm-1-822-29-33 33 29c30 28 37 36 29 36-2 0-16-15-33-32zm-461-393c0-27 2-38 4-22 2 15 2 37 0 50-2 12-4 0-4-28z"/></g><g fill="#9a2f39"><path d="m1250 4245c-15-79-28-125-36-125-7 0-38-21-69-46l-57-47 7 61 7 60-56 7c-31 4-62 5-69 2-18-7-73-477-56-487 6-4 48-11 93-14 44-4 96-9 114-13l32-5v-129l-47 6c-27 3-60 8-74 11-18 3-28 0-32-11-16-41-27-199-25-362l3-180-228-379c-125-209-227-387-227-395 0-14 31-83 48-107 7-10 27-8 98 14 79 23 112 27 301 33l212 6 10-22c11-23 10-23-82-23-360-1-442-12-592-77-38-17-81-34-95-38s-27-11-30-14c-3-4-27-20-55-36-137-78-250-193-289-292-20-50-38-263-23-263 5 0 7-8 6-17-1-10 0-21 1-25 1-5 3-11 4-15 1-5 14-34 29-65 57-117 215-230 473-339 66-27 130-55 143-62 18-9 37-42 71-124 25-62 49-116 53-119 4-4 7-18 7-31s5-23 11-23 8-9 4-20c-4-12-2-20 5-20s10-8 7-20-1-18 5-14c7 5 9-4 6-25-2-17 0-31 5-31s6-12 3-26c-5-18-3-24 5-18 8 5 10-1 7-20-3-14-1-26 5-26 5 0 7-9 4-20s-1-23 4-26 7-9 4-13c-6-11 60-119 107-175 23-27 61-55 95-72 53-25 69-28 188-30 129-3 237 6 360 31 20 4 76 14 105 19 8 1 22 5 30 8 8 4 22 7 30 7s29 3 45 6c17 4 37 7 45 9 9 1 20 5 27 9 6 4 18 4 27 1s16-1 16 6 8 9 21 5c16-5 19-4 14 6-6 9-2 11 13 7 12-4 22-2 22 4s9 8 20 5c13-3 18-1 13 6-4 6 2 8 15 5 12-4 22-2 22 4s9 8 20 5c13-3 18-1 13 6-4 6 2 8 15 5 12-4 22-2 22 4s9 8 20 5 20-1 20 5c0 5 10 6 21 3 16-5 19-4 14 6-6 9-2 11 13 7 12-4 22-2 22 4s9 8 20 5c13-3 18-1 13 6-4 6 2 8 15 5 12-4 22-2 22 4s7 8 15 4c8-3 15 0 15 5 0 6 9 9 20 6 13-3 18-1 13 6-4 6 2 8 15 5 14-4 20-2 15 5-4 6 2 8 15 5 12-4 22-2 22 4s7 7 16 4c10-4 13-2 8 6s0 9 15 5c13-3 21-3 18-1-3 3 6 16 20 30 51 51 57 86 62 350 1 37 4 43 29 48 15 4 35 9 46 13 13 4 16 2 11-7s-4-11 4-6c6 4 9 11 6 16-6 10 43 23 57 14 6-4 8-3 4 4-3 6 4 14 16 18 13 3 69 29 126 56 212 102 304 240 289 432-6 85-26 146-73 226-38 66-139 180-158 180-7 0-23 12-37 26-13 14-37 33-53 41-26 13-27 16-13 31 13 12 19 13 31 3 8-7 17-8 19-3 10 14 55 384 166 1367 12 99 32 268 47 375 45 345 28 499-67 585-98 88-223 122-624 169-331 39-1169 136-1177 136-2 0-15-56-28-125zm-81-390c2-2 0-20-3-40-5-27-11-35-22-31-9 3-29 6-45 6-27 0-29 2-29 41v41l48-7c26-4 49-8 51-10zm941-1826c69-12 157-30 195-40 39-11 100-27 137-37 38-9 68-20 68-23s-6-13-12-22c-12-16-22-15-138 18-69 20-156 41-195 47-38 6-74 16-80 22-5 6-35 12-65 12-104 2-151 14-161 41-5 13-9 26-9 27 0 2 30-3 68-10 37-7 123-23 192-35zm-2-478c62-9 178-38 272-68 25-7 72-21 105-30 131-35 141-57 149-318 5-176 4-196-8-169-8 19-51 59-110 104-53 40-96 76-96 80 0 19-113 33-212 26-57-4-269-8-473-10-407-3-537-15-741-66-163-41-250-87-291-155-11-18-12-17-12 15-1 19-10 106-21 192-18 139-19 161-6 185 50 98 334 197 646 227 78 7 732-3 798-13z"/><path d="m729 3203c-2-12 2-208 4-209 1-1 51-4 110-8l108-7-5 88c-2 48-5 100-5 116l-1 27h-105c-58 0-106-3-106-7zm-565-1305-29-33 33 29c17 17 32 31 32 33 0 8-8 1-36-29zm2998-88c20-59 20-65 7-52-28 27-79 8-79-30 0-10-5-18-11-18s-1-12 10-26c12-15 21-32 21-39 0-14 42-45 61-45 8 0 6 7-5 19-16 17-15 19 10 36 24 15 26 21 22 69-2 29-12 63-22 77-10 13-16 17-14 9zm3-60c4-6 10-8 14-6 4 3 8-12 9-33 2-31-2-39-21-48-20-9-26-8-38 11-21 31-27 59-16 74s43 16 52 2zm-146-10c13-11 28-20 35-20 6 0 0 9-14 20-33 26-52 25-21 0zm145-812-29-33 33 29c30 28 37 36 29 36-2 0-16-15-33-32zm-461-393c0-27 2-38 4-22 2 15 2 37 0 50-2 12-4 0-4-28z"/></g><g fill="#735353"><path d="m1280 4367c0-6-37-190-45-224-3-13-11-23-17-23s-39-21-72-47l-59-47 6 61 6 60-60 7c-34 4-63 5-66 2-6-5-63-479-59-484 6-5 153-21 199-22h47v-141l-74 7c-86 8-80 15-95-116-42-374 43-886 214-1283 6-15-2-17-91-18-55-1-133-1-174 0-96 3-256-21-345-52-101-35-189-70-195-77-3-3-27-19-55-35-137-78-250-193-289-292-20-50-38-263-23-263 5 0 7-8 6-18-1-9 0-20 1-24 1-5 3-11 4-15 1-5 14-34 29-65 57-117 215-230 473-339 66-27 130-55 143-62 18-9 37-42 71-124 25-62 49-116 53-119 4-4 7-18 7-31s5-23 11-23 8-9 4-20c-4-12-2-20 5-20s10-8 7-20-1-18 5-14c7 5 9-4 6-25-2-17 0-31 5-31s6-12 3-26c-5-18-3-24 5-18 8 5 10-1 7-20-3-14-1-26 5-26 5 0 7-9 4-20s-1-23 4-26 7-9 4-13c-6-11 60-119 107-175 23-27 61-55 95-72 53-25 69-28 188-30 129-3 237 6 360 31 20 4 76 14 105 19 8 1 22 5 30 8 8 4 22 7 30 7s29 3 45 6c17 4 37 7 45 9 9 1 20 5 27 9 6 4 18 4 27 1s16-1 16 6 8 9 21 5c16-5 19-4 14 6-6 9-2 11 13 7 12-4 22-2 22 4s9 8 20 5c13-3 18-1 13 6-4 6 2 8 15 5 12-4 22-2 22 4s9 8 20 5c13-3 18-1 13 6-4 6 2 8 15 5 12-4 22-2 22 4s9 8 20 5 20-1 20 5c0 5 10 6 21 3 16-5 19-4 14 6-6 9-2 11 13 7 12-4 22-2 22 4s9 8 20 5c13-3 18-1 13 6-4 6 2 8 15 5 12-4 22-2 22 4s7 8 15 4c8-3 15 0 15 5 0 6 9 9 20 6 13-3 18-1 13 6-4 6 2 8 15 5 14-4 20-2 15 5-4 6 2 8 15 5 12-4 22-2 22 4s7 7 16 4c10-4 13-2 8 6s0 9 15 5c13-3 21-3 18-1-3 3 6 16 20 30 51 51 57 86 62 350 1 37 4 43 29 48 15 4 35 9 46 13 13 4 16 2 11-7s-4-11 4-6c6 4 9 11 6 16-6 10 43 23 57 14 6-4 8-3 4 4-3 6 4 14 16 18 13 3 69 29 126 56 212 102 304 240 289 432-6 85-26 146-73 226-37 63-139 180-157 180-6 0-22 11-36 24-15 13-62 44-105 69-46 27-73 48-65 51 33 11 108 13 118 3 20-20 49 30 56 96 6 61 51 443 99 842 14 110 23 201 21 203s-15-17-30-42c-26-45-44-63-27-28 4 9 7 35 6 57l-1 40-166 86c-152 78-210 111-164 93 15-6 17-2 12 22-4 16-10 38-15 49-4 11-13 36-20 55-19 55-62 143-80 165-10 11-27 45-38 75-12 30-21 51-21 46-1-13 90-361 192-731 49-181 90-335 90-341 0-5-65-127-145-270-81-142-152-271-159-286-7-16-17-28-24-28-6 0-66 15-132 34-67 19-156 40-198 47-44 8-79 19-82 26-4 9-9 10-17 4-6-5-31-5-61 0-27 5-67 12-89 16-46 7-57 28-81 157-55 294 32 710 232 1110 30 59 53 109 51 111s-108 15-237 31l-234 28 134 31c151 36 171 43 163 56-3 6 20 7 59 3l65-7 6 39c12 78 46 373 46 403 0 26-4 31-32 35-76 12-100 12-103 2-2-6-16-112-30-236-15-124-27-226-28-227s-27 19-57 44c-33 28-54 52-52 62 13 59 48 377 43 382-3 4-34 10-68 13l-61 7-7-42c-6-36-10-40-29-35-11 3-37 6-57 6h-37l8 37c5 20 7 40 4 44-2 4-35 10-73 14l-69 7-45 96c-24 54-50 114-58 135-8 23-19 37-30 37-10 0-24 3-33 6s-16 4-16 1zm-132-503c19-6 23-12 20-43l-3-36-50 3c-27 2-50 5-51 5-1 1 1 19 4 40 4 32 8 37 31 37 14 0 36-3 49-6zm542-54c0-16-4-30-9-30s-19 14-31 30l-21 30h30c28 0 31-3 31-30zm418-2259c62-9 178-38 272-68 25-7 72-21 105-30 131-35 141-57 149-318 5-176 4-196-8-169-8 19-51 59-110 104-53 40-96 76-96 80 0 19-113 33-212 26-57-4-269-8-473-10-407-3-537-15-741-66-163-41-250-87-291-155-11-18-12-17-12 15-1 19-10 106-21 192-18 139-19 161-6 185 50 98 334 197 646 227 78 7 732-3 798-13z"/><path d="m2614 4081-130-108-105 13c-57 7-111 13-120 14-12 0-18-14-22-57-4-32-16-137-26-233-11-96-17-177-13-181s35-10 70-13c55-6 62-5 62 11 1 42 37 313 42 318 3 3 45 1 92-5 48-7 89-10 91-9 1 2 5 31 7 64 3 52 1 60-19 70s-12 19 113 114c74 57 134 105 134 107s-10 4-22 4c-14-1-75-44-154-109z"/><path d="m2626 3903c-4-31-3-59 1-63s53-12 109-18c113-13 134-19 134-37 0-19-20-24-88-19-67 5-120-11-159-48-30-29-47-105-34-155 21-78 83-107 250-119l98-7 6 64c3 35 4 65 3 67-2 1-50 8-108 14-90 10-105 14-101 29 4 14 16 16 93 11 88-5 89-4 119 25 35 36 53 93 47 157-6 61-37 103-86 116-27 7-230 37-276 40-1 0-4-26-8-57zm-1889-700c-4-3-7-53-7-110v-103l95-1c52-1 101-2 108-3 12-1 12 3 9 157l-2 67h-98c-54 0-102-3-105-7zm1287-38c-8-19-21-51-29-72-8-20-13-38-11-40 5-5 124-23 157-23 21 0 35 13 73 70 25 38 46 74 46 80 0 5-24 11-52 11-29 1-79 3-111 5-58 3-58 3-73-31zm-59-442c-44-14-81-26-83-28-1-1-5-34-7-74-4-52-2-71 8-71 6 0 46 14 88 31l76 30 7 45c3 24 8 55 12 69 8 31 3 31-101-2zm-1054-234c-52-11-96-21-98-23-2-1 6-45 18-95 20-86 23-92 43-87 11 4 58 16 104 27 66 17 82 25 78 38-3 9-12 49-21 89-9 39-20 71-23 71-4-1-49-10-101-20zm1002-160-73-49 21-53c11-28 23-54 25-57 5-5 80 35 114 60 20 15 21 22 15 83-4 40-12 67-19 66-6 0-44-22-83-50zm-1749-431-29-33 33 29c17 17 32 31 32 33 0 8-8 1-36-29zm2998-88c20-59 20-65 7-52-28 27-79 8-79-30 0-10-5-18-11-18s-1-12 10-26c12-15 21-32 21-39 0-14 42-45 61-45 8 0 6 7-5 19-16 17-15 19 10 36 24 15 26 21 22 69-2 29-12 63-22 77-10 13-16 17-14 9zm3-60c4-6 10-8 14-6 4 3 8-12 9-33 2-31-2-39-21-48-20-9-26-8-38 11-21 31-27 59-16 74s43 16 52 2zm-146-10c13-11 28-20 35-20 6 0 0 9-14 20-33 26-52 25-21 0zm145-812-29-33 33 29c30 28 37 36 29 36-2 0-16-15-33-32zm-461-393c0-27 2-38 4-22 2 15 2 37 0 50-2 12-4 0-4-28z"/></g><g fill="#9c5859"><path d="m2614 4081-130-108-105 13c-57 7-111 13-120 14-12 0-18-14-22-57-4-32-16-137-26-233-11-96-17-177-13-181s35-10 70-13c55-6 62-5 62 11 1 42 37 313 42 318 3 3 45 1 92-5 48-7 89-10 91-9 1 2 5 31 7 64 3 52 1 60-19 70s-12 19 113 114c74 57 134 105 134 107s-10 4-22 4c-14-1-75-44-154-109zm-1644 78c-1-2-14-112-30-244-15-132-27-241-26-243 6-6 169-22 237-24 87-2 137 21 163 76 35 73 11 195-43 222-12 6-22 14-22 18s31 32 68 62c37 31 69 59 71 64 4 11-21 17-106 25l-73 7-61-48-61-48 6 62c6 56 5 62-12 62-10 0-39 3-65 6-25 4-46 5-46 3zm178-295c19-6 23-12 20-43l-3-36-50 3c-27 2-50 5-51 5-1 1 1 19 4 40 4 32 8 37 31 37 14 0 36-3 49-6zm318 199c-3-15-8-53-11-83s-8-73-11-95-8-79-11-127l-6-87 33-29c41-38 105-56 200-57 85 0 123 17 142 63 14 34 58 385 49 393-3 4-34 10-68 13l-61 7-7-42c-6-36-10-40-29-35-11 3-37 6-57 6h-37l9 37c4 21 5 41 1 44-4 4-35 10-69 14l-61 7zm222-228c2-2 0-30-3-62l-7-59-49 6c-27 4-51 8-53 11-3 3-2 30 1 61l6 57 51-6c28-3 52-7 54-8zm287 181c-4-10-55-438-55-456 0-9 128-26 136-17 6 6 54 390 54 434 0 29-4 33-32 37-76 12-100 12-103 2z"/><path d="m2626 3903c-4-31-3-59 1-63s53-12 109-18c113-13 134-19 134-37 0-19-20-24-88-19-67 5-120-11-159-48-30-29-47-105-34-155 21-78 83-107 250-119l98-7 6 64c3 35 4 65 3 67-2 1-50 8-108 14-90 10-105 14-101 29 4 14 16 16 93 11 88-5 89-4 119 25 35 36 53 93 47 157-6 61-37 103-86 116-27 7-230 37-276 40-1 0-4-26-8-57zm-95-357c-1-13 90-361 192-731 49-181 90-335 90-341 0-5-65-127-145-270-81-142-152-272-159-289-7-16-14-31-14-32-1-2-33 7-71 18-93 28-250 67-303 75-23 4-45 13-48 20-3 10-9 10-22 3-12-8-41-6-106 8l-90 19-23 110c-66 317 15 728 225 1148 30 59 53 109 51 111-2 1-140 19-308 39s-375 45-460 56c-85 10-194 22-241 25-101 8-93 17-108-115-38-341 27-789 169-1165 23-61 44-117 46-126 5-15-10-16-160-13-256 6-395-18-562-97-23-10-45-19-49-19s-35-16-69-37c-182-108-280-212-318-336-27-89-22-231 12-320 26-70 105-159 193-218 70-47 286-153 392-193l71-26 63-153c49-117 71-187 95-305 30-142 36-157 80-222 53-76 99-118 161-145 80-33 312-29 507 9 40 8 116 22 168 32 161 29 719 190 766 221 38 24 64 102 64 190 0 43 3 108 6 144l7 67 82 27c46 15 138 53 204 86 140 67 216 133 257 223 85 186 25 417-148 571-79 71-112 97-133 106-11 5-42 23-70 39-56 34-92 51-149 75-70 28-29 28 59 0 56-18 97-26 119-22 19 3 39 0 45-6 20-20 49 29 56 96 6 61 51 443 99 842 14 110 23 201 21 203s-15-17-30-42c-26-45-44-63-27-28 4 9 7 35 6 57l-1 40-166 86c-152 78-210 111-164 93 15-6 17-2 12 22-4 16-10 38-15 49-4 11-13 36-20 55-19 55-62 143-80 165-10 11-27 45-38 75-12 30-21 51-21 46zm-490-1986c121-12 236-39 469-112 47-15 87-44 104-76 10-19 16-90 21-237l6-210-21 40c-12 24-46 58-82 85-34 25-78 59-97 76-56 48-109 57-275 43-86-7-215-8-331-4-425 14-845-39-1029-132-48-24-96-74-96-100 0-13-4-23-8-23s-18 91-31 202c-21 177-23 204-10 227 51 90 276 178 554 215 122 17 676 21 826 6z"/><path d="m1840 3510c-36-10-58-18-50-19 18-1 120 26 128 33 8 9-6 6-78-14zm-1103-307c-4-3-7-53-7-110v-103l95-1c52-1 101-2 108-3 12-1 12 3 9 157l-2 67h-98c-54 0-102-3-105-7zm1287-38c-8-19-21-51-29-72-8-20-13-38-11-40 5-5 124-23 157-23 21 0 35 13 73 70 25 38 46 74 46 80 0 5-24 11-52 11-29 1-79 3-111 5-58 3-58 3-73-31zm-59-442c-44-14-81-26-83-28-1-1-5-34-7-74-4-52-2-71 8-71 6 0 46 14 88 31l76 30 7 45c3 24 8 55 12 69 8 31 3 31-101-2zm-1054-234c-52-11-96-21-98-23-2-1 6-45 18-95 20-86 23-92 43-87 11 4 58 16 104 27 66 17 82 25 78 38-3 9-12 49-21 89-9 39-20 71-23 71-4-1-49-10-101-20zm1002-160-73-49 21-53c11-28 23-54 25-57 5-5 80 35 114 60 20 15 21 22 15 83-4 40-12 67-19 66-6 0-44-22-83-50zm1252-529c9-31 25-50 25-29 0 7-8 23-16 34-16 19-16 19-9-5zm-71-121c14-17 26-35 26-39 0-5 9-14 20-20 17-9 19-8 13 7-11 32-54 83-69 83-12 0-9-8 10-31z"/></g><g fill="#c17d6e"><path d="m970 4148c-1-7-13-116-28-243l-28-230 36-7c19-4 87-10 150-13 100-6 120-4 149 12 48 25 73 63 79 121 6 66-12 115-55 151l-35 29 76 58c70 54 89 74 68 74-4 0-44 5-90 10l-82 11-65-52-65-51 6 49c3 26 7 54 10 61 4 15-4 18-73 27-40 4-53 2-53-7zm201-282c3-3 3-24 1-47l-4-41-51 7c-29 3-53 8-55 10-2 1 0 19 3 39 7 35 8 36 54 36 26 0 50-2 52-4zm299 217c0-4-9-82-20-173-26-219-26-222 10-264 36-40 92-56 201-56 80 0 125 18 139 56 9 24 50 329 50 373 0 21-8 25-87 35l-43 6v-34c0-19-5-38-10-41-6-4-34-3-63 0l-52 7 3 39c3 26 0 40-9 43-31 10-119 16-119 9zm190-240 33-6-7-60c-3-33-7-61-9-63-1-1-26 1-54 3-59 6-61 10-47 96 7 40 17 44 84 30zm316 156c-5-21-44-355-49-419-2-23 2-25 62-33 35-4 65-6 66-5 5 5 57 459 53 463-1 2-31 7-65 10-60 7-62 7-67-16zm273-1c-10-42-54-455-50-460 9-10 111-29 121-23 4 2 15 76 25 162 9 87 18 163 20 169 2 7 30 6 91-3 49-7 92-9 95-5 4 4 9 31 11 60 6 65 9 64-157 81-66 7-128 15-137 17-10 3-18 4-19 2zm387-50c-3-7-7-32-9-56-6-53 0-57 132-71 98-11 118-19 108-45-5-12-23-15-89-13-95 1-138-16-169-68-23-39-24-117-2-162 23-48 73-69 206-84 126-15 127-14 127 67v52l-42 6c-24 3-71 8-104 12-52 5-61 9-57 24s16 17 93 16c84-1 90 0 118 27 53 51 63 183 16 230-29 29-74 43-189 57-49 6-100 13-113 16-13 2-24-1-26-8zm-1629-449c-4-13-12-83-18-155-13-159 1-424 30-586 36-194 113-469 161-573 5-11 16-37 25-59l15-38-153 6c-109 4-188 2-273-9-141-18-196-33-321-90-17-8-34-15-38-15s-35-16-69-37c-182-108-280-212-318-336-27-89-22-231 12-320 26-70 105-159 193-218 70-47 286-153 392-193l71-26 63-153c49-117 71-187 95-305 30-142 36-157 80-222 53-76 99-118 161-145 80-33 312-29 507 9 40 8 116 22 168 32 161 29 719 190 766 221 38 24 64 102 64 190 0 43 3 108 6 144l7 67 82 27c46 15 138 53 204 86 94 45 134 71 177 113 184 185 152 485-74 688-94 83-245 172-397 233-38 15-79 34-92 42-12 8-26 12-31 9s-63 10-128 29c-66 18-157 41-204 49-47 9-90 22-95 30-7 9-15 10-26 3-16-10-176 16-191 31-3 4-16 54-28 112-22 106-29 309-15 397 15 90 47 250 56 278 67 212 110 324 181 465 31 63 56 115 55 116-2 1-925 109-1033 120-58 6-61 5-67-17zm1034-1939c121-12 236-39 469-112 47-15 87-44 104-76 10-19 16-90 21-237l6-210-21 40c-12 24-46 58-82 85-34 25-78 59-97 76-56 48-109 57-275 43-86-7-215-8-331-4-425 14-845-39-1029-132-48-24-96-74-96-100 0-13-4-23-8-23s-18 91-31 202c-21 177-23 204-10 227 51 90 276 178 554 215 122 17 676 21 826 6z"/><path d="m737 3203c-4-3-7-50-7-104 0-79 3-98 16-103 9-3 57-6 108-6h93l-4 98c-3 53-6 103-8 110-5 13-185 18-198 5zm1296-21c-8-26-24-64-40-95-8-16-13-30-10-33 2-2 44-9 92-15 82-10 90-10 103 8 21 29 83 135 80 138-2 1-52 5-111 8-95 5-109 3-114-11zm607-49c-2-28 165-592 173-584 11 11 15 367 5 439-6 39-5 52 5 52 12 0-162 99-175 100-5 0-8-3-8-7zm310-424c-63-112-128-228-143-258-16-30-86-156-156-280s-130-233-133-242c-10-27 4-36 77-48 117-20 198-43 227-64 24-18 34-19 75-11l48 9 8 70c7 63 1 128-20 195-4 12-3 13 5 1 8-11 11-10 15 5 2 10 6 1 7-21s3-35 5-30c7 18 106 847 103 862-2 8-55-77-118-188zm-982 13-88-26-1-40c-1-23-3-56-5-74-3-37-7-37 98 0 69 24 74 30 81 88 3 25 9 54 13 63 8 21 8 21-98-11zm-969-217c-3-3-45-12-94-20-49-9-90-17-92-19s37-175 42-183c0-1 34 7 75 18s85 23 98 26c27 6 28 25 6 107-17 62-26 80-35 71zm923-169c-34-24-65-46-68-49-8-8 25-117 36-117 5 0 37 16 71 36 60 36 61 37 55 73-3 20-6 51-6 69 0 19-5 32-12 31-7 0-41-20-76-43zm1243-536c9-31 25-50 25-29 0 7-8 23-16 34-16 19-16 19-9-5zm-71-121c14-17 26-35 26-39 0-5 9-14 20-20 17-9 19-8 13 7-11 32-54 83-69 83-12 0-9-8 10-31z"/></g><g fill="#c5b4a5"><path d="m970 4148c-1-7-13-116-28-243l-28-230 36-7c19-4 87-10 150-13 100-6 120-4 149 12 48 25 73 63 79 121 6 66-12 115-55 151l-35 29 76 58c70 54 89 74 68 74-4 0-44 5-90 10l-82 11-65-52-65-51 6 49c3 26 7 54 10 61 4 15-4 18-73 27-40 4-53 2-53-7zm201-282c3-3 3-24 1-47l-4-41-51 7c-29 3-53 8-55 10-2 1 0 19 3 39 7 35 8 36 54 36 26 0 50-2 52-4zm299 217c0-4-9-82-20-173-26-219-26-222 10-264 36-40 92-56 201-56 80 0 125 18 139 56 9 24 50 329 50 373 0 21-8 25-87 35l-43 6v-34c0-19-5-38-10-41-6-4-34-3-63 0l-52 7 3 39c3 26 0 40-9 43-31 10-119 16-119 9zm190-240 33-6-7-60c-3-33-7-61-9-63-1-1-26 1-54 3-59 6-61 10-47 96 7 40 17 44 84 30zm319 176c-9-40-55-456-50-460 3-4 33-9 67-13l60-7 28 231c16 127 27 233 25 235-6 5-129 18-130 14zm267-37c-9-34-49-442-44-448 13-12 120-21 123-10 2 6 11 81 20 166 10 85 19 157 20 160 2 3 42 1 90-4 72-8 88-7 96 5 11 17 12 109 1 109-6 0-131 16-269 34-24 4-33 0-37-12zm391-39c-4-3-7-28-7-53 0-54-2-54 133-66 82-7 114-22 104-47-4-12-26-16-101-19-84-3-97-6-121-28-44-41-58-77-53-137 5-61 39-106 92-122 38-12 236-34 243-27 3 2 7 31 10 64l6 59-64 7c-139 14-147 16-142 37 5 16 15 18 93 16 75-2 91 1 110 18 34 30 50 77 50 148 0 100-27 120-195 143-113 15-149 17-158 7zm-1630-445c-4-12-12-84-18-159-29-349 48-794 205-1188l25-63-153 6c-108 4-187 2-272-9-141-18-196-33-321-90-17-8-34-15-38-15s-35-16-69-37c-182-108-280-212-318-336-27-89-22-231 12-320 26-70 105-159 193-218 70-47 286-153 392-193l71-26 63-153c49-117 71-187 95-305 30-142 36-157 80-222 53-76 99-118 161-145 80-33 312-29 507 9 40 8 116 22 168 32 161 29 719 190 766 221 38 24 64 102 64 190 0 43 3 108 6 144l7 67 82 27c46 15 138 53 204 86 94 45 134 71 177 113 184 185 152 485-74 688-94 83-245 172-397 233-38 15-79 34-92 42-12 8-26 12-31 9s-63 10-128 29c-66 18-157 41-204 49-47 9-90 23-96 31-8 11-14 11-22 3s-30-8-84 2c-114 21-112 19-131 99-50 207-45 393 18 657 36 148 98 320 176 483 38 80 66 148 62 151-5 4-109 19-233 34-124 14-333 39-465 55-394 47-381 47-388 19zm1034-1938c121-12 236-39 469-112 47-15 87-44 104-76 10-19 16-90 21-237l6-210-21 40c-12 24-46 58-82 85-34 25-78 59-97 76-56 48-109 57-275 43-86-7-215-8-331-4-425 14-845-39-1029-132-48-24-96-74-96-100 0-13-4-23-8-23s-18 91-31 202c-21 177-23 204-10 227 51 90 276 178 554 215 122 17 676 21 826 6z"/><path d="m737 3203c-4-3-7-50-7-104 0-79 3-98 16-103 9-3 57-6 108-6h93l-4 98c-3 53-6 103-8 110-5 13-185 18-198 5zm1279-73c-14-36-26-68-26-72 0-3 24-9 53-12 28-4 68-9 88-12 35-5 36-4 82 70 54 88 60 83-85 89l-86 3zm-61-414-70-22-3-72-3-72 78 29c77 28 78 29 90 72 26 98 22 101-92 65zm-1055-234c-41-8-77-16-79-18-9-8 32-174 43-174s178 41 184 46c2 1-4 39-13 83-20 92-12 89-135 63zm1763-295-152-272 27-6c15-3 63-4 107-1 72 4 83 7 113 35 17 17 32 34 32 38 0 11 90 143 102 150 8 5 0 56-27 168-21 89-41 161-44 161-3-1-74-123-158-273zm-738 146c-39-25-72-47-74-49-3-3 28-105 35-113 2-2 32 13 68 33l65 36-6 53c-11 93-10 93-88 40zm1240-533c9-31 25-50 25-29 0 7-8 23-16 34-16 19-16 19-9-5zm-71-121c14-17 26-35 26-39 0-5 9-14 20-20 17-9 19-8 13 7-11 32-54 83-69 83-12 0-9-8 10-31z"/></g><g fill="#dbbfc2"><path d="m974 4146c-2-6-15-112-30-236-14-124-28-228-30-231s57-12 131-19c150-15 198-8 241 35 64 64 49 208-26 254l-29 17 69 53c105 80 105 78-4 86l-95 7-48-39c-76-63-75-63-67 6 6 58 6 60-17 65-55 11-91 12-95 2zm198-285c4-4 5-23 1-44-5-35-8-37-43-37-68 0-80 15-64 76 5 19 11 21 52 16 26-2 50-7 54-11zm281 37c-19-162-20-196-9-222 23-53 46-66 142-78 103-13 153-6 190 26 25 21 28 33 51 215 13 107 22 195 20 197s-31 7-65 10l-61 7-3-39c-3-38-4-39-38-36-19 1-48 5-63 8-27 6-28 8-22 44 7 43 17 37-95 55l-26 4zm241-59c6-6-9-117-17-125-3-4-31-3-61 0l-55 7 5 47c11 93 7 89 68 82 31-3 57-8 60-11zm283 143c-3-20-16-122-28-226-24-210-25-204 44-207 20-1 43-2 49-3 14-1 72 444 60 455-4 4-32 9-63 13l-56 6zm268-34c-13-99-45-378-45-397 0-16 9-21 56-27 39-4 58-3 63 5 4 6 16 84 25 172l18 160 27-5c14-3 56-8 92-12l66-6 7 32c10 51 7 90-6 90-7 0-67 7-133 15-172 21-163 22-170-27zm391-20c-3-13-6-37-6-54v-32l103-12c114-14 137-22 137-49 0-17-11-19-100-23-93-3-101-5-129-32-74-71-64-198 20-241 26-14 257-50 265-42 2 2 5 30 6 62l3 59-99 13c-54 7-101 14-103 17-3 2-2 13 1 23 6 18 12 19 77 11 87-11 134 8 161 62 21 41 24 156 5 181-24 31-75 48-192 63-149 20-142 20-149-6zm-1626-420c0-7-5-42-10-78-11-72-14-362-5-449 28-267 64-439 137-656 48-145 74-195 100-195 53 0 382-31 486-46 63-8 115-14 117-12s-3 32-11 68c-66 309 15 713 233 1159 23 47 40 88 38 90-5 4-416 54-785 96-124 14-242 28-262 31-28 4-38 2-38-8zm-272-304c-7-6-12-203-5-205 1 0 48-3 104-6 92-5 101-4 105 13 4 23-8 183-15 190-8 9-182 16-189 8z"/><path d="m2017 3130c-15-34-27-65-27-70s36-12 80-16c44-3 83-7 86-8 11-2 103 138 94 144-5 3-53 7-108 8l-99 3zm-27-405c-117-35-105-23-108-102l-3-72 53 21c29 11 63 22 76 25 26 6 36 26 46 96 8 53 8 53-64 32zm-1085-243c-44-8-82-16-84-18-7-6 33-174 42-174 18 0 172 42 180 49 4 4-1 42-10 84-13 56-22 77-33 76-8-1-51-8-95-17zm1772-276c-75-134-137-246-137-249 0-5 70 9 74 15 1 1 24 36 52 75 27 40 60 90 74 112 66 102 96 140 106 137 12-4-12 132-25 146-4 5-69-102-144-236zm-755 122c-79-53-77-49-46-125l14-33 33 18c17 9 46 27 63 39 31 22 31 22 22 84-4 35-9 63-11 65-1 1-35-21-75-48zm-1152-249c-179-27-317-83-488-197-75-50-154-129-193-192-72-117-74-336-4-455 63-108 247-230 485-320 69-27 130-52 137-57 6-5 26-44 43-86s47-113 65-157 47-147 64-229c26-123 37-157 66-200 49-74 113-135 164-157 161-70 585-6 1245 188 88 26 173 57 190 68 57 38 70 82 76 255l5 154 55 20c30 10 57 22 60 26s65 37 137 75c156 79 220 136 265 231 16 35 32 87 35 116 12 114-44 257-142 365-65 72-57 93 12 31l48-42-50 52c-161 170-520 325-925 401-106 20-145 27-270 52-314 61-866 91-1080 58zm1295-519c84-9 318-62 354-80 9-4 42-15 74-25 67-19 122-63 135-108 5-18 10-63 11-102 0-38 3-126 7-194 5-102 4-123-7-119-8 3-15 14-17 26-4 24-16 36-128 125-89 71-155 98-219 91-22-2-242-8-490-13-428-9-512-14-667-41-78-14-92-24-19-14l48 6 7-48c11-77 17-104 24-102 4 1 19-4 35-10 33-14 35-39 6-101-11-25-18-50-15-57s-5-36-16-66c-25-62-34-222-17-278 15-46 50-84 123-131 33-22 56-39 51-39-7 0-193 56-225 68-8 3-22 5-30 4-11-1-11 0-2 4 11 5 10 9-1 23-9 9-25 45-37 81-18 54-22 94-26 240-4 184-8 230-24 259-5 10-11 29-14 42s-9 36-12 51c-6 24-3 27 30 34 21 3 35 9 32 12-10 9-139-30-213-64-73-35-113-72-113-105 0-11-4-19-10-19-5 0-10 4-10 8s-9 79-20 167c-28 223-27 237 14 282 90 100 345 179 653 203 128 10 600 4 728-10zm873-106c36-24 44-30 112-98 55-54 60-63 61-105 3-100-7-133-58-191-13-13-23-27-23-31 0-3-27-18-59-33-60-28-151-35-151-12 0 6-4 5-9-2-7-12-12-12-32 0-13 7-26 16-29 19-8 9-44 22-57 20-23-3-43 43-43 100 0 59 7 69 51 69 18 0 47 13 76 35 63 46 82 93 67 163-11 55-11 81 1 79 5-1 9 3 8 10-3 15 49 1 85-23z"/></g><g fill="#e6e2d9"><path d="m947 3919c-15-127-25-235-22-239 2-4 60-13 127-20 140-14 189-6 231 36 62 62 49 212-22 249-17 8-31 17-31 19s26 23 57 47c79 60 96 76 86 82-4 3-44 8-89 12l-80 7-56-46c-31-25-60-46-64-46-3 0-4 26 0 59 6 55 5 59-16 65-13 3-39 6-58 6h-36zm232-55c2-2 0-23-3-48l-7-44-42 5c-63 7-67 10-67 42 0 56 7 62 64 55 28-4 53-8 55-10zm296 204c-2-7-7-42-10-78-4-36-9-74-11-85s-6-65-10-121c-8-116-1-135 54-163 47-24 176-36 229-22 67 18 73 32 94 208 10 87 21 174 24 194l5 36-57 7c-62 7-73 1-73-46 0-27-1-27-52-22-80 8-81 9-75 53 5 38 4 39-32 45-56 9-81 7-86-6zm218-227c4-4 4-35 1-69l-7-62h-41c-81 0-86 5-80 69 8 83 6 81 66 74 29-3 56-9 61-12zm287 167c0-6-12-107-26-225s-23-217-20-220 31-6 63-7l57-1 26 220c18 149 23 222 15 226-21 13-115 18-115 7zm270-28c0-7-12-109-26-227s-24-216-22-218 29-6 60-10l57-7 5 33c3 19 13 95 21 169 9 74 18 136 19 138 2 1 43-2 91-8s89-10 90-8c2 2 6 28 10 59l7 56-109 12c-59 6-129 14-155 18-35 4-48 2-48-7zm387-67c-13-73-17-69 98-82 121-14 131-17 140-38 9-26-5-31-101-35-81-4-96-7-128-31-40-31-51-59-50-129 1-57 24-95 72-115 40-16 243-44 253-34 4 3 9 29 13 58 7 58 11 56-109 68-87 9-97 13-93 38 3 21 7 22 89 19 54-3 95 1 109 8 48 26 75 144 49 218-13 39-59 58-176 72-48 5-104 13-124 16-35 5-36 4-42-33zm-1622-403c-11-18-26-200-26-315 0-316 56-621 175-949 19-55 39-103 43-107s76-12 158-19c83-6 220-20 306-30 183-23 169-23 169-9 0 5-5 7-12 3s-8-3-4 4c4 6-1 51-10 99-23 120-14 334 20 493 42 198 122 423 221 621l45 88-43 6c-23 3-154 19-292 35-323 38-333 39-378 45-22 3-64 8-95 11-32 4-106 12-165 18-59 7-110 9-112 6zm288-1367c-13-2-33-2-45 0-13 2-3 4 22 4s35-2 23-4zm130-10c-13-2-35-2-50 0-16 2-5 4 22 4 28 0 40-2 28-4zm115-10c-10-2-26-2-35 0-10 3-2 5 17 5s27-2 18-5zm-812 1079c-8-14-6-202 2-202 4 0 51-3 104-5 87-5 97-4 100 12 4 19-10 185-16 191-10 9-184 13-190 4z"/><path d="m2016 3125c-15-37-26-69-24-70 2-2 42-6 89-10l85-7 43 67c23 37 40 70 37 72-2 3-49 7-104 10l-99 4zm-44-409c-40-12-78-29-83-37-5-7-9-39-9-70v-56l79 31c78 30 79 32 86 71 3 22 8 50 12 63 6 26 7 26-85-2zm-1059-235c-45-9-84-19-87-22-4-3 2-42 13-85 14-59 22-79 34-78 28 3 162 36 169 43 9 8-26 154-38 157-5 1-46-6-91-15zm1010-152-72-49 15-43c8-23 16-48 19-54 3-9 24-1 65 23 65 39 69 48 52 135l-7 37zm881-54c-33-57-27-69 6-14 14 21 30 37 37 35 7-3 10 1 6 10-9 24-21 16-49-31zm-104-153c-8-10-21-29-29-43-8-13-21-34-29-46-8-13-12-23-9-23s26 29 51 65 42 65 38 65-14-8-22-18zm-1826-31c-3-3-20-6-37-7-35-1-107-11-147-20-14-3-29-6-35-7-5-2-16-6-22-10-7-5-13-5-13-1 0 3-7 1-15-6s-15-9-15-5-7 2-15-5-15-9-15-6c0 4-10 1-22-6-13-7-26-11-30-10s-29-12-55-28c-26-17-52-30-58-30-7 0-22-9-35-20s-29-20-37-20c-7 0-13-4-13-10 0-5-6-10-14-10s-16-7-20-15c-3-8-12-15-20-15-7 0-17-7-20-16-3-8-10-13-14-10-5 3-24-10-42-29l-34-35 52 25c29 14 53 25 55 25s-22-26-53-58c-31-31-70-84-86-117-28-57-29-66-29-197 0-75-2-134-5-132-2 3-7 26-11 52-6 41-7 37-5-24 0-41 5-69 10-66s6-2 3-12c-5-11-3-15 5-10s9 2 5-9c-4-10-2-16 6-14 7 1 11-6 11-15-1-10 2-15 7-13 4 3 19-12 33-34 42-66 331-243 372-227 8 3 13 2 10-3-7-11 22-23 35-15 5 3 9 1 9-4s28-19 63-32c34-12 67-27 74-32 6-5 26-44 43-86s47-113 65-157 47-146 64-227 40-162 52-182c22-38 37-50 19-16-6 12-9 38-7 58l4 37 1-41c1-26 12-56 28-80 19-28 21-34 8-24-11 8-6 0 10-17 61-68 304-97 571-70 83 9 164 14 180 11 24-5 27-3 15 6s-7 10 23 5c29-5 37-3 32 5-6 9 1 10 24 5 20-4 31-3 31 4s10 9 25 5c16-4 25-2 25 6 0 7 8 10 20 7 11-3 23-1 26 5 3 5 12 7 20 4s14-1 14 5 6 9 14 6c7-3 17-2 22 3s23 11 39 14c47 8 74 14 83 20 5 3 19 7 33 10 48 10 64 14 92 25 15 6 27 8 27 5 0-4 7 0 17 7 9 8 18 13 20 11 3-3 71 14 103 26 8 3 23 7 33 8 37 8 99 56 113 89 19 46 23 87 25 244 0 74 4 129 8 122 6-9 20-8 57 5 27 9 51 20 54 24s65 37 137 75c156 79 220 136 265 231 16 35 32 87 35 116 12 114-44 257-142 365-65 72-57 93 12 31l48-42-50 52c-61 64-163 136-270 190-98 49-186 85-193 77-3-3 0-5 6-5s9-7 6-15c-4-10-13-13-25-10-12 4-19 2-19-7 0-7-11-40-24-73s-34-87-46-120c-40-110-46-116-100-101-16 4-12 0 11-12 20-10 52-22 70-26 59-11 133-54 155-88 20-33 27-120 29-378 0-64-17-100-23-48-4 30-12 39-128 131-123 98-136 100-379 77-72-7-75-7-25-9l55-1-27-25c-26-24-48-79-48-119 0-23 51-126 62-126 4 0 8-9 8-20s3-20 8-20c12 0 122-204 138-256 8-26 14-61 14-77 0-76-87-185-189-236-46-24-83-33-153-41-137-14-192-11-88 5 131 21 141 23 200 45 76 29 129 68 165 120 25 38 30 54 30 105-1 84-31 143-94 187-18 13-29 14-50 6-14-5-46-13-71-18-25-4-90-17-145-28s-111-22-125-25-72-15-130-27-123-26-145-30c-22-5-78-16-125-25-47-10-101-20-121-22-35-5-36-4-42 34-11 64-8 100 13 157 37 98 160 183 332 227 71 19 100 21 204 16l120-5 18 76c9 42 19 85 22 95 4 12-1 17-18 18-16 1-13 4 12 9 37 9-476 4-570-5-126-11-147-14-195-19-27-4-63-11-80-16-24-7-20-8 21-3l51 5 7-48c11-77 17-104 24-102 4 1 19-4 35-10 33-14 35-39 6-101-11-25-18-50-15-57s-5-36-16-66c-25-62-34-222-17-278 15-45 50-84 121-130 47-31 54-39 38-43-13-3-18-1-13 6 4 6-2 8-15 5-14-4-20-2-15 5 4 6-2 8-15 5-14-4-20-2-15 5 4 6-2 8-15 5-14-4-20-2-15 5 4 6-2 8-15 5-14-4-20-2-15 4 4 8-5 9-28 5-24-5-30-4-19 3 12 8 11 10-6 10-32 0-70 49-94 120-18 54-22 94-26 240-4 184-8 230-24 259-5 10-11 29-14 42s-9 36-12 51c-6 24-3 27 30 34 21 3 35 9 32 12-8 7-136-28-162-45-11-7-24-10-27-6-4 3-7 1-7-6s-4-10-9-7c-5 4-11 2-13-3-1-5-9-11-17-13s-26-14-40-29c-14-14-21-18-16-9 6 9 0 5-13-8-15-15-21-31-17-43 4-11 2-19-5-19-6 0-8-5-4-11 4-7 3-10-2-8s-37 15-71 28c-35 13-63 27-63 32s-7 5-17 2c-9-4-14-2-10 3 3 5-2 10-11 11-66 6-98 14-109 28-6 10-16 14-22 11-12-8-74 28-64 37 3 4 0 8-8 8-8 1-16 2-19 2s-18 13-35 29c-28 27-25 26 35-10 36-21 80-44 97-51 18-7 31-17 28-21s1-10 8-13c8-3 14 1 14 9 0 7-8 16-18 19-9 3-29 15-43 26l-26 20 22 42c24 47 39 62 87 83 29 13 44 14 102 3 46-8 69-17 69-26 0-11-15-14-63-12-78 2-122-19-125-59-1-15 5-35 12-44 15-21 185-103 193-94 11 11 6 166-6 166-3 0-6 21-7 48 0 26-2 71-5 101-4 50-3 55 32 95 55 61 178 120 324 154 220 52 336 61 690 57 165-2 311-6 325-9 14-2 57-7 95-11 39-4 88-13 110-20 58-20 125-34 125-26 0 10-188 60-264 70-37 6-71 12-74 15s6 32 19 63l25 58 89 12c152 19 245 39 279 59 15 9 16 15 7 33-7 11-18 21-26 21s-15 4-15 9c0 4-15 13-32 19-19 7-22 10-8 7 88-18 110-18 110 0 0 11-5 15-15 12-8-4-17-2-20 4-4 5-11 7-16 3-5-3-16 0-24 6-8 7-15 9-15 5s-7-2-15 5-15 9-15 5-7-2-15 5c-8 6-19 9-24 6-5-4-13-1-16 5-4 5-13 8-21 5-7-3-16-1-20 5-3 6-12 8-20 5-7-3-16-1-20 5-3 6-11 8-17 6-7-2-34 2-62 10-27 7-75 16-105 19s-58 8-63 11c-4 2-20 6-35 9-15 2-43 7-62 11s-39 8-45 8c-5 1-32 5-60 9-96 14-120 17-155 21-19 2-57 6-85 9-186 22-627 40-641 27zm2064-637c36-24 44-30 112-98 55-54 60-63 61-105 3-100-7-133-58-191-13-13-23-27-23-31 0-3-27-18-59-33-60-28-151-35-151-12 0 6-4 5-9-2-7-12-12-12-32 0-13 7-26 16-29 19-8 9-44 22-57 20-23-3-43 43-43 100 0 59 7 69 51 69 18 0 47 13 76 35 63 46 82 93 67 163-11 55-11 81 1 79 5-1 9 3 8 10-3 15 49 1 85-23zm-2788-249c24-29 24-29 2-10-13 11-28 29-34 40-11 21-8 18 32-30zm923-872c-13-2-33-2-45 0-13 2-3 4 22 4s35-2 23-4zm-94-22c-13-11-26-17-28-15-5 5 30 33 43 34 4 0-2-9-15-19zm1631 1674c-7-8-22-15-33-15s-18-3-14-6c10-11 54 5 61 21 7 19 2 19-14 0zm-2577-535c0-30 2-43 4-27 2 15 2 39 0 55-2 15-4 2-4-28z"/><path d="m1586 934c-122-24-266-104-312-173-14-21-27-55-31-75l-6-37 44 6c24 4 51 9 59 11 8 3 60 14 115 26 55 11 118 24 140 29s78 16 125 25 103 19 125 24c22 4 68 13 102 20 58 11 61 13 50 32-9 16-9 22 1 25 6 3 12 13 12 23 0 24-57 46-166 65-103 18-166 18-258-1zm-532-872c17-28 99-53 190-59 87-5 352 19 365 34 4 3-21 2-54-2-114-14-327-14-392-1-35 8-63 12-63 10 0-3-12 4-27 13-17 11-24 13-19 5z"/></g></svg>