<svg version="1" xmlns="http://www.w3.org/2000/svg" width="400" height="400" viewBox="0 0 4000 4000">
  <path d="M260 3983c-25-8-49-21-53-29s-14-14-22-14-20-8-27-18-21-21-31-25c-9-4-20-15-24-24-4-10-15-24-25-31s-18-19-18-27c0-7-6-20-13-27-44-46-42 26-45-1748C-1 287-1 279 41 225c11-13 19-28 19-34 0-14 117-131 131-131 6 0 21-8 34-19C279-1 287-1 2040 2c1774 3 1702 1 1748 45 7 7 20 13 27 13 8 0 20 8 27 18s21 21 31 25c9 4 20 15 24 24 4 10 15 24 25 31s18 19 18 27 6 18 14 22c7 4 21 30 30 56 14 43 16 209 16 1740 0 1734-1 1762-37 1785-6 4-13 17-17 28-8 27-120 134-139 134-9 0-17 5-19 12-13 37-36 38-1788 37-1511 0-1700-2-1740-16z" fill="#822017"/>
  <path d="M205 3640c-2-3-6-43-9-88s-10-90-15-100c-5-9-12-54-16-99-5-61-11-83-21-83-8 0-14-8-14-17 0-15-1-15-14 2-13 18-13 18-24-1-10-16-11-16-12-2 0 11-6 15-20 11-11-3-17-10-13-17 4-6-1-5-10 3-14 11-17 11-17 0s-2-11-10 1c-6 10-10-499-10-1445C0 262 0 270 44 221c9-10 16-23 16-29 0-15 116-132 131-132 6 0 21-8 34-19C279-1 287-1 2040 2c1774 3 1702 1 1748 45 7 7 20 13 27 13 8 0 20 8 27 18s21 21 31 25c9 4 20 15 24 24 4 10 15 24 25 31s18 20 18 28 6 17 14 20c7 3 21 29 30 57 15 47 16 188 14 1527l-3 1474-38 1c-25 1-36-3-33-10 2-6-2-12-10-12-9 0-13 7-9 16 3 10-1 9-10-4-11-14-18-16-23-8-4 6-21 13-37 15-29 3-30 5-33 56l-3 52h-45c-24 0-44 5-44 10 0 6 6 10 13 10 6 0 27 13 46 29 31 25 35 35 39 89 2 34 2 72-1 84-10 37-53 56-126 54-60-2-66-4-92-36l-29-34v69l-92-1-93-2-5-193-6-194-2 195-2 195h-240v-37c0-31-4-38-20-38s-20 7-20 38v37l-57-1c-55-1-58-2-56-25 14-139 35-325 38-329 2-3-3-16-12-30-8-14-12-18-10-9 3 9-1 16-8 16s-11-7-8-16c4-14 4-14-6-1-6 8-11 47-11 87 0 55-4 74-16 81-14 8-14 10 0 21 13 11 16 35 16 110v96l-55 1h-55v-87c0-48-4-91-10-94-6-4-10 27-10 87v93h-60l-60 1v-126h-150v-70h151l-3-92c-2-73-6-92-17-90-8 2-11-3-8-11s-1-14-9-14c-9 0-13 7-9 16 3 11 1 11-9-3-13-16-17-17-30-4-8 8-16 26-18 39-2 19-9 24-33 24h-30l-3 165-2 166-60-1h-60l-2-165-3-165h-120l-3 38c-3 35-2 37 28 37s31 2 28 38c-3 32-7 37-30 40-26 3-28 7-28 48 0 44 0 44 35 44s35 1 35 43v42h-309l-6-35c-10-62-25-70-25-15v50h-120v-202c0-184-6-230-24-190-5 10-7 10-12 0-3-7-10-13-16-13-5 0 0 12 11 26 16 20 21 41 21 85v59h-120v-51c0-31-4-48-10-44s-10 58-10 131c0 76 4 124 10 124s10-25 10-55v-55h120v60c0 52-4 64-29 92-26 29-34 32-92 34-48 1-72-3-96-18-40-24-46-58-41-227 2-103 6-125 21-135 9-7 17-16 17-20 0-11-28-6-34 7-5 10-7 10-12 0-15-34-20 1-19 163v176l-31 28c-29 25-38 28-97 26-71-2-100-18-119-66l-11-25-8 30c-12 44-52 63-126 61-44-1-67-7-82-20-21-19-41-74-41-113 0-21 5-23 58-23h57l-33-17c-58-28-82-67-82-133 0-39 5-62 15-70 17-14 20-30 5-30-5 0-10 8-10 18-1 15-2 15-16-3-12-17-16-18-24-5-5 9-5 17 0 20 6 3 13 27 16 52 5 35 2 53-12 78-18 30-18 32-1 41 14 8 17 24 17 88 0 109-7 115-150 115l-108 1-4-157c-1-86-6-159-9-163-4-3-19-7-35-8-27-2-29 1-32 35-3 33-1 37 24 40 23 3 27 8 29 41 2 35 0 37-27 37s-28 2-28 45c0 45 0 45 35 45s35 1 35 43v42l-97-1-98-2-5-163c-3-114-7-150-12-119-5 34-33 245-37 280-1 3-34 5-73 4l-73-1-11-79c-11-84-16-79-29 31l-6 50h-71c-38 0-71-2-73-5zm1945-200c-4-91-7-158-8-149s-11 38-23 64c-14 32-19 58-15 79 6 29 49 178 51 173 0-1-2-76-5-167zm1531 67c-8-8-11-1-11 24 0 46 14 60 18 19 2-18-1-37-7-43zm-2741 7c0-24-4-44-10-44-5 0-10 23-10 51 0 31 4 48 10 44 6-3 10-26 10-51zm263 15c-8-29-13-23-13 14 0 22 3 28 9 18 5-7 6-22 4-32zm267-85c0-96-3-125-12-122s-14 36-16 104c-3 104 2 144 18 144 6 0 10-50 10-126zm2090 81v-35h115l-39-21c-63-34-75-55-76-131 0-44 4-68 13-72 6-3 0-3-15 0-20 5-30 2-34-11-15-39-24 16-24 158v147h30c28 0 30-3 30-35zm-335-265c-6-22-8-23-16-7-6 10-14 15-18 13-9-6 6 129 19 168 6 16 11 45 12 65s4-20 6-89c1-69 0-136-3-150zm-1880 3c5-15 3-23-4-23-6 0-11 8-11 18-1 15-2 15-15-2-8-11-18-16-22-13-4 4-1 13 5 19 7 7 12 34 12 60v48h-45c-25 0-45 5-45 10 0 6 6 10 14 10 26 0 86 65 88 96 1 16 5-23 8-86 4-63 11-125 15-137zm1765 191c0-27-4-43-10-39-5 3-10 24-10 46 0 21 5 39 10 39 6 0 10-21 10-46zM302 3252c-11-34-22 19-20 103l1 90 11-90c7-49 10-96 8-103zm2538 91c0-12-4-25-10-28-6-4-10 11-10 37 0 31 3 39 10 28 5-8 10-25 10-37zm-1913-10c-3-10-5-2-5 17s2 27 5 18c2-10 2-26 0-35zm-468-51c0-13-3-20-9-17-5 3-9 27-9 53 1 42 2 44 9 17 4-16 8-40 9-53zm738 46c-3-7-5-2-5 12s2 19 5 13c2-7 2-19 0-25zm2493 12c0-11-4-20-10-20-5 0-10 9-10 20s5 20 10 20c6 0 10-9 10-20zm-1660-53c0-12-5-29-10-37-7-11-10-3-10 28 0 26 4 41 10 37 6-3 10-16 10-28zm987-44c-4-3-7 0-7 7s3 10 7 7c3-4 3-10 0-14zm950 0c-4-3-7 0-7 7s3 10 7 7c3-4 3-10 0-14zm20 0c-4-3-7 0-7 7s3 10 7 7c3-4 3-10 0-14zm-2600 0c-4-3-10-3-14 0-3 4 0 7 7 7s10-3 7-7zm170 0c-4-3-10-3-14 0-3 4 0 7 7 7s10-3 7-7z" fill="#94221c"/>
  <g fill="#ad2320">
    <path d="M205 3640c-2-3-6-43-9-89s-10-98-16-115c-12-35-29-194-21-201 2-3 28-5 57-5 62 0 63 3 65 130l2 85 13-95c8-52 16-101 19-107 3-8 24-13 55-13 45 0 52 3 60 26 6 14 10 46 11 72l1 47 14-50c7-27 14-60 14-72 0-22 2-22 160-22l160-1v45c0 45 0 45-32 43-31-3-33-1-36 34-3 33-1 37 24 40 23 3 27 8 29 41 2 35 0 37-27 37s-28 2-28 45c0 45 0 45 35 45s35 1 35 43v42l-97-1-98-2-5-168c-3-113-7-154-12-124-5 38-36 274-38 290 0 3-33 5-72 4l-73-1-11-79c-11-84-16-79-29 31l-6 50h-71c-38 0-71-2-73-5zM800 3438v-208h94c90 0 95 1 125 29 27 25 31 36 31 80 0 28-5 60-12 70-9 15-8 22 5 36 13 12 17 34 17 89 0 103-8 110-150 110l-110 1v-207zm140 77c0-24-4-47-10-50-6-4-10 15-10 50s4 54 10 50c6-3 10-26 10-50zm0-165c0-16-4-32-10-35-6-4-10 10-10 35s4 39 10 35c6-3 10-19 10-35zM1108 3620c-23-24-28-37-28-79v-51h105l-35-19c-48-25-80-75-80-123 0-46 24-98 45-98 8 0 15-4 15-10 0-17 112-10 145 9 26 15 30 24 33 69l3 51-53 3c-49 3-51 4-28 15 14 6 38 22 54 35 24 21 29 33 33 87 3 35 2 73-1 84-8 34-45 51-115 53-59 2-67-1-93-26zm93-97c-9-15-10-12-10 17s1 32 10 18c7-12 7-24 0-35zm-4-200c-3-10-5-4-5 12 0 17 2 24 5 18 2-7 2-21 0-30zM1366 3620l-31-28-3-134c-2-77 1-145 7-160 22-59 125-87 191-53 53 27 62 61 58 211-3 130-4 134-30 161-24 23-36 27-94 29-60 2-69-1-98-26zm104-176c0-96-3-125-12-122s-14 36-16 104c-3 104 2 144 18 144 6 0 10-50 10-126zM1657 3632c-39-24-47-60-47-201 0-99 3-131 16-149 47-68 177-70 232-3 6 8 12 41 12 73v58h-120v-51c0-31-4-48-10-44s-10 58-10 131c0 76 4 124 10 124s10-25 10-55v-55h120v60c0 52-4 64-29 92-26 29-34 32-93 34-44 1-73-3-91-14zM1890 3438v-208h119l3 53 3 52 18-52 18-52 267 2 267 2 3 43c3 42 2 43-25 40l-28-3-3 165-2 166-60-1h-60l-2-165-3-165h-120l-3 38c-3 35-2 37 28 37s31 2 28 38c-3 32-7 37-30 40-26 3-28 7-28 48 0 44 0 44 35 44s35 1 35 43v42h-308l-13-55-14-55-3 55-3 55h-119v-207zm269-5l-2-177-24 54c-38 85-39 108-7 209 15 50 30 91 32 91 1 0 2-80 1-177z"/>
    <path d="M2700 3583v-63h-150v-70h149l3-107 3-108 95-3c90-2 96-1 123 23 24 23 27 33 27 90 0 50-4 66-17 75-17 10-17 10 0 20 14 9 17 26 17 108v97l-55 1h-55v-87c0-48-4-91-10-94-6-4-10 27-10 87v93h-60l-60 1v-63zm140-233c0-16-4-32-10-35-6-4-10 10-10 35s4 39 10 35c6-3 10-19 10-35zM2966 3643c-4-4 23-236 33-288 6-27 13-67 16-87l6-38h79c57 0 80 4 80 13 1 13 27 188 38 252 5 27 9-8 12-110l5-150h120l3 205 2 205h-240v-37c0-31-4-38-20-38s-20 7-20 38v37h-56c-31 0-57-1-58-2zm144-195c0-38-3-49-10-38-13 20-13 90 0 90 6 0 10-24 10-52zM3374 3635c-3-6-3-98-2-205l3-195h120l3 163 2 162h30c28 0 30-3 30-35v-35h115l-33-17c-52-25-82-72-82-127 0-49 22-96 46-96 8 0 14-4 14-10 0-19 107-11 144 11 33 19 36 25 36 69v49l-52 3-52 3 48 30c56 35 66 55 66 135 0 86-27 108-129 106-60-2-66-4-92-36l-29-34v69h-91c-54 0-93-4-95-10zm307-128c-8-8-11-1-11 24 0 46 14 60 18 19 2-18-1-37-7-43zm9-173c0-14-4-23-10-19-5 3-10 15-10 26 0 10 5 19 10 19 6 0 10-12 10-26zM330 2954c0-46 28-222 40-249 5-11 14-51 20-90 16-97 16-94 6-93-5 0-13-6-17-14-5-7-9-8-9-2 0 14-63 14-72 0-5-7-8-7-8-1 0 7-25 11-62 10-35 0-66 3-69 8s-13 1-23-8c-9-9-16-12-16-7s-7 9-15 9-15-4-15-9-6-6-13-1c-6 4-19 8-27 8s-20 4-26 8c-7 4-14-2-18-16-3-12-6-503-6-1092C0 288 1 269 44 221c9-10 16-23 16-29 0-15 116-132 131-132 6 0 21-8 34-19C279-1 287-1 2040 2c1774 3 1702 1 1748 45 7 7 20 13 27 13 8 0 20 8 27 18s21 21 31 25c9 4 20 15 24 24 4 10 15 24 25 31s18 19 18 27 6 18 14 22c7 4 21 30 30 56 14 43 16 162 16 1145 0 769-4 1101-11 1112-9 12-10 12-5-4 5-14 3-16-6-9-16 11-48 11-67-1-10-6-12-5-7 2 4 7 2 12-3 12-6 0-11-5-11-11 0-8-4-8-13 0-10 7-17 7-24 0-8-8-17-7-33 1-12 6-29 8-38 4-16-7-46-9-57-4-15 7-52 5-64-4-11-8-13-8-7 2 4 6 2 12-3 12-6 0-11-5-11-11 0-8-4-8-13 0-10 7-17 7-24 0-8-8-17-7-33 1-12 6-29 8-38 4-16-7-46-9-57-4-15 7-52 5-64-4-11-8-13-8-7 2 4 6 2 12-3 12-6 0-11-5-11-11 0-8-4-8-13 0-10 7-17 7-24 0-8-8-17-7-33 1-12 6-29 8-38 4-16-7-46-9-57-4-15 7-52 5-64-4-11-8-13-8-7 2 4 6 2 12-3 12-6 0-11-5-11-11 0-8-4-8-13 0-10 7-17 7-24 0-8-8-17-7-33 1-12 6-29 8-38 4-16-7-46-9-57-4-15 7-52 5-64-4-11-8-13-8-7 2 4 6 2 12-3 12-6 0-11-5-11-11 0-8-4-8-13 0-10 7-17 7-24 0-8-8-17-7-33 1-12 6-29 8-38 4-16-7-46-9-57-4-15 7-52 5-64-4-11-8-13-8-7 2 4 6 2 12-3 12-6 0-11-5-11-11 0-8-4-8-13 0-10 7-17 7-24 0-8-8-17-7-33 1-12 6-29 8-38 4-16-7-46-9-57-4-15 7-52 5-64-4-11-8-13-8-7 2 4 6 2 12-3 12-6 0-11-5-11-11 0-8-4-8-13 0-10 7-17 7-24 0-8-8-17-7-33 1-12 6-29 8-38 4-16-7-46-9-57-4-15 7-52 5-64-4-11-8-13-8-7 2 4 6 2 12-3 12-6 0-11-5-11-11 0-8-4-8-13 0-9 7-17 7-24 0s-18-6-36 2c-21 9-30 9-41 0-8-7-17-8-20-3s-24 10-46 10c-22 1-38-3-35-8 3-4-12-4-32 1-24 5-40 4-44-3s-9-6-14 1c-5 9-10 9-20 1-8-7-20-8-27-4-18 11-120 16-114 5 4-5-10-5-31 0-24 5-40 4-44-3s-9-6-14 1c-5 9-10 9-20 1-8-7-20-8-27-4-18 11-120 16-114 5 3-5-9-5-27-2-29 6-33 11-44 66-7 33-20 85-28 115s-19 91-25 135-16 99-23 123l-11 42H330v-36z"/>
    <path d="M174 2885c-4-8-3-23 2-32 4-10 13-47 18-83l11-65h140l3 33c2 18-1 32-7 32s-11 12-11 28c0 15-3 44-6 65l-7 37h-69c-52 0-70-4-74-15zM1304 2885c-3-8-2-20 2-27s13-44 18-83l11-70 68-3c84-4 86 0 61 114l-19 84h-68c-50 0-69-4-73-15zM2230 2520c0-7 3-10 7-7 3 4 3 10 0 14-4 3-7 0-7-7zM2480 2520c0-7 3-10 7-7 3 4 3 10 0 14-4 3-7 0-7-7zM2730 2520c0-7 3-10 7-7 3 4 3 10 0 14-4 3-7 0-7-7zM2980 2520c0-7 3-10 7-7 3 4 3 10 0 14-4 3-7 0-7-7zM3230 2520c0-7 3-10 7-7 3 4 3 10 0 14-4 3-7 0-7-7zM3480 2520c0-7 3-10 7-7 3 4 3 10 0 14-4 3-7 0-7-7zM3730 2520c0-7 3-10 7-7 3 4 3 10 0 14-4 3-7 0-7-7zM1543 2513c4-3 10-3 14 0 3 4 0 7-7 7s-10-3-7-7zM1793 2513c4-3 10-3 14 0 3 4 0 7-7 7s-10-3-7-7z"/>
  </g>
  <g fill="#953328">
    <path d="M205 3640c-2-3-6-43-9-89s-10-98-16-115c-12-35-29-194-21-201 2-3 28-5 57-5 62 0 63 3 65 130l2 85 13-95c8-52 16-101 19-107 3-8 24-13 55-13 45 0 52 3 60 26 6 14 10 46 11 72l1 47 14-50c7-27 14-60 14-72 0-22 2-22 160-22l160-1v45c0 45 0 45-32 43-31-3-33-1-36 34-3 33-1 37 24 40 23 3 27 8 29 41 2 35 0 37-27 37s-28 2-28 45c0 45 0 45 35 45s35 1 35 43v42l-97-1-98-2-5-168c-3-113-7-154-12-124-5 38-36 274-38 290 0 3-33 5-72 4l-73-1-11-79c-11-84-16-79-29 31l-6 50h-71c-38 0-71-2-73-5zM800 3438v-208h94c90 0 95 1 125 29 27 25 31 36 31 80 0 28-5 60-12 70-9 15-8 22 5 36 13 12 17 34 17 89 0 103-8 110-150 110l-110 1v-207zm140 77c0-24-4-47-10-50-6-4-10 15-10 50s4 54 10 50c6-3 10-26 10-50zm0-165c0-16-4-32-10-35-6-4-10 10-10 35s4 39 10 35c6-3 10-19 10-35zM1108 3620c-23-24-28-37-28-79v-51h105l-35-19c-48-25-80-75-80-123 0-46 24-98 45-98 8 0 15-4 15-10 0-17 112-10 145 9 26 15 30 24 33 69l3 51-53 3c-49 3-51 4-28 15 14 6 38 22 54 35 24 21 29 33 33 87 3 35 2 73-1 84-8 34-45 51-115 53-59 2-67-1-93-26zm93-97c-9-15-10-12-10 17s1 32 10 18c7-12 7-24 0-35zm-4-200c-3-10-5-4-5 12 0 17 2 24 5 18 2-7 2-21 0-30zM1366 3620l-31-28-3-134c-2-77 1-145 7-160 22-59 125-87 191-53 53 27 62 61 58 211-3 130-4 134-30 161-24 23-36 27-94 29-60 2-69-1-98-26zm104-176c0-96-3-125-12-122s-14 36-16 104c-3 104 2 144 18 144 6 0 10-50 10-126zM1657 3632c-39-24-47-60-47-201 0-99 3-131 16-149 47-68 177-70 232-3 6 8 12 41 12 73v58h-120v-51c0-31-4-48-10-44s-10 58-10 131c0 76 4 124 10 124s10-25 10-55v-55h120v60c0 52-4 64-29 92-26 29-34 32-93 34-44 1-73-3-91-14zM1890 3438v-208h119l3 53 3 52 18-52 18-52 267 2 267 2 3 43c3 42 2 43-25 40l-28-3-3 165-2 166-60-1h-60l-2-165-3-165h-120l-3 38c-3 35-2 37 28 37s31 2 28 38c-3 32-7 37-30 40-26 3-28 7-28 48 0 44 0 44 35 44s35 1 35 43v42h-308l-13-55-14-55-3 55-3 55h-119v-207zm269-5l-2-177-24 54c-38 85-39 108-7 209 15 50 30 91 32 91 1 0 2-80 1-177z"/>
    <path d="M2700 3583v-63h-150v-70h149l3-107 3-108 95-3c90-2 96-1 123 23 24 23 27 33 27 90 0 50-4 66-17 75-17 10-17 10 0 20 14 9 17 26 17 108v97l-55 1h-55v-87c0-48-4-91-10-94-6-4-10 27-10 87v93h-60l-60 1v-63zm140-233c0-16-4-32-10-35-6-4-10 10-10 35s4 39 10 35c6-3 10-19 10-35zM2966 3643c-4-4 23-236 33-288 6-27 13-67 16-87l6-38h79c57 0 80 4 80 13 1 13 27 188 38 252 5 27 9-8 12-110l5-150h120l3 205 2 205h-240v-37c0-31-4-38-20-38s-20 7-20 38v37h-56c-31 0-57-1-58-2zm144-195c0-38-3-49-10-38-13 20-13 90 0 90 6 0 10-24 10-52zM3374 3635c-3-6-3-98-2-205l3-195h120l3 163 2 162h30c28 0 30-3 30-35v-35h115l-33-17c-52-25-82-72-82-127 0-49 22-96 46-96 8 0 14-4 14-10 0-19 107-11 144 11 33 19 36 25 36 69v49l-52 3-52 3 48 30c56 35 66 55 66 135 0 86-27 108-129 106-60-2-66-4-92-36l-29-34v69h-91c-54 0-93-4-95-10zm307-128c-8-8-11-1-11 24 0 46 14 60 18 19 2-18-1-37-7-43zm9-173c0-14-4-23-10-19-5 3-10 15-10 26 0 10 5 19 10 19 6 0 10-12 10-26zM330 2954c0-46 28-222 40-249 5-11 14-51 21-90 6-38 16-78 20-87 5-10 16-52 25-95s20-82 24-88c4-5 13-34 20-64s30-104 52-165c21-61 43-129 49-151 6-21 14-44 18-50 5-5 14-28 21-50 16-52 52-135 124-289 15-32 25-60 22-63-2-2-7 5-11 16-12 39-34 51-95 51s-83-17-54-40c8-7 14-20 14-29s9-31 20-49c20-32 22-33 83-30 58 3 62 5 61 26-1 23 0 23 22-5 13-15 23-35 24-44 0-9 7-22 15-29s15-19 15-28c0-8 11-30 25-48s25-39 25-47 6-20 13-26c8-6 22-29 32-51s22-40 27-40c4 0 8-4 8-10 0-5-26-10-57-10-32 0-53-4-48-8 6-4 11-12 12-19 2-8-31-11-117-10-74 1-119 6-118 12 2 6 44 10 100 10 53 0 99 3 103 7s-48 7-116 7-119-3-114-7c6-4 11-12 12-18 2-9-32-11-117-10-73 0-120 5-119 11 0 6 9 9 20 8 10-2 19 2 19 7 0 6-17 10-37 10-21 0-33-4-28-8 34-25 7-29-178-30-106 0-195-1-199-1-5-1-8-166-8-368 0-382 6-450 44-492 9-10 16-23 16-29 0-15 116-132 131-132 6 0 21-8 34-19C279-1 287-1 2040 2c1774 3 1702 1 1748 45 7 7 20 13 27 13 8 0 20 8 27 18s21 21 31 25c9 4 20 15 24 24 4 10 15 24 25 31s18 19 18 27 6 18 14 22c7 4 21 30 30 56 14 41 16 105 16 432v384l-22 3c-12 2-23 9-26 16-2 7 2 13 9 11 8-1 21 0 29 2s-34 5-95 8l-110 6-7 50c-3 28-12 86-18 130s-11 97-11 117c1 20-4 40-10 43-6 4-7 19-4 36 4 16 2 44-4 61-6 18-13 65-16 103-4 39-9 88-11 110-3 22-5 52-5 67 0 33-16 36-52 8-14-11-30-20-35-20-6 0-23-10-39-23-15-13-43-29-60-36-18-8-33-17-33-22s-4-9-9-9-48-24-96-53c-48-28-111-65-140-82-29-16-61-37-72-46-10-9-46-30-80-47-34-18-74-43-88-56-27-25-26-46 1-46 8 0 14-4 14-9s10-13 22-17c19-6 41-18 107-60 4-3-52-64-133-145l-58-59h-504c-277 0-504-3-504-7 0-5 56-7 125-6 101 2 125-1 125-12s-23-14-120-13c-114 2-122 3-145 26-14 14-25 30-25 38 0 7-4 14-8 16-7 2-38 54-101 168-10 17-47 99-86 185-14 33-35 78-46 101-10 23-19 45-19 49 0 5-9 27-19 49-37 80-155 417-182 521-5 22-13 47-16 55-9 22-51 191-72 291-10 48-21 91-25 97-3 5-13 59-21 118-9 60-21 128-28 152l-11 42H330v-36zm681-1860c7-9-3-12-43-12-57 1-71 5-63 18s94 8 106-6zm1429 1c0-11-24-14-117-12-76 1-118 6-120 13-3 8 31 12 117 12 95 0 120-2 120-13zm250 0c0-11-24-14-117-12-76 1-118 6-120 13-3 8 31 12 117 12 95 0 120-2 120-13zm223 0c-23-16-205-15-210 1-3 9 30 12 112 12 98 0 114-2 98-13zm1027 0c0-11-16-14-72-12-100 3-103 24-3 25 58 0 75-3 75-13z"/>
    <path d="M174 2885c-4-8-3-23 2-32 4-10 13-47 18-83l11-65h140l3 33c2 18-1 32-7 32s-11 12-11 28c0 15-3 44-6 65l-7 37h-69c-52 0-70-4-74-15zM1304 2885c-3-8-2-20 2-27s13-44 18-83l11-70 68-3c84-4 86 0 61 114l-19 84h-68c-50 0-69-4-73-15zM330 2243c0-12 29-106 42-133 10-23 16-25 80-25h68l-6 30c-4 17-15 54-26 83l-19 52h-70c-38 0-69-3-69-7zM1460 2233c0-21 17-86 31-123 9-23 14-25 79-25 44 0 70 4 70 11 0 12-17 67-30 99-4 11-11 28-14 38-4 14-17 17-71 17-55 0-65-3-65-17zM1716 1571c-8-12 3-61 13-61 3 0 12-15 20-32 19-43 27-48 87-48 72 0 76 10 40 83l-31 62-62 3c-34 2-64-2-67-7zM4 1113c4-5 32-8 62-8s54 3 54 8c0 4-28 7-62 7s-58-3-54-7zM130 1116c0-2 7-6 15-10 8-3 15-1 15 4 0 6-7 10-15 10s-15-2-15-4zM175 1110c4-6 13-9 20-6 8 3 16 0 19-7 3-9 5-9 5 0 1 7 14 10 36 7 19-2 35 0 35 4 0 5-27 10-61 11-43 1-59-1-54-9zM306 1111c-6-10 51-8 61 3 3 3-8 6-25 6s-33-4-36-9zM464 1113c9-9 146-11 152-2 3 5-32 8-76 8-45 0-79-3-76-6z"/>
  </g>
  <g fill="#cd2025">
    <path d="M205 3630c-2-8-6-48-9-88s-13-111-21-157c-9-47-14-99-12-117 3-32 5-33 54-36l50-3 7 38c3 21 6 72 7 113l2 75 14-105c9-58 20-108 27-112 6-4 30-8 53-8 44 0 53 11 53 65 0 11 3 40 8 65l8 45 12-55c6-30 13-68 14-85 3-29 4-30 58-30 55 0 55 0 54 30-3 50-45 369-49 374-11 10-135 5-139-5-3-7-8-44-12-83-3-40-9-69-12-66s-10 39-16 82l-11 76-68 1c-52 1-68-2-72-14zM602 3440l3-205h180v40c0 39-1 40-35 40-33 0-35 2-38 37s-1 37 29 40c29 3 32 6 34 41 2 36 1 37-32 37-32 0-33 1-33 44 0 44 0 45 38 48 35 3 37 5 40 43l3 40H600l2-205zM802 3440l3-205 79-3c46-2 84 2 90 8 5 5 18 10 29 10 20 0 47 53 47 93 0 26-21 77-32 77-4 0 4 11 17 25 21 21 25 33 25 88 0 102-10 109-148 111l-112 1 2-205zm138 80c0-27-4-52-10-55-6-4-10 17-10 55s4 59 10 55c6-3 10-28 10-55zm0-170c0-22-4-40-10-40-5 0-10 18-10 40s5 40 10 40c6 0 10-18 10-40zM1123 3629c-33-22-41-41-42-96l-1-43h103l-39-26c-21-14-45-33-51-42-14-17-17-129-5-149 11-17 76-43 107-43s96 26 107 43c4 7 8 31 8 55v43l-52-3c-50-3-53-5-56-31-3-23-6-26-17-17-20 17-8 37 39 65 70 41 88 66 93 133 5 63-10 103-45 117-37 16-120 13-149-6zm85-95c-5-42-28-43-28-1 0 18 3 37 7 41 12 12 25-11 21-40zM1387 3633c-46-24-57-60-57-188 0-138 13-178 68-200 19-8 49-15 66-15 39 0 104 43 117 76 12 34 12 234-2 272-6 17-23 39-37 48-33 22-120 26-155 7zm83-194c0-118-8-155-24-113-8 20-8 202 0 231 14 52 24 3 24-118zM1660 3629c-43-27-50-54-50-190 0-139 11-171 66-194 42-17 100-20 109-5 3 6 15 10 25 10 34 0 60 47 60 107v54l-57-3-58-3-3-47c-2-27-7-48-13-48-5 0-9 57-9 135 0 79 4 135 10 135 5 0 10-26 12-57l3-58 58-3 57-3v50c0 64-12 93-47 116-39 26-123 28-163 4zM1894 3635c-3-6-3-98-2-205l3-195h110l5 60 5 60 14-50c19-67 27-75 73-75 49 0 55 15 29 75-11 25-23 61-27 79-6 34 11 142 26 161 4 6 12 26 16 45 7 25 10-21 14-160l5-195h420v40c0 36-2 40-25 40h-25l-5 164-5 164-57 1-58 1-2-165-3-165h-120l-3 38c-3 35-2 37 28 37s31 2 28 38c-3 32-7 37-30 40-26 3-28 7-28 48 0 44 0 44 35 44s35 1 35 43v42h-153l-152-1-15-59-15-60-3 61-3 60h-56c-30-1-57-6-59-11z"/>
    <path d="M2704 3641c-2-2-4-30-4-62v-58l-72-3-73-3v-60l73-3 72-3v-104c0-104 0-105 26-111 14-4 60-4 102-2 67 5 78 8 99 32 29 34 33 125 6 151-16 16-16 18 0 27 14 7 17 26 17 106v97l-52-1h-53l-3-90c-4-126-22-133-22-9v100h-56c-31 0-58-2-60-4zm136-297c0-19-4-34-10-34-5 0-10 18-10 41 0 24 4 38 10 34 6-3 10-22 10-41zM2972 3632c-5-15 13-185 29-262 5-25 11-66 14-92l6-48h67c75 0 98 10 88 35-3 10-2 23 2 29 5 6 15 49 21 96 7 47 18 119 25 160l14 75 3-195 4-195h110v408l-117 2-118 1v-38c0-31-4-38-20-38s-20 7-20 38v37h-51c-34 0-53-5-57-13zm138-189c0-41-3-54-10-43-13 20-13 100 0 100 6 0 10-26 10-57zM3382 3440l3-205h110l3 162 2 162 27 3c24 3 28 8 31 43l3 40h-181l2-205zM3605 3626c-23-19-29-32-33-79l-4-57h102v39c0 42 16 64 26 37 13-33-7-66-57-97-73-45-95-101-69-175 22-62 137-83 199-36 20 15 27 29 29 66l3 47-53-3c-50-3-53-5-56-30-4-35-22-37-22-3 0 19 9 31 32 43 17 9 47 31 66 48 29 25 35 39 40 82 2 28 2 62-2 75-9 37-53 60-117 63-45 2-61-2-84-20zM334 2916c4-34 14-92 21-127 8-35 22-100 30-144 9-44 19-87 22-95 4-8 16-55 29-105 36-147 62-234 99-340 20-55 40-118 46-140 5-21 14-44 18-50 5-5 14-28 21-50 16-52 52-135 124-289 15-32 25-60 22-63-2-2-7 5-11 16-12 39-34 51-95 51s-83-17-54-40c8-7 14-20 14-29s9-31 20-49c20-32 22-33 83-30 58 3 62 5 61 26-1 23 0 23 22-5 13-15 23-35 24-44 0-9 7-22 15-29s15-19 15-28c0-8 11-30 25-48s25-39 25-47 6-20 13-26c8-6 22-29 32-51s22-40 27-40c4 0 8-4 8-10 0-5-26-10-57-10-32 0-53-4-48-8 6-4 11-12 12-19 2-8-31-11-117-10-74 1-119 6-118 12 2 6 44 10 100 10 53 0 99 3 103 7s-48 7-116 7-119-3-114-7c6-4 11-12 12-18 2-9-32-11-117-10-73 0-120 5-119 11 0 6 9 9 20 8 10-2 19 2 19 7 0 6-17 10-37 10-21 0-33-4-28-8 34-25 7-29-178-30-106 0-195-1-199-1-5-1-8-166-8-368 0-382 6-450 44-492 9-10 16-23 16-29 0-15 116-132 131-132 6 0 21-8 34-19C279-1 287-1 2040 2c1774 3 1702 1 1748 45 7 7 20 13 27 13 8 0 20 8 27 18s21 21 31 25c9 4 20 15 24 24 4 10 15 24 25 31s18 19 18 27 6 18 14 22c7 4 21 30 30 56 14 41 16 105 16 432v384l-22 3c-12 2-23 9-26 16-2 7 2 13 9 11 8-1 21 0 29 2s-34 5-95 8l-110 6-7 50c-3 28-12 86-18 130s-11 97-11 117c1 20-4 40-10 43-6 4-7 19-4 36 4 16 2 44-4 61-6 18-13 65-16 103-4 39-9 88-11 110-3 22-5 52-5 68 0 32-16 35-52 7-14-11-30-20-35-20-6 0-23-10-39-23-15-13-43-29-60-36-18-8-33-17-33-22s-4-9-9-9-48-24-96-53c-48-28-111-65-140-82-29-16-61-37-72-46-10-9-46-30-80-47-34-18-74-43-88-56-27-25-26-46 1-46 8 0 14-4 14-9s10-13 22-17c19-6 41-18 107-60 4-3-52-64-133-145l-58-59h-504c-277 0-504-3-504-7 0-5 56-7 125-6 101 2 125-1 125-12s-23-14-120-13c-114 2-122 3-145 26-14 14-25 30-25 38 0 7-4 14-8 16-7 2-38 54-101 168-10 17-47 99-86 185-14 33-35 78-46 101-10 23-19 45-19 49 0 5-9 27-19 49-39 84-170 461-186 536-4 19-11 40-15 45-4 6-13 39-20 75s-17 73-22 82c-11 22-42 163-74 338-14 74-28 147-31 163l-5 27H328l6-64zm677-1822c7-9-3-12-43-12-57 1-71 5-63 18s94 8 106-6zm1429 1c0-11-24-14-117-12-76 1-118 6-120 13-3 8 31 12 117 12 95 0 120-2 120-13zm250 0c0-11-24-14-117-12-76 1-118 6-120 13-3 8 31 12 117 12 95 0 120-2 120-13zm223 0c-23-16-205-15-210 1-3 9 30 12 112 12 98 0 114-2 98-13zm1027 0c0-11-16-14-72-12-100 3-103 24-3 25 58 0 75-3 75-13z"/>
    <path d="M180 2877c0-30 25-154 33-164 13-18 111-17 126 1 7 9 8 22 3 37-5 13-12 49-16 79l-7 55h-69c-39 0-70-4-70-8zM1314 2855c3-16 8-52 12-80 3-27 11-56 16-62 14-18 112-17 127 1 7 9 8 22 3 37-5 13-12 49-16 79l-7 55h-140l5-30zM336 2242c-5-9 16-88 36-132 10-23 16-25 80-25h68l-6 30c-4 17-15 54-26 83l-19 52h-64c-35 0-66-4-69-8zM1460 2233c0-21 17-86 31-123 9-23 14-25 79-25 44 0 70 4 70 11 0 12-17 67-30 99-4 11-11 28-14 38-4 14-17 17-71 17-55 0-65-3-65-17zM1716 1571c-8-12 3-61 13-61 3 0 12-15 20-32 19-43 27-48 87-48 72 0 76 10 40 83l-31 62-62 3c-34 2-64-2-67-7zM4 1113c4-5 32-8 62-8s54 3 54 8c0 4-28 7-62 7s-58-3-54-7zM130 1116c0-2 7-6 15-10 8-3 15-1 15 4 0 6-7 10-15 10s-15-2-15-4zM175 1110c4-6 13-9 20-6 8 3 16 0 19-7 3-9 5-9 5 0 1 7 14 10 36 7 19-2 35 0 35 4 0 5-27 10-61 11-43 1-59-1-54-9zM306 1111c-6-10 51-8 61 3 3 3-8 6-25 6s-33-4-36-9zM464 1113c9-9 146-11 152-2 3 5-32 8-76 8-45 0-79-3-76-6z"/>
  </g>
  <g fill="#9b473a">
    <path d="M205 3630c-2-8-6-48-9-88s-13-111-21-157c-9-47-14-99-12-117 3-32 5-33 54-36l50-3 7 38c3 21 6 72 7 113l2 75 14-105c9-58 20-108 27-112 6-4 30-8 53-8 44 0 53 11 53 65 0 11 3 40 8 65l8 45 12-55c6-30 13-68 14-85 3-29 4-30 58-30 55 0 55 0 54 30-3 50-45 369-49 374-11 10-135 5-139-5-3-7-8-44-12-83-3-40-9-69-12-66s-10 39-16 82l-11 76-68 1c-52 1-68-2-72-14zM602 3440l3-205h180v40c0 39-1 40-35 40-33 0-35 2-38 37s-1 37 29 40c29 3 32 6 34 41 2 36 1 37-32 37-32 0-33 1-33 44 0 44 0 45 38 48 35 3 37 5 40 43l3 40H600l2-205zM802 3440l3-205 79-3c46-2 84 2 90 8 5 5 18 10 29 10 20 0 47 53 47 93 0 26-21 77-32 77-4 0 4 11 17 25 21 21 25 33 25 88 0 102-10 109-148 111l-112 1 2-205zm138 80c0-27-4-52-10-55-6-4-10 17-10 55s4 59 10 55c6-3 10-28 10-55zm0-170c0-22-4-40-10-40-5 0-10 18-10 40s5 40 10 40c6 0 10-18 10-40zM1123 3629c-33-22-41-41-42-96l-1-43h103l-39-26c-21-14-45-33-51-42-14-17-17-129-5-149 11-17 76-43 107-43s96 26 107 43c4 7 8 31 8 55v43l-52-3c-50-3-53-5-56-31-3-23-6-26-17-17-20 17-8 37 39 65 70 41 88 66 93 133 5 63-10 103-45 117-37 16-120 13-149-6zm85-95c-5-42-28-43-28-1 0 18 3 37 7 41 12 12 25-11 21-40zM1387 3633c-46-24-57-60-57-188 0-138 13-178 68-200 19-8 49-15 66-15 39 0 104 43 117 76 12 34 12 234-2 272-6 17-23 39-37 48-33 22-120 26-155 7zm83-194c0-118-8-155-24-113-8 20-8 202 0 231 14 52 24 3 24-118zM1660 3629c-43-27-50-54-50-190 0-139 11-171 66-194 42-17 100-20 109-5 3 6 15 10 25 10 34 0 60 47 60 107v54l-57-3-58-3-3-47c-2-27-7-48-13-48-5 0-9 57-9 135 0 79 4 135 10 135 5 0 10-26 12-57l3-58 58-3 57-3v50c0 64-12 93-47 116-39 26-123 28-163 4zM1894 3635c-3-6-3-98-2-205l3-195h110l5 60 5 60 14-50c19-67 27-75 73-75 49 0 55 15 29 75-11 25-23 61-27 79-6 34 11 142 26 161 4 6 12 26 16 45 7 25 10-21 14-160l5-195h420v40c0 36-2 40-25 40h-25l-5 164-5 164-57 1-58 1-2-165-3-165h-120l-3 38c-3 35-2 37 28 37s31 2 28 38c-3 32-7 37-30 40-26 3-28 7-28 48 0 44 0 44 35 44s35 1 35 43v42h-153l-152-1-15-59-15-60-3 61-3 60h-56c-30-1-57-6-59-11z"/>
    <path d="M2704 3641c-2-2-4-30-4-62v-58l-72-3-73-3v-60l73-3 72-3v-104c0-104 0-105 26-111 14-4 60-4 102-2 67 5 78 8 99 32 29 34 33 125 6 151-16 16-16 18 0 27 14 7 17 26 17 106v97l-52-1h-53l-3-90c-4-126-22-133-22-9v100h-56c-31 0-58-2-60-4zm136-297c0-19-4-34-10-34-5 0-10 18-10 41 0 24 4 38 10 34 6-3 10-22 10-41zM2972 3632c-5-15 13-185 29-262 5-25 11-66 14-92l6-48h67c75 0 98 10 88 35-3 10-2 23 2 29 5 6 15 49 21 96 7 47 18 119 25 160l14 75 3-195 4-195h110v408l-117 2-118 1v-38c0-31-4-38-20-38s-20 7-20 38v37h-51c-34 0-53-5-57-13zm138-189c0-41-3-54-10-43-13 20-13 100 0 100 6 0 10-26 10-57zM3382 3440l3-205h110l3 162 2 162 27 3c24 3 28 8 31 43l3 40h-181l2-205zM3605 3626c-23-19-29-32-33-79l-4-57h102v39c0 42 16 64 26 37 13-33-7-66-57-97-73-45-95-101-69-175 22-62 137-83 199-36 20 15 27 29 29 66l3 47-53-3c-50-3-53-5-56-30-4-35-22-37-22-3 0 19 9 31 32 43 17 9 47 31 66 48 29 25 35 39 40 82 2 28 2 62-2 75-9 37-53 60-117 63-45 2-61-2-84-20zM334 2916c4-34 14-92 21-127 8-35 22-100 30-144 9-44 19-87 22-95 4-8 16-55 29-105 36-147 62-234 99-340 20-55 40-118 46-140 5-21 14-44 18-50 5-5 14-28 21-50 16-52 52-135 124-289 15-32 25-60 22-63-2-2-7 5-11 16-12 39-34 51-95 51s-83-17-54-40c8-7 14-20 14-29s9-31 20-49c20-32 22-33 83-30 58 3 62 5 61 26-1 23 0 23 22-5 13-15 23-35 24-44 0-9 7-22 15-29s15-19 15-28c0-8 11-30 25-48s25-37 25-42c0-34 282-412 308-412 6 0 12-6 12-12 0-16 63-78 79-78 6 0 11-6 11-12 0-7 17-27 38-44 72-60 160-124 170-124 5 0 15-7 23-16 14-17 30-26 160-91 46-24 91-43 99-43s27-6 42-14 53-20 85-26 73-16 91-22c21-6 197-10 475-9l442 1 70 36c39 20 93 55 120 79 63 53 135 123 135 131 0 3 13 17 30 31 17 13 30 31 30 39s7 17 15 20 23 20 34 37c11 18 34 51 50 75 50 69 151 257 151 280 0 11 8 9 36-7 19-12 39-19 44-16s11 1 14-4c5-8 100-61 109-61 7 0 0 167-7 179-4 6-9 35-12 64-2 29-7 77-10 107-4 30-6 67-5 82 1 14-3 29-9 33-7 4-9 19-5 36 4 16 2 44-4 61-6 18-13 65-16 103-4 39-9 88-11 110-3 22-5 52-5 68 0 32-16 35-52 7-14-11-30-20-35-20-6 0-23-10-39-23-15-13-43-29-60-36-18-8-33-17-33-22s-4-9-9-9-48-24-96-53c-48-28-111-65-140-82-29-16-61-37-72-46-10-9-46-30-80-47-34-18-74-43-88-56-27-25-26-46 1-46 8 0 14-4 14-9s10-13 22-17c18-5 56-27 107-61 2-1-15-21-38-45-22-24-41-49-41-55 0-7-4-13-8-13-12 0-222-210-222-222 0-4-6-8-14-8s-30-18-49-40-39-40-45-40c-7 0-17-9-24-20s-17-20-22-20-27-15-50-33-61-45-86-61-56-37-70-46-43-23-65-30-45-17-52-22c-6-5-27-11-46-14-31-3-40 2-86 49-83 86-245 296-264 342-4 11-11 22-16 25-6 4-100 167-150 260-10 18-49 103-86 185-14 33-35 78-46 101-10 23-19 45-19 49 0 5-9 27-19 49-39 84-170 461-186 536-4 19-11 40-15 45-4 6-13 39-20 75s-17 73-22 82c-11 22-42 163-74 338-14 74-28 147-31 163l-5 27H328l6-64zM180 2877c0-30 25-154 33-164 13-18 111-17 126 1 7 9 8 22 3 37-5 13-12 49-16 79l-7 55h-69c-39 0-70-4-70-8z"/>
    <path d="M1314 2855c3-16 8-52 12-80 3-27 11-56 16-62 14-18 112-17 127 1 7 9 8 22 3 37-5 13-12 49-16 79l-7 55h-140l5-30zM336 2242c-5-9 16-88 36-132 10-23 16-25 80-25h68l-6 30c-4 17-15 54-26 83l-19 52h-64c-35 0-66-4-69-8zM1460 2233c0-21 17-86 31-123 9-23 14-25 79-25 44 0 70 4 70 11 0 12-17 67-30 99-4 11-11 28-14 38-4 14-17 17-71 17-55 0-65-3-65-17zM1716 1571c-8-12 3-61 13-61 3 0 12-15 20-32 19-43 27-48 87-48 72 0 76 10 40 83l-31 62-62 3c-34 2-64-2-67-7zM925 1010c-6-10 2-23 52-76 30-33 34-34 103-34h72l-30 38c-64 80-68 82-132 82-32 0-62-4-65-10zM2006 1005c-3-8-2-15 3-15 4 0 14-12 21-27 29-58 39-63 112-63 37 0 68 3 68 7 0 3-16 30-37 60l-36 53h-63c-46 0-63-4-68-15zM1452 521c-16-10-5-19 59-49 47-23 162-31 173-13 4 5-22 23-56 40-62 31-145 42-176 22z"/>
  </g>
  <g fill="#9e4d43">
    <path d="M205 3620c-4-22-15-138-20-210-1-14-5-32-9-41-4-10-6-23-5-30 1-8-1-21-5-30s-5-29-3-45c3-28 6-29 53-29 46 0 49 2 55 30 4 17 8 71 9 120 2 50 5 74 7 55s6-42 9-50 7-38 9-67c5-75 18-93 65-93 43 0 60 19 59 62 0 19 7 119 10 138 1 3 7-6 14-20s14-56 15-95c3-76 9-85 62-85 42 0 65 13 55 30-4 7-9 29-10 49-8 97-27 258-32 271-3 8-6 26-7 40-1 24-3 25-61 22-33-2-65-8-72-13-6-6-14-42-18-81-5-46-10-66-16-57-5 8-9 24-9 36s-5 44-10 70l-11 48h-64c-61 0-65-1-70-25zM604 3635c-3-6-3-98-2-205l3-195 70-3c104-4 117 1 113 46-3 35-5 37-38 37s-35 2-38 37-1 37 29 40c29 3 32 6 34 41 2 36 1 37-32 37h-34l3 48c3 47 3 47 41 50 35 3 37 5 37 40v37h-91c-54 0-93-4-95-10zM804 3641c-2-2-4-93-4-202 0-170 2-198 16-203 25-9 139-7 149 3 6 5 21 11 35 13 37 5 58 74 40 129-7 21-17 39-22 39-4 0 1 9 12 20 25 25 34 60 27 117-8 74-26 85-147 86-56 1-104 0-106-2zm136-132c0-38-4-58-10-54-5 3-10 33-10 66 0 38 4 58 10 54 6-3 10-33 10-66zm0-159c0-22-4-40-10-40-5 0-10 18-10 40s5 40 10 40c6 0 10-18 10-40zM1130 3628c-40-20-48-37-49-95l-1-43h99l3 42c2 23 9 43 16 46 10 3 12-6 10-34-3-33-10-42-58-76-57-39-67-57-69-121-2-81 54-126 139-112 63 11 90 38 90 91v45l-52-3c-49-3-53-5-56-30-4-31-17-37-26-12-4 11 6 28 31 50 20 19 41 34 45 34 5 0 21 11 35 24 21 20 26 35 30 87 4 61 3 65-26 93-25 24-40 30-79 31-26 0-62-7-82-17zM1404 3639c-11-4-30-19-44-34-24-26-25-31-25-167v-140l34-28c48-41 90-46 148-18 36 17 49 29 51 48 2 14 8 29 13 35 13 13 12 202-1 210-6 4-8 15-5 25 9 29-55 72-109 75-24 1-52-2-62-6zm66-200c0-118-8-155-24-113-8 20-8 202 0 231 14 52 24 3 24-118zM1669 3631c-50-24-61-64-57-208 3-119 4-126 28-147 39-33 107-53 131-38 10 7 27 12 38 12 35 0 62 48 59 104l-3 51h-110l-3-53c-2-30-7-50-13-47-12 8-12 275 1 275 5 0 10-26 12-57l3-58h110l3 39c5 58-4 82-43 112-42 32-109 38-156 15zM1894 3641c-2-2-4-93-4-202 0-215-2-209 60-209 53 0 60 8 61 69l1 56 20-58c21-60 38-73 89-65 29 4 29 18-4 112-24 70-24 70-6 135 48 176 48 176 48-40 1-158 4-198 15-202 23-9 390-7 404 2 8 5 12 22 10 42-2 29-7 34-28 34h-25l-5 164-5 164-57 1-58 1-2-165-3-165h-120l-3 38c-3 35-2 37 28 37s31 2 28 38c-3 32-7 37-30 40-26 3-28 6-28 53v49h35c34 0 35 1 35 38v37l-152-1h-152l-17-65-17-64-3 64-4 65h-53c-30 1-55-1-58-3z"/>
    <path d="M2715 3585v-60l-75-5-75-5-3-33-3-33 69 2c38 1 74-1 81-5 8-6 12-39 10-109l-2-102 59-3c128-7 174 22 174 109 0 34-6 59-16 70-15 17-15 19 0 34 12 13 16 37 16 108v92l-52-1h-53l-3-90c-4-126-22-133-22-9v100h-105v-60zm125-234c0-22-4-43-10-46-6-4-10 12-10 39 0 25 5 46 10 46 6 0 10-18 10-39zM2973 3637c-7-12 8-157 17-162 5-3 6-14 3-25s0-26 6-33c6-8 9-16 7-18-10-9 15-153 26-161 17-10 119-10 137 1 8 5 11 16 7 29-4 11-3 23 2 26s13 41 17 83c5 43 9 87 10 98 2 11 6 28 10 37s4 21 1 27c-4 5-2 12 4 16 5 3 11 21 12 38 1 18 5-56 8-163l5-195 34-3c19-2 44-1 58 3l23 5-2 202-3 201-115 1h-115l-3-37c-2-28-8-37-22-37s-20 9-22 36c-3 36-3 37-51 38-27 0-51-3-54-7zm138-139c-1-5-1-34-1-65 0-41-3-54-10-43-5 8-10 32-10 52s-5 40-10 43c-6 4-8 11-4 16 7 11 35 8 35-3zM3384 3635c-3-6-3-98-2-205l3-195h100l5 165 5 165 25 4c29 4 40 17 40 51 0 25-1 25-86 25-50 0-88-4-90-10zM3620 3628c-40-20-48-37-49-95l-1-43h100v46c0 32 4 44 13 42 6-3 12-20 12-38 0-30-7-39-57-73-51-35-58-44-64-82-3-24-3-61 1-82 5-33 12-41 46-56 45-20 70-20 119-3 40 14 60 46 60 94v33l-52-3c-49-3-53-5-56-30-4-35-22-37-22-4 0 17 12 34 33 50 19 15 37 26 41 26s19 11 33 24c27 25 42 99 29 149-14 56-115 80-186 45zM331 2953c0-44 62-368 76-403 4-8 16-55 29-105 36-147 62-234 99-340 20-55 40-118 46-140 5-21 14-44 18-50 5-5 14-28 21-50 16-52 52-135 124-289 15-32 25-60 22-63-2-2-7 5-11 16-12 39-34 51-95 51s-83-17-54-40c8-7 14-20 14-29s9-31 20-49c20-32 22-33 83-30 58 3 62 5 61 26-1 23 0 23 22-5 13-15 23-35 24-44 0-9 7-22 15-29s15-19 15-28c0-8 11-30 25-48s25-37 25-42c0-34 282-412 308-412 6 0 12-6 12-12 0-16 63-78 79-78 6 0 11-6 11-12 0-7 17-27 38-44 72-60 160-124 170-124 5 0 15-7 23-16 14-17 30-26 160-91 46-24 91-43 99-43s27-6 42-14 53-20 85-26 73-16 91-22c21-6 197-10 475-9l442 1 70 36c39 20 93 55 120 79 63 53 135 123 135 131 0 3 13 17 30 31 17 13 30 31 30 39s7 17 15 20 23 20 34 37c11 18 34 51 50 75 50 69 151 257 151 280 0 11 8 9 36-7 19-12 39-19 44-16s11 1 14-4c5-8 100-61 109-61 7 0 0 167-7 179-4 6-9 35-12 64-2 29-7 77-10 107-4 30-6 67-5 82 1 14-3 29-9 33-7 4-9 19-5 36 4 16 2 44-4 61-6 18-13 65-16 103-4 39-9 88-11 110-3 22-5 52-5 68 0 32-16 35-52 7-14-11-30-20-35-20-6 0-23-10-39-23-15-13-43-29-60-36-18-8-33-17-33-22s-4-9-9-9-48-24-96-53c-48-28-111-65-140-82-29-16-61-37-72-46-10-9-46-30-80-47-34-18-74-43-88-56-27-25-26-46 1-46 8 0 14-4 14-9s10-13 22-17c18-5 56-27 107-61 2-1-15-21-38-45-22-24-41-49-41-55 0-7-4-13-8-13-12 0-222-210-222-222 0-4-6-8-14-8s-30-18-49-40-39-40-45-40c-7 0-17-9-24-20s-17-20-22-20-27-15-50-33-61-45-86-61-56-37-70-46-43-23-65-30-45-17-52-22c-6-5-27-11-46-14-31-3-40 2-86 49-83 86-245 296-264 342-4 11-11 22-16 25-6 4-100 167-150 260-10 18-49 103-86 185-14 33-35 78-46 101-10 23-19 45-19 49 0 5-9 27-19 49-39 84-170 461-186 536-4 19-11 40-15 45-4 6-13 39-20 75s-17 73-22 82c-13 26-50 202-105 496l-6 32H330l1-27zM186 2840c4-25 9-63 13-84l6-39h70c54 0 69 4 67 14-2 8-9 45-15 83l-12 69-68 1-67 1 6-45z"/>
    <path d="M1317 2840c3-25 8-63 12-84l6-39 68 1c37 0 68 1 70 1 2 1-4 38-13 83l-16 81-66 1-67 1 6-45zM336 2242c-5-9 16-88 36-132 10-23 16-25 80-25h68l-6 30c-4 17-15 54-26 83l-19 52h-64c-35 0-66-4-69-8zM1460 2233c0-21 17-86 31-123 9-23 14-25 79-25 44 0 70 4 70 11 0 12-17 67-30 99-4 11-11 28-14 38-4 14-17 17-71 17-55 0-65-3-65-17zM1716 1571c-8-12 3-61 13-61 3 0 12-15 20-32 19-43 27-48 87-48 72 0 76 10 40 83l-31 62-62 3c-34 2-64-2-67-7zM925 1010c-6-10 2-23 52-76 30-33 34-34 103-34h72l-30 38c-64 80-68 82-132 82-32 0-62-4-65-10zM2006 1005c-3-8-2-15 3-15 4 0 14-12 21-27 29-58 39-63 112-63 37 0 68 3 68 7 0 3-16 30-37 60l-36 53h-63c-46 0-63-4-68-15zM1452 521c-16-10-5-19 59-49 47-23 162-31 173-13 4 5-22 23-56 40-62 31-145 42-176 22z"/>
  </g>
  <g fill="#b2493a">
    <path d="M466 3642c-62-4-73-18-82-105-7-69-24-76-24-10 0 17-4 34-9 37s-7 15-4 26c9 34-14 50-72 50-30 0-57-5-63-12-5-7-13-53-17-103-5-49-10-106-12-125s-5-46-6-60-6-31-11-38c-4-7-5-24-2-38 6-21 12-24 55-24h48l7 46c3 26 7 81 8 123 1 45 3 60 5 36 3-22 8-45 13-50 5-6 7-21 3-33-3-12 0-28 6-36 6-7 9-20 5-29-3-8-1-25 6-36 8-16 20-21 55-21 54 0 53-3 59 157 1 42 12 50 22 16 8-28 9-38 12-125l2-48h61c46 0 58 3 52 13-4 6-8 26-9 42-3 63-25 261-31 275-4 8-7 28-7 44-1 33-3 34-70 28zM604 3641c-2-2-4-94-4-203v-198h191l-3 38c-3 35-5 37-38 37s-35 2-38 37-1 37 29 40c29 3 32 6 34 41 2 36 1 37-32 37h-34l3 48c3 47 3 47 41 50 35 3 37 5 37 40v37h-91c-50 0-92-2-95-4zM807 3644c-4-4-7-97-7-206v-198h78c83 0 141 12 154 32 14 23 9 108-8 133-11 17-12 25-5 25 28 0 56 130 31 145-6 4-8 11-4 16 3 6-1 18-10 28-14 15-34 19-107 20-49 1-95 4-102 7-7 2-16 1-20-2zm133-135c0-38-4-58-10-54-5 3-10 33-10 66 0 38 4 58 10 54 6-3 10-33 10-66zm0-158c0-22-4-43-10-46-6-4-10 12-10 39 0 25 5 46 10 46 6 0 10-18 10-39zM1205 3644c-106-23-125-40-125-116v-38h99l3 42c3 45 22 62 33 28 9-29-12-58-73-99-51-36-62-57-62-123 0-36 24-83 45-92 21-8 103-8 133 0 27 8 52 52 52 94 0 30-1 30-51 30-43 0-50-3-45-16 3-9 0-25-8-36-14-20-14-20-26 2-10 19-7 25 25 56 20 19 41 34 46 34s21 11 36 24c34 32 45 136 17 167-14 15-74 52-78 48-1-1-10-3-21-5zM1378 3618c-24-18-38-35-34-43 3-8 1-17-4-20-12-7-14-218-3-229 4-4 8-14 8-23 0-26 50-56 102-60 61-5 116 21 121 57 2 14 8 29 13 35 12 12 12 192-1 200-5 3-10 19-10 35 0 39-47 72-107 75-35 1-53-4-85-27zm92-173c0-123-8-161-24-119-8 20-8 202 0 232 15 54 24 12 24-113zM1675 3631c-35-17-56-41-50-58 2-7 0-15-5-18-15-9-12-225 3-255 21-42 73-62 142-56 81 8 107 36 103 110-3 50-4 51-37 54-19 2-44 1-57-2-21-6-24-12-24-57 0-31-4-48-10-44s-10 62-10 141c0 83 4 134 10 134s10-25 10-55c0-49 2-55 24-61 13-3 38-4 57-2 29 3 34 7 37 32 7 56-7 94-44 122-41 31-103 38-149 15zM1894 3641c-2-2-4-94-4-203v-198h120l1 58 1 57 20-57 20-58h49c27 0 49 2 49 5 0 7-50 137-60 156-5 9-5 20 0 25 4 5 17 43 28 84 39 142 41 138 41-72l1-198h420v41c0 34-3 40-16 35-38-15-44 10-44 173v156h-110l-2-165-3-165h-120l-3 38c-3 35-2 37 28 37s31 2 28 38c-3 32-7 37-30 40-26 3-28 6-28 53v49h35c34 0 35 1 35 38v37h-301l-14-49c-8-27-16-57-17-65-1-9-4 13-7 48l-6 65h-53c-30 1-55-1-58-3zM2763 3643l-43-4v-400l92 2c81 1 94 4 115 25 29 29 33 116 6 146-15 17-15 19 0 36 13 14 17 39 17 108v89l-52-1h-53l-3-90c-4-128-22-133-22-6 0 56-3 101-7 100-5-1-27-3-50-5zm77-292c0-22-4-43-10-46-6-4-10 12-10 39 0 25 5 46 10 46 6 0 10-18 10-39zM2973 3637c-8-13 8-147 18-153 6-3 7-14 4-25-4-10-3-24 1-31 5-7 9-33 11-58 1-25 5-64 8-87l6-43h161l-7 29c-3 16-2 32 3 35s13 36 17 73c4 38 9 84 12 103 2 19 6 44 7 55s5 27 9 35c3 8 8 26 10 40s5-64 6-172l1-198h110v405l-112-1h-113l-3-37c-2-28-8-37-22-37s-20 9-22 36c-3 36-3 37-51 38-27 0-51-3-54-7zm141-145c-1-6-2-36-3-64-1-38-4-49-11-38-5 8-10 29-10 46 0 16-5 35-11 41s-8 16-4 23c9 14 40 9 39-8zM3384 3641c-2-2-4-94-4-203v-198h110l2 163 3 162 27 3c20 2 30 10 34 28 4 14 2 30-4 36-9 9-159 18-168 9zM3620 3628c-40-20-48-37-49-95l-1-43h100v45c0 34 4 45 16 45 11 0 14-9 12-37-3-33-10-42-60-76-51-35-58-44-64-83-16-109 18-149 122-142 77 5 94 19 101 83l6 46-54-3c-53-3-54-4-57-36-4-36-22-34-22 3 0 22 53 75 74 75 4 0 19 11 33 24 27 26 42 99 29 150s-121 76-186 44zM2567 3514c-4-4-7-20-7-36v-29l68 3 67 3v30c0 30-1 30-60 33-34 2-64 0-68-4zM331 2953c0-44 62-368 76-403 4-8 16-55 29-105 36-147 62-234 99-340 20-55 40-118 46-140 5-21 14-44 18-50 5-5 14-28 21-50 16-52 52-135 124-289 15-32 25-60 22-63-2-2-7 5-11 16-12 39-34 51-95 51s-83-17-54-40c8-7 14-20 14-29s9-31 20-49c20-32 22-33 83-30 58 3 62 5 61 26-1 23 0 23 22-5 13-15 23-35 24-44 0-9 7-22 15-29s15-19 15-28c0-8 11-30 25-48s25-37 25-42c0-34 282-412 308-412 6 0 12-6 12-12 0-16 63-78 79-78 6 0 11-6 11-12 0-7 17-27 38-44 72-60 160-124 170-124 5 0 15-7 23-16 14-17 30-26 160-91 46-24 91-43 99-43s27-6 42-14 53-20 85-26 73-16 91-22c21-6 197-10 475-9l442 1 70 36c39 20 93 55 120 79 63 53 135 123 135 131 0 3 13 17 30 31 17 13 30 31 30 39s7 17 15 20 23 20 34 37c11 18 34 51 50 75 50 69 151 257 151 280 0 11 8 9 36-7 19-12 39-19 44-16s11 1 14-4c5-8 100-61 109-61 7 0 0 167-7 179-4 6-9 35-12 64-2 29-7 77-10 107-4 30-6 67-5 82 1 14-3 29-9 33-7 4-9 19-5 36 4 16 2 44-4 61-6 18-13 65-16 103-4 39-9 88-11 110-3 22-5 52-5 68 0 32-16 35-52 7-14-11-30-20-35-20-6 0-23-10-39-23-15-13-43-29-60-36-18-8-33-17-33-22s-4-9-9-9-48-24-96-53c-48-28-111-65-140-82-29-16-61-37-72-46-10-9-46-30-80-47-34-18-74-43-88-56-27-25-26-46 1-46 8 0 14-4 14-9s10-13 22-17c18-5 56-27 107-61 2-1-15-21-38-45-22-24-41-49-41-55 0-7-4-13-8-13-12 0-222-210-222-222 0-4-6-8-14-8s-30-18-49-40-39-40-45-40c-7 0-17-9-24-20s-17-20-22-20-27-15-50-33-61-45-86-61-56-37-70-46-43-23-65-30-45-17-52-22c-6-5-27-11-46-14-31-3-40 2-86 49-83 86-245 296-264 342-4 11-11 22-16 25-6 4-100 167-150 260-10 18-49 103-86 185-14 33-35 78-46 101-10 23-19 45-19 49 0 5-9 27-19 49-39 84-170 461-186 536-4 19-11 40-15 45-4 6-13 39-20 75s-17 73-22 82c-13 26-50 202-105 496l-6 32H330l1-27zM186 2840c4-25 9-63 13-84l6-39h70c54 0 69 4 67 14-2 8-9 45-15 83l-12 69-68 1-67 1 6-45z"/>
    <path d="M1317 2840c3-25 8-63 12-84l6-39 68 1c37 0 68 1 70 1 2 1-4 38-13 83l-16 81-66 1-67 1 6-45zM336 2242c-5-9 16-88 36-132 10-23 16-25 80-25h68l-6 30c-4 17-15 54-26 83l-19 52h-64c-35 0-66-4-69-8zM1460 2233c0-21 17-86 31-123 9-23 14-25 79-25 44 0 70 4 70 11 0 12-17 67-30 99-4 11-11 28-14 38-4 14-17 17-71 17-55 0-65-3-65-17zM1716 1571c-8-12 3-61 13-61 3 0 12-15 20-32 19-43 27-48 87-48 72 0 76 10 40 83l-31 62-62 3c-34 2-64-2-67-7zM925 1010c-6-10 2-23 52-76 30-33 34-34 103-34h72l-30 38c-64 80-68 82-132 82-32 0-62-4-65-10zM2006 1005c-3-8-2-15 3-15 4 0 14-12 21-27 29-58 39-63 112-63 37 0 68 3 68 7 0 3-16 30-37 60l-36 53h-63c-46 0-63-4-68-15zM1452 521c-16-10-5-19 59-49 47-23 162-31 173-13 4 5-22 23-56 40-62 31-145 42-176 22z"/>
  </g>
  <g fill="#a95549">
    <path d="M466 3642c-62-4-73-18-82-105-7-69-24-76-24-10 0 17-4 34-9 37s-7 15-4 26c9 34-14 50-72 50-30 0-57-5-63-12-5-7-13-53-17-103-5-49-10-106-12-125s-5-46-6-60-6-31-11-38c-4-7-5-24-2-38 6-21 12-24 55-24h48l7 46c3 26 7 81 8 123 1 45 3 60 5 36 3-22 8-45 13-50 5-6 7-21 3-33-3-12 0-28 6-36 6-7 9-20 5-29-3-8-1-25 6-36 8-16 20-21 55-21 54 0 53-3 59 157 1 42 12 50 22 16 8-28 9-38 12-125l2-48h61c46 0 58 3 52 13-4 6-8 26-9 42-3 63-25 261-31 275-4 8-7 28-7 44-1 33-3 34-70 28zM604 3641c-2-2-4-94-4-203v-198h191l-3 38c-3 35-5 37-38 37s-35 2-38 37-1 37 29 40c29 3 32 6 34 41 2 36 1 37-32 37h-34l3 48c3 47 3 47 41 50 35 3 37 5 37 40v37h-91c-50 0-92-2-95-4zM807 3644c-4-4-7-97-7-206v-198h78c83 0 141 12 154 32 14 23 9 108-8 133-11 17-12 25-5 25 28 0 56 130 31 145-6 4-8 11-4 16 3 6-1 18-10 28-14 15-34 19-107 20-49 1-95 4-102 7-7 2-16 1-20-2zm133-135c0-38-4-58-10-54-5 3-10 33-10 66 0 38 4 58 10 54 6-3 10-33 10-66zm0-158c0-22-4-43-10-46-6-4-10 12-10 39 0 25 5 46 10 46 6 0 10-18 10-39zM1205 3644c-106-23-125-40-125-116v-38h99l3 42c3 45 22 62 33 28 9-29-12-58-73-99-51-36-62-57-62-123 0-36 24-83 45-92 21-8 103-8 133 0 27 8 52 52 52 94 0 30-1 30-51 30-43 0-50-3-45-16 3-9 0-25-8-36-14-20-14-20-26 2-10 19-7 25 25 56 20 19 41 34 46 34s21 11 36 24c34 32 45 136 17 167-14 15-74 52-78 48-1-1-10-3-21-5zM1378 3618c-24-18-38-35-34-43 3-8 1-17-4-20-12-7-14-218-3-229 4-4 8-14 8-23 0-26 50-56 102-60 61-5 116 21 121 57 2 14 8 29 13 35 12 12 12 192-1 200-5 3-10 19-10 35 0 39-47 72-107 75-35 1-53-4-85-27zm92-173c0-123-8-161-24-119-8 20-8 202 0 232 15 54 24 12 24-113zM1675 3631c-35-17-56-41-50-58 2-7 0-15-5-18-15-9-12-225 3-255 21-42 73-62 142-56 81 8 107 36 103 110-3 50-4 51-37 54-19 2-44 1-57-2-21-6-24-12-24-57 0-31-4-48-10-44s-10 62-10 141c0 83 4 134 10 134s10-25 10-55c0-49 2-55 24-61 13-3 38-4 57-2 29 3 34 7 37 32 7 56-7 94-44 122-41 31-103 38-149 15zM1894 3641c-2-2-4-94-4-203v-198h120l1 58 1 57 20-57 20-58h49c27 0 49 2 49 5 0 7-50 137-60 156-5 9-5 20 0 25 4 5 17 43 28 84 39 142 41 138 41-72l1-198h420v41c0 34-3 40-16 35-38-15-44 10-44 173v156h-110l-2-165-3-165h-120l-3 38c-3 35-2 37 28 37s31 2 28 38c-3 32-7 37-30 40-26 3-28 6-28 53v49h35c34 0 35 1 35 38v37h-301l-14-49c-8-27-16-57-17-65-1-9-4 13-7 48l-6 65h-53c-30 1-55-1-58-3zM2763 3643l-43-4v-400l92 2c81 1 94 4 115 25 29 29 33 116 6 146-15 17-15 19 0 36 13 14 17 39 17 108v89l-52-1h-53l-3-90c-4-128-22-133-22-6 0 56-3 101-7 100-5-1-27-3-50-5zm77-292c0-22-4-43-10-46-6-4-10 12-10 39 0 25 5 46 10 46 6 0 10-18 10-39zM2973 3637c-8-13 8-147 18-153 6-3 7-14 4-25-4-10-3-24 1-31 5-7 9-33 11-58 1-25 5-64 8-87l6-43h161l-7 29c-3 16-2 32 3 35s13 36 17 73c4 38 9 84 12 103 2 19 6 44 7 55s5 27 9 35c3 8 8 26 10 40s5-64 6-172l1-198h110v405l-112-1h-113l-3-37c-2-28-8-37-22-37s-20 9-22 36c-3 36-3 37-51 38-27 0-51-3-54-7zm141-145c-1-6-2-36-3-64-1-38-4-49-11-38-5 8-10 29-10 46 0 16-5 35-11 41s-8 16-4 23c9 14 40 9 39-8zM3384 3641c-2-2-4-94-4-203v-198h110l2 163 3 162 27 3c20 2 30 10 34 28 4 14 2 30-4 36-9 9-159 18-168 9zM3620 3628c-40-20-48-37-49-95l-1-43h100v45c0 34 4 45 16 45 11 0 14-9 12-37-3-33-10-42-60-76-51-35-58-44-64-83-16-109 18-149 122-142 77 5 94 19 101 83l6 46-54-3c-53-3-54-4-57-36-4-36-22-34-22 3 0 22 53 75 74 75 4 0 19 11 33 24 27 26 42 99 29 150s-121 76-186 44zM2567 3514c-4-4-7-20-7-36v-29l68 3 67 3v30c0 30-1 30-60 33-34 2-64 0-68-4zM335 2918c4-35 10-67 13-72 3-6 6-19 8-30 2-32 34-189 41-206 3-8 7-22 8-30 3-18 26-109 33-130 3-8 6-22 7-30 2-18 53-186 65-215 5-11 11-31 14-45 7-33 56-181 67-202 14-27 79-197 79-206 0-5 11-31 25-58s25-56 25-65 9-28 20-42 20-31 20-39 16-40 35-72 35-64 35-71 7-18 15-25 15-19 15-28c0-8 11-30 25-48s25-37 25-42c0-34 282-412 308-412 6 0 12-6 12-12 0-16 63-78 79-78 6 0 11-6 11-12 0-7 17-27 38-44 72-60 160-124 170-124 5 0 15-7 23-16 14-17 30-26 160-91 46-24 91-43 99-43s27-6 42-14 53-20 85-26 73-16 91-22c21-6 197-10 475-9l442 1 70 36c39 20 93 55 120 79 63 53 135 123 135 131 0 3 13 17 30 31 17 13 30 31 30 39s7 17 15 20 23 20 34 37c11 18 34 51 50 75 50 69 151 257 151 280 0 11 8 9 36-7 19-12 39-19 44-16s11 1 14-4c5-8 100-61 109-61 7 0 0 167-7 179-4 6-9 35-12 64-2 29-7 77-11 107-3 30-5 63-4 73s-3 25-9 32c-7 9-9 26-6 41 4 14 3 31-2 37-6 7-13 53-16 102-4 50-8 101-11 115-2 14-7 45-10 70-7 48-15 63-22 43-3-7-10-13-16-13s-18-6-26-14c-9-8-34-24-56-37-64-36-88-49-130-75-22-13-55-30-72-38-18-8-33-19-33-24s-19-17-42-28c-24-10-45-21-48-24-3-4-12-10-20-13-8-4-28-16-45-27-29-19-66-40-132-74-18-10-33-21-33-25s-11-13-25-19c-30-14-32-32-5-39 11-3 20-8 20-12 0-3 21-17 48-29 90-43 90-45 43-94-22-24-41-49-41-55 0-7-4-13-8-13-12 0-222-210-222-222 0-4-6-8-14-8s-30-18-49-40-39-40-45-40c-7 0-17-9-24-20s-17-20-22-20-27-15-50-33-61-45-86-61-56-37-70-46-43-23-65-30-45-17-52-22c-6-5-27-11-46-14-31-3-40 2-86 49-83 86-245 296-264 342-4 11-11 22-16 25-4 3-36 57-71 120s-72 126-82 139-18 31-18 41c0 9-9 27-20 40s-20 29-20 37-11 34-25 59-25 51-25 58c0 8-6 19-14 25-7 6-19 33-26 59-8 26-22 63-32 82s-18 42-18 50-7 29-16 45c-20 38-62 153-80 224-8 30-18 60-23 65-5 6-12 29-16 51-3 22-13 54-20 70-7 17-19 55-25 85-7 30-15 60-19 65-3 6-6 15-6 20-1 6-4 17-7 25-7 21-48 202-60 270-5 30-12 62-15 70-4 8-5 19-4 24s-1 16-5 25-8 25-9 36c-13 85-17 110-21 117-3 4-215 8-471 8H328l7-62zM237 2882l-58-3 6-32c3-18 9-54 13-81l7-49h70c54 0 69 4 67 14-2 8-9 45-15 83-7 38-16 70-22 71-5 0-36-1-68-3z"/>
    <path d="M1368 2883c-56-4-57-5-52-31 2-15 8-51 12-81l7-54h70c54 0 69 4 67 14-2 8-9 45-15 83-7 38-16 70-22 71-5 0-36-1-67-2zM344 2218c4-13 8-30 10-38 1-8 8-33 15-56l13-40 62 4c33 2 63 6 65 9 8 6-18 92-35 118-14 22-24 25-76 25-58 0-60-1-54-22zM1468 2235c-6-7-1-28 25-100l15-40 62-3 62-3-6 38c-4 21-15 54-24 73-16 33-20 35-72 38-31 2-59 0-62-3zM606 1550c4-8 13-33 21-55 21-59 30-65 87-65 78 0 83 7 51 76l-27 59h-69c-58 0-68-2-63-15zM1710 1558c0-12 54-112 65-120 18-13 115-9 121 5 9 23-35 106-59 111-47 10-127 13-127 4zM925 1010c-6-10 2-23 52-76 30-33 34-34 103-34h72l-30 38c-64 80-68 82-132 82-32 0-62-4-65-10zM2006 1005c-3-8-2-15 3-15 4 0 14-12 21-27 29-58 39-63 112-63 37 0 68 3 68 7 0 3-16 30-37 60l-36 53h-63c-46 0-63-4-68-15zM1452 521c-16-10-5-19 59-49 47-23 162-31 173-13 4 5-22 23-56 40-62 31-145 42-176 22z"/>
  </g>
  <g fill="#ca473b">
    <path d="M465 3643c-59-5-69-19-83-123l-9-65-7 40c-4 22-11 48-16 57-5 10-7 24-4 32s1 24-6 35c-9 17-20 21-63 21-47 0-53-3-64-27-6-16-15-62-18-103-4-41-9-93-12-115s-5-51-5-65-4-30-10-37c-5-7-7-21-3-33 5-16 15-20 54-20h48l7 61c3 34 7 89 7 123l2 61 8-45c14-69 19-102 23-142 2-20 7-41 11-47 9-16 95-14 97 2 5 42 7 68 9 120 3 57 11 78 24 57 7-12 13-65 14-142l1-48h106l-2 48c-6 105-27 268-36 279-5 7-7 21-4 31 7 20-2 53-13 50-3-1-29-3-56-5zM604 3641c-2-2-4-94-4-203v-198h180v34c0 32-3 35-32 38-30 3-33 6-36 40-3 35-1 37 29 40 29 3 32 6 34 41 2 36 1 37-32 37h-33v100h40c39 0 40 1 40 34v35l-91 3c-50 2-93 1-95-1zM807 3644c-4-4-7-97-7-207v-199l100 4c75 3 104 8 116 20 24 23 30 110 11 138-14 20-13 24 4 41 16 16 18 30 15 94-2 41-9 81-15 89-8 9-39 14-101 15-50 1-96 4-103 7-7 2-16 1-20-2zm134-77c-1-4-1-32-1-63 0-34-4-53-10-49-14 9-13 128 1 123 6-2 10-7 10-11zm-1-222c0-25-4-45-10-45-5 0-10 20-10 45s5 45 10 45c6 0 10-20 10-45zM1205 3644c-106-23-125-40-125-116v-38h100v45c0 32 4 45 14 45 14 0 26-21 26-45 0-15-59-75-75-75-6 0-22-11-34-24-47-50-36-167 16-187 28-10 97-12 131-3 27 8 52 52 52 94 0 29-1 30-50 30-47 0-50-1-45-22 3-13 1-30-5-38-9-13-12-13-25 4-19 25-7 47 46 83 81 56 80 55 86 116 6 67-8 96-58 121-18 9-33 15-33 15-1-1-10-3-21-5zM1390 3627c-17-10-33-31-36-46-3-14-9-34-15-43-12-24-12-185 1-193 6-3 10-16 10-29 0-51 70-86 145-72 64 12 85 58 85 187 0 128-9 167-42 191-40 28-108 31-148 5zm80-181c0-126-10-176-24-123-8 29-8 205 0 235 15 54 24 12 24-112zM1675 3631c-49-23-53-35-61-171-9-174 16-215 133-215 62 0 67 2 94 35 20 24 29 45 29 70 0 44-15 60-56 60-56 0-64-7-64-61 0-27-4-49-10-49s-10 53-10 140 4 140 10 140c11 0 14-18 11-72-2-32 1-38 22-43 13-4 39-5 58-3 30 3 34 7 37 36 4 42-25 108-57 129s-98 23-136 4zM1900 3443v-203h112l-4 65c-3 69 6 87 17 33 4-18 11-48 16-65 10-31 13-33 60-33 53 0 55 2 36 40-7 14-19 45-27 70-7 25-17 50-22 56-4 6-4 15 1 20 4 5 14 36 21 69s16 65 20 70c4 6 12 24 18 40 8 23 11-16 11-167l1-198h420v40c0 38-2 40-24 34-13-3-27-1-31 5-3 7-7 80-8 164l-2 152-52 3-52 3-3-163-3-163h-130l-3 38c-3 37-3 37 33 37s36 0 33 38c-3 34-6 37-35 40-32 3-33 4-33 53v49h40c40 0 40 0 40 38v37l-141-2c-77-1-147-4-154-7-8-3-17-22-20-43-13-75-20-79-25-14l-5 65h-52l-53 1v-202zM2763 3643l-43-4v-399l73 1c113 2 128 8 145 55 19 52 9 112-20 123-20 7-19 8 6 24 25 17 26 22 26 103 0 91 2 89-61 97l-37 5-4-89c-2-50-9-94-16-101-9-9-12 11-12 90 0 56-3 101-7 100-5-1-27-3-50-5zm81-278c6-23-7-65-19-65-3 0-5 20-5 45 0 49 14 60 24 20zM2973 3637c-7-12 8-130 19-144 5-7 7-21 3-32-3-12-3-26 2-33 4-7 8-29 10-48 1-19 5-59 8-88l7-53 76 3c74 3 77 4 74 27-1 13 2 29 7 35 8 11 14 54 27 188 3 37 12 84 20 105 12 34 13 19 14-159v-198h110v405l-112-1h-113l-3-37c-2-28-8-37-22-37s-20 9-22 36c-3 36-3 37-51 38-27 0-51-3-54-7zm141-145c-1-6-2-38-3-69-1-42-4-54-11-43-5 8-10 29-10 46 0 16-5 35-11 41-16 16-3 45 18 41 10-2 18-9 17-16zM3384 3641c-2-2-4-94-4-203v-198h110l2 163 3 162 27 3c20 2 30 10 34 28 4 14 2 30-4 36-9 9-159 18-168 9zM3624 3628c-37-12-54-43-54-98v-40h100v45c0 33 4 45 15 45 10 0 15-11 15-35 0-31-6-39-60-78-52-37-60-47-66-84-16-107 21-149 128-141 71 5 88 20 95 82l6 46h-53c-43 0-51-3-46-16 7-17-17-58-27-47-4 3-7 17-7 30 0 17 17 35 63 69 34 25 65 53 69 62 10 25 9 97-1 124-15 41-106 59-177 36zM2567 3514c-4-4-7-20-7-36v-29l68 3 67 3v30c0 30-1 30-60 33-34 2-64 0-68-4zM330 2953c0-10 5-36 11-58s12-51 13-65c7-56 36-192 45-209 6-9 15-49 21-87s18-83 26-101c8-17 14-40 14-51s14-62 31-114c16-51 42-129 56-173s35-107 48-140c58-152 78-203 95-240 10-23 23-59 29-82 6-22 18-46 26-53s15-20 15-29c0-10 16-43 35-75s35-64 35-71 7-18 15-25 15-19 15-28c0-8 11-30 25-48s25-37 25-42c0-34 282-412 308-412 6 0 12-6 12-12 0-16 63-78 79-78 6 0 11-6 11-12 0-7 17-27 38-44 72-60 160-124 170-124 5 0 15-7 23-16 14-17 30-26 160-91 46-24 91-43 99-43s27-6 42-14 53-20 85-26 73-16 91-22c21-6 197-10 475-9l442 1 70 36c39 20 93 55 120 79 63 53 135 123 135 131 0 3 13 17 30 31 17 13 30 31 30 39s7 17 15 20 23 20 34 37c11 18 34 51 50 75 50 69 151 257 151 280 0 11 8 9 36-7 19-12 39-19 44-16s11 1 14-4c5-8 100-61 109-61 7 0 0 167-7 179-4 6-9 35-12 64-2 29-7 77-11 107-3 30-5 63-4 73s-3 25-9 32c-7 9-9 26-6 41 4 14 3 31-3 37-5 7-12 53-16 102-3 50-8 101-10 115-12 76-15 91-20 100-7 12-32 3-71-27-17-13-34-23-38-23-5 0-22-10-39-22-35-25-113-69-164-92-18-8-33-19-33-24s-19-17-42-28c-24-10-45-21-48-24-3-4-12-10-20-13-8-4-28-16-45-27-29-19-66-40-132-74-18-10-33-21-33-25s-11-13-25-19c-30-14-32-32-5-39 11-3 20-8 20-12 0-3 21-17 48-29 90-43 90-45 43-94-22-24-41-49-41-55 0-7-4-13-8-13-12 0-222-210-222-222 0-4-6-8-14-8s-30-18-49-40-39-40-45-40c-7 0-17-9-24-20s-17-20-22-20-27-15-50-33-61-45-86-61-56-37-70-46-43-23-65-30-45-17-52-22c-6-5-27-11-46-14-31-3-40 2-86 49-83 86-245 296-264 342-4 11-11 22-16 25-4 3-36 57-71 120s-72 126-82 139-18 31-18 41c0 9-9 27-20 40s-20 29-20 37-11 34-25 59-25 51-25 58c0 8-6 19-14 25-7 6-19 33-27 59-7 26-15 49-19 52-8 7-62 147-101 265-18 55-38 114-46 130-16 37-37 117-34 129 1 4-3 14-9 21-5 7-15 39-21 71-6 33-15 64-20 70s-16 46-24 90c-19 93-52 237-65 277-5 16-6 35-4 42 3 8 2 20-2 27s-9 24-11 38-6 34-7 45c-2 11-4 30-5 43l-1 22H800c-441 0-470-1-470-17zM238 2883l-57-4 6-37c3-20 9-55 12-77l6-40 65-6c36-3 66-5 68-4 7 5-25 169-33 170-6 0-36-1-67-2z"/>
    <path d="M1367 2882c-49-2-57-6-53-20 3-9 8-43 12-75 3-32 12-60 18-62s37-5 68-8l57-4-4 36c-15 106-21 134-30 136-6 0-36-1-68-3zM340 2233c0-4 6-25 14-48 8-22 17-52 20-67 6-27 9-28 72-28h66l-7 33c-4 17-15 51-26 75l-19 42h-60c-33 0-60-3-60-7zM1468 2235c-6-7-1-28 25-100l15-40 62-3 62-3-6 37c-4 20-12 46-18 58-6 11-14 28-18 36-7 15-109 28-122 15zM606 1550c4-8 13-33 21-55 21-59 30-65 87-65 78 0 83 7 51 76l-27 59h-69c-58 0-68-2-63-15zM1710 1558c0-12 54-112 65-120 18-13 115-9 121 5 9 23-35 106-59 111-47 10-127 13-127 4zM925 1010c-6-10 2-23 52-76 30-33 34-34 103-34h72l-30 38c-64 80-68 82-132 82-32 0-62-4-65-10zM2006 1005c-3-8-2-15 3-15 4 0 14-12 21-27 29-58 39-63 112-63 37 0 68 3 68 7 0 3-16 30-37 60l-36 53h-63c-46 0-63-4-68-15zM1452 521c-16-10-5-19 59-49 47-23 162-31 173-13 4 5-22 23-56 40-62 31-145 42-176 22z"/>
  </g>
  <g fill="#ad6a58">
    <path d="M465 3643c-59-5-69-19-83-123l-9-65-7 40c-4 22-11 48-16 57-5 10-7 24-4 32s1 24-6 35c-9 17-20 21-63 21-47 0-53-3-64-27-6-16-15-62-18-103-4-41-9-93-12-115s-5-51-5-65-4-30-10-37c-5-7-7-21-3-33 5-16 15-20 54-20h48l7 61c3 34 7 89 7 123l2 61 8-45c14-69 19-102 23-142 2-20 7-41 11-47 9-16 95-14 97 2 5 42 7 68 9 120 3 57 11 78 24 57 7-12 13-65 14-142l1-48h106l-2 48c-6 105-27 268-36 279-5 7-7 21-4 31 7 20-2 53-13 50-3-1-29-3-56-5zM604 3641c-2-2-4-94-4-203v-198h180v34c0 32-3 35-32 38-30 3-33 6-36 40-3 35-1 37 29 40 29 3 32 6 34 41 2 36 1 37-32 37h-33v100h40c39 0 40 1 40 34v35l-91 3c-50 2-93 1-95-1zM807 3644c-4-4-7-97-7-207v-199l100 4c75 3 104 8 116 20 24 23 30 110 11 138-14 20-13 24 4 41 16 16 18 30 15 94-2 41-9 81-15 89-8 9-39 14-101 15-50 1-96 4-103 7-7 2-16 1-20-2zm134-77c-1-4-1-32-1-63 0-34-4-53-10-49-14 9-13 128 1 123 6-2 10-7 10-11zm-1-222c0-25-4-45-10-45-5 0-10 20-10 45s5 45 10 45c6 0 10-20 10-45zM1205 3644c-106-23-125-40-125-116v-38h100v45c0 32 4 45 14 45 14 0 26-21 26-45 0-15-59-75-75-75-6 0-22-11-34-24-47-50-36-167 16-187 28-10 97-12 131-3 27 8 52 52 52 94 0 29-1 30-50 30-47 0-50-1-45-22 3-13 1-30-5-38-9-13-12-13-25 4-19 25-7 47 46 83 81 56 80 55 86 116 6 67-8 96-58 121-18 9-33 15-33 15-1-1-10-3-21-5zM1390 3627c-17-10-33-31-36-46-3-14-9-34-15-43-12-24-12-185 1-193 6-3 10-16 10-29 0-51 70-86 145-72 64 12 85 58 85 187 0 128-9 167-42 191-40 28-108 31-148 5zm80-181c0-126-10-176-24-123-8 29-8 205 0 235 15 54 24 12 24-112zM1675 3631c-49-23-53-35-61-171-9-174 16-215 133-215 62 0 67 2 94 35 20 24 29 45 29 70 0 44-15 60-56 60-56 0-64-7-64-61 0-27-4-49-10-49s-10 53-10 140 4 140 10 140c11 0 14-18 11-72-2-32 1-38 22-43 13-4 39-5 58-3 30 3 34 7 37 36 4 42-25 108-57 129s-98 23-136 4zM1900 3443v-203h112l-4 65c-3 69 6 87 17 33 4-18 11-48 16-65 10-31 13-33 60-33 53 0 55 2 36 40-7 14-19 45-27 70-7 25-17 50-22 56-4 6-4 15 1 20 4 5 14 36 21 69s16 65 20 70c4 6 12 24 18 40 8 23 11-16 11-167l1-198h420v40c0 38-2 40-24 34-13-3-27-1-31 5-3 7-7 80-8 164l-2 152-52 3-52 3-3-163-3-163h-130l-3 38c-3 37-3 37 33 37s36 0 33 38c-3 34-6 37-35 40-32 3-33 4-33 53v49h40c40 0 40 0 40 38v37l-141-2c-77-1-147-4-154-7-8-3-17-22-20-43-13-75-20-79-25-14l-5 65h-52l-53 1v-202zM2763 3643l-43-4v-399l73 1c113 2 128 8 145 55 19 52 9 112-20 123-20 7-19 8 6 24 25 17 26 22 26 103 0 91 2 89-61 97l-37 5-4-89c-2-50-9-94-16-101-9-9-12 11-12 90 0 56-3 101-7 100-5-1-27-3-50-5zm81-278c6-23-7-65-19-65-3 0-5 20-5 45 0 49 14 60 24 20zM2973 3637c-7-12 8-130 19-144 5-7 7-21 3-32-3-12-3-26 2-33 4-7 8-29 10-48 1-19 5-59 8-88l7-53 76 3c74 3 77 4 74 27-1 13 2 29 7 35 8 11 14 54 27 188 3 37 12 84 20 105 12 34 13 19 14-159v-198h110v405l-112-1h-113l-3-37c-2-28-8-37-22-37s-20 9-22 36c-3 36-3 37-51 38-27 0-51-3-54-7zm141-145c-1-6-2-38-3-69-1-42-4-54-11-43-5 8-10 29-10 46 0 16-5 35-11 41-16 16-3 45 18 41 10-2 18-9 17-16zM3384 3641c-2-2-4-94-4-203v-198h110l2 163 3 162 27 3c20 2 30 10 34 28 4 14 2 30-4 36-9 9-159 18-168 9zM3624 3628c-37-12-54-43-54-98v-40h100v45c0 33 4 45 15 45 10 0 15-11 15-35 0-31-6-39-60-78-52-37-60-47-66-84-16-107 21-149 128-141 71 5 88 20 95 82l6 46h-53c-43 0-51-3-46-16 7-17-17-58-27-47-4 3-7 17-7 30 0 17 17 35 63 69 34 25 65 53 69 62 10 25 9 97-1 124-15 41-106 59-177 36zM2567 3514c-4-4-7-20-7-36v-29l68 3 67 3v30c0 30-1 30-60 33-34 2-64 0-68-4zM330 2953c0-10 5-36 11-58s12-51 13-65c7-56 36-192 45-209 6-9 15-49 21-87s18-83 26-101c8-17 14-40 14-51s14-62 31-114c16-51 42-129 56-173s35-107 48-140c88-233 73-195 156-375 213-459 483-801 798-1010 75-50 256-136 318-151 26-7 53-15 58-20 6-4 62-15 125-24 151-21 833-22 902-2 143 44 368 263 504 492 16 28 35 59 42 70s28 52 48 92l35 72 37-13c33-12 95-41 145-67 11-6 17-6 17 2 0 46-32 362-40 394-5 22-17 112-25 200-24 253-23 253-58 231-12-7-112-66-222-131s-211-125-225-134c-14-10-54-34-90-55-120-69-137-81-138-91 0-5 36-31 81-56 44-25 82-50 84-55 2-6-63-79-143-163-293-304-545-490-688-507-51-6-56-5-81 22-33 35-137 154-147 169-4 5-18 24-31 40-34 43-109 153-136 200-76 130-98 169-161 295-84 166-179 397-241 585-18 55-38 114-46 130-16 37-37 117-34 129 1 4-3 14-9 21-5 7-15 39-21 71-6 33-15 64-20 70s-16 46-24 90c-19 93-52 237-65 277-5 16-6 35-4 42 3 8 2 20-2 27s-9 24-11 38-6 34-7 45c-2 11-4 30-5 43l-1 22H800c-441 0-470-1-470-17zM238 2883l-57-4 6-37c3-20 9-55 12-77l6-40 65-6c36-3 66-5 68-4 7 5-25 169-33 170-6 0-36-1-67-2z"/>
    <path d="M1367 2882c-49-2-57-6-53-20 3-9 8-43 12-75 3-32 12-60 18-62s37-5 68-8l57-4-4 36c-15 106-21 134-30 136-6 0-36-1-68-3zM340 2233c0-4 6-25 14-48 8-22 17-52 20-67 6-27 9-28 72-28h66l-7 33c-4 17-15 51-26 75l-19 42h-60c-33 0-60-3-60-7zM1468 2235c-6-7-1-28 25-100l15-40 62-3 62-3-6 37c-4 20-12 46-18 58-6 11-14 28-18 36-7 15-109 28-122 15zM610 1548c0-7 11-31 23-53 22-39 24-40 86-43 35-2 61 1 60 5-2 4-12 29-23 56l-19 47h-63c-45 0-64-4-64-12zM1721 1553c0-4 10-28 22-53l22-45 63-3c62-3 64-2 57 20-4 13-15 37-24 53-16 28-22 30-79 33-34 2-62-1-61-5zM987 1002l-57-3 42-49c42-49 44-50 101-50 64 0 73 13 32 48-14 12-25 25-25 30 0 17-38 27-93 24zM2020 994c0-4 12-26 28-50l27-43 63-1c34 0 62 3 62 6 0 4-12 26-27 50l-28 44h-62c-35 0-63-3-63-6zM1490 493c30-18 63-28 102-31 81-6 88 1 34 31-39 22-61 27-115 27h-66l45-27z"/>
  </g>
  <g fill="#ecc6bd">
    <path d="M2974 3639c-2-4 1-35 6-68 23-140 28-180 35-254l7-78 71 3 72 3 8 40c7 36 42 260 51 328 4 26 3 27-45 27h-49v-35c0-32-2-35-30-35-27 0-30 3-30 34 0 33-1 34-46 38-25 2-48 0-50-3zm140-137c8-14-6-152-15-146-5 3-9 20-9 39s-5 45-11 59c-7 14-9 32-6 40 7 17 32 22 41 8zM3463 3642l-73-3v-399h100v330h30c24 0 31 5 36 26 10 39-11 49-93 46zM213 3598c-7-24-18-101-24-173-6-71-15-137-19-145-14-28 0-40 50-40h48l8 133c8 135 11 136 29 7 3-19 9-57 13-85l7-50 46-3 46-3 6 53c4 29 7 74 7 100 0 25 3 53 6 62 13 35 23 12 29-71 10-146 9-143 64-143h47l-13 138c-7 75-18 150-23 166-6 16-10 44-10 62v34H415l-13-41c-7-22-15-67-19-100-3-33-8-57-11-54-5 5-18 66-30 145l-7 45-55 3-55 3-12-43zM610 3440v-200h170v34c0 32-3 35-32 38-30 3-33 6-36 41s-2 37 26 37c37 0 39 2 34 45-4 31-7 35-33 35-28 0-29 2-29 50v50h40c39 0 40 1 40 35v35H610v-200zM810 3440v-202l95 4c114 5 126 13 133 90 3 44 1 56-17 72l-20 18 22 18c19 16 22 28 22 94-1 46-6 81-13 88-8 8-52 14-117 16l-105 4v-202zm138 85c1-28-2-56-7-64-17-26-31 1-31 60 0 52 2 60 18 57 13-2 18-15 20-53zm-2-159c8-32-3-66-22-66-10 0-14 13-14 45 0 33 4 45 15 45 8 0 17-11 21-24zM1138 3629c-30-12-58-63-58-108 0-31 1-31 50-31h50v45c0 38 3 45 20 45 16 0 20-7 20-35 0-31-6-39-62-80-70-51-76-61-77-122-1-31 6-49 23-70 22-25 30-28 91-28s69 3 91 28c15 18 24 41 24 63 0 35 0 35-42 32-38-3-43-6-50-35-9-36-33-44-40-15-8 27 9 61 34 71 13 5 41 24 62 43 37 33 39 37 40 96 1 50-3 66-20 82-24 25-114 36-156 19zM1393 3625c-42-18-48-42-48-191 0-84 4-129 14-147 33-63 171-62 201 1 19 39 25 204 10 269-10 48-16 57-46 69-42 18-90 17-131-1zm77-185c0-77-4-140-9-140-15 0-21 41-21 140s6 140 21 140c5 0 9-63 9-140zM1682 3633c-43-8-56-45-60-181-4-107-2-131 13-159 22-41 73-59 138-49 52 8 70 25 87 83 18 61 10 73-49 73h-50l-3-47c-3-50-22-68-32-31-3 13-6 66-6 118s3 105 6 118c11 39 29 18 32-36l3-52h50c62 0 68 12 44 86-15 47-23 58-51 70-32 14-75 16-122 7zM1900 3440v-200h100v65c0 37 4 65 10 65s10-4 10-10c0-5 9-34 21-65 20-54 21-55 60-55 45 0 45-6 7 100-11 30-20 64-20 75 0 19 42 169 57 208 6 15 1 17-39 17-43 0-47-2-60-35-9-20-18-51-22-70-11-58-24-39-24 35v70h-100v-200zM2170 3440v-200h170v34c0 32-3 35-32 38-30 3-33 6-36 41-3 37-3 37 33 37s36 0 33 38c-3 34-6 37-35 40-32 3-33 4-33 53v49h40c39 0 40 1 40 35v35h-180v-200zM2408 3478l-3-163-27-3c-25-3-28-8-28-38v-34h230v35c0 30-3 35-24 35-14 0-28 5-31 10-4 6-7 79-8 163l-2 152-52 3-52 3-3-163zM2720 3440v-200h64c97 0 125 9 147 44 27 44 25 91-6 122-19 19-21 26-11 30 24 9 37 58 34 130l-3 69h-90l-1-78c0-59-5-82-17-95-16-15-17-10-17 81v97h-100v-200zm129-67c5-10 9-22 9-28 0-16-18-45-28-45-6 0-10 20-10 45 0 46 12 58 29 28zM3250 3440v-200h100v400h-100v-200zM3620 3622c-36-18-47-41-49-99-1-33-1-33 49-33h50v46c0 38 3 45 18 42 11-2 18-14 20-35 3-29-3-36-60-78-35-25-66-53-70-63-10-26-9-87 2-116 21-56 161-61 200-6 28 40 27 78-4 86-41 10-59 1-68-34-5-18-15-32-24-32-24 0-15 70 11 84 91 50 126 109 109 182-11 45-55 74-114 74-19 0-51-8-70-18zM2563 3504c-12-32 11-49 68-49 54 0 54 0 57 33l3 32h-61c-47 0-62-4-67-16zM336 2928c3-24 8-50 11-58s16-67 29-130c33-167 94-409 127-510 8-25 27-83 42-130s37-112 50-145c88-233 73-195 156-375 213-459 483-801 798-1010 75-50 256-136 318-151 26-7 53-15 58-20 6-4 62-15 125-24 151-21 833-22 902-2 143 44 368 263 504 492 16 28 35 59 42 70s28 52 48 92l35 72 37-13c33-12 95-41 145-67 11-6 17-6 17 2 0 46-32 362-40 394-5 22-17 112-25 200-24 253-23 253-58 231-12-7-112-66-222-131s-211-125-225-134c-14-10-54-34-90-55-120-69-137-81-138-91 0-5 36-31 81-56 44-25 82-50 84-55 2-6-63-79-143-163-293-304-545-490-688-507-51-6-56-5-81 22-33 35-137 154-147 169-4 5-18 24-31 40-34 43-109 153-136 200-76 130-98 169-161 295-62 123-90 185-154 350-137 347-222 626-287 940-11 52-22 104-25 115s-10 57-16 103l-12 82H330l6-42zM194 2823c12-106 10-103 80-103h63l-9 68c-12 96-9 92-79 92h-62l7-57z"/>
    <path d="M1324 2818c11-92 16-98 85-98h58l-9 68c-12 96-9 92-79 92h-62l7-62zM342 2228c2-7 13-41 23-75l20-63h63c71 0 70-2 38 85l-22 60-63 3c-48 2-62 0-59-10zM1468 2235c-6-7-1-28 25-100l15-40 62-3c70-3 69-5 40 78-23 64-24 65-81 68-30 2-58 0-61-3zM610 1548c0-7 11-31 23-53 22-39 24-40 86-43 35-2 61 1 60 5-2 4-12 29-23 56l-19 47h-63c-45 0-64-4-64-12zM1721 1553c0-4 10-28 22-53l22-45 63-3c62-3 64-2 57 20-4 13-15 37-24 53-16 28-22 30-79 33-34 2-62-1-61-5zM987 1002l-57-3 42-49c42-49 44-50 101-50 64 0 73 13 32 48-14 12-25 25-25 30 0 17-38 27-93 24zM2020 994c0-4 12-26 28-50l27-43 63-1c34 0 62 3 62 6 0 4-12 26-27 50l-28 44h-62c-35 0-63-3-63-6zM1490 493c30-18 63-28 102-31 81-6 88 1 34 31-39 22-61 27-115 27h-66l45-27z"/>
  </g>
  <g fill="#d8d5d5">
    <path d="M2975 3642c-2-2 0-15 6-29 5-13 6-35 3-49-3-13-2-30 4-37 5-6 13-52 16-102 4-49 12-111 17-137l11-48h63c35 0 66 4 69 8 3 5 6 26 7 48 1 21 5 43 8 48 6 12 7 22 21 141 6 50 13 97 17 105 18 42 12 50-38 50h-49v-35c0-32-2-35-30-35-27 0-30 3-30 34 0 33-1 34-46 38-25 2-47 2-49 0zm149-154c8-13 8-23-2-38-6-11-12-38-12-61 0-28-4-39-12-36-8 2-12 17-10 39 2 20-1 39-7 43-12 7-15 58-4 69s35 3 47-16zm-17-165c-4-3-7 0-7 7s3 10 7 7c3-4 3-10 0-14zM3463 3642l-73-3v-399h90l2 163 3 162 32 3c26 3 34 9 39 28 10 39-11 49-93 46zM214 3608c-4-18-9-49-10-68s-4-48-7-65c-3-16-8-64-12-105-3-41-9-87-11-102-6-28-5-28 46-28h52l-6 54c-5 34-3 56 3 61 6 3 11 42 12 88 1 70 2 77 10 47 6-19 11-55 13-80s6-52 9-60c4-8 8-35 9-60l3-45 48-3c45-3 47-2 48 25 1 55 10 158 14 181 10 41 23 22 29-40 4-35 8-81 10-103 3-22 5-46 5-52 1-9 18-13 52-13 27 0 48 4 45 8-2 4-8 50-11 102-4 52-10 99-13 105-3 5-7 28-9 50-1 22-6 60-10 85l-8 45-55 3-55 3-12-40c-7-22-10-46-7-54s1-18-5-22c-6-3-11-24-11-47 0-35-2-39-15-28-9 8-13 21-9 36 4 13 2 30-4 37s-12 35-14 62l-3 50-56 3c-56 3-56 3-65-30zm242-105c-10-10-19 5-10 18 6 11 8 11 12 0 2-7 1-15-2-18zM610 3440v-200h170v34c0 33-2 35-37 38-36 3-38 5-41 41s-2 37 31 37c42 0 44 2 39 45-4 34-6 36-36 33l-31-3v100l43 3c41 3 42 4 42 38v34H610v-200zM810 3439v-201l95 4c113 5 124 12 132 90 5 53 4 57-22 74s-26 18-7 25c30 11 48 77 36 136-12 62-34 73-146 73h-88v-201zm138 86c1-28-2-56-7-64-17-26-31 1-31 60 0 52 2 60 18 57 13-2 18-15 20-53zm2-164c0-39-9-61-26-61-10 0-14 13-14 45 0 38 3 45 20 45 15 0 20-7 20-29zM1138 3629c-30-11-58-63-58-106 0-27 1-28 45-25 39 4 45 7 45 27 0 36 10 55 31 55 15 0 19-7 19-32 0-38-9-55-37-71-88-53-103-74-103-139 0-66 66-107 149-93 30 5 42 14 56 38 9 18 15 43 14 57-3 21-9 25-38 25-31 0-36-4-43-32-9-36-33-44-40-15-7 27 10 63 32 69 11 3 20 9 20 13s17 19 39 33c30 20 39 33 45 65 9 56-2 94-31 116-30 22-106 30-145 15zM1403 3629c-50-15-57-38-58-185 0-148 8-174 59-192 47-17 84-15 122 9 42 25 54 66 54 179 0 98-12 150-40 175-23 21-92 28-137 14zm72-189c0-127-2-140-17-140-10 0-18 5-19 10-3 69 1 251 6 259 3 6 12 11 18 11 9 0 12-38 12-140zM1687 3633c-48-8-61-41-65-181-4-107-2-131 13-159 22-40 73-59 137-49 43 7 79 39 83 75 1 9 5 24 9 34 15 33 0 47-54 47h-50v-44c0-46-14-66-32-48-14 14-13 251 0 264 19 19 32-3 32-53v-49h50c52 0 73 16 53 43-5 6-10 25-11 40-3 44-19 65-60 77-37 10-54 10-105 3zM1900 3440v-200h100v65c0 37 4 65 10 65s10-4 10-10c0-5 9-34 21-65 20-54 21-55 60-55 21 0 39 1 39 3-1 14-32 103-41 113-14 17-14 70-1 114 6 19 17 58 25 85 8 28 18 58 22 68 7 16 3 18-41 15-40-2-49-7-52-23-2-11-10-34-18-52-8-17-14-38-14-47s-4-16-10-16-10 30-10 70v70h-100v-200zM2170 3440v-200h160v34c0 32-3 35-32 38-30 3-33 6-36 41l-3 37h82l-3 38c-3 35-5 37-38 38h-35v99l43 3c41 3 42 4 42 38v34h-180v-200zM2412 3476l3-166h-32c-31 0-33-2-33-35v-35h230v35c0 33-2 35-32 35h-33v325l-53 3-53 3 3-165zM2720 3440v-200h64c102 0 121 7 145 52 11 22 21 47 21 56-1 22-30 57-55 67-19 7-18 8 6 17 37 12 51 52 47 134l-3 69h-90l-1-80c-1-105-2-105-19-105-12 0-15 17-15 95v95h-100v-200zm136-80c0-14-3-33-8-42-11-23-43-24-34-2 3 9 6 29 6 46 0 23 4 29 18 26 10-2 17-13 18-28zM3250 3440v-200h90v400h-90v-200zM3620 3622c-26-13-37-26-43-55-13-54-5-67 43-67 37 0 40 2 40 28 0 36 14 56 34 49 26-10 20-60-12-90-15-15-32-27-38-27-5-1-22-11-37-23-31-26-43-75-33-129 13-70 136-90 197-32 38 36 40 81 5 90-41 10-59 1-68-34-10-39-34-42-41-4-5 26 15 62 35 62 18 0 88 65 88 82 0 9 5 20 10 23 15 9 11 57-9 90-32 55-104 71-171 37zM2563 3504c-12-32 11-49 68-49 54 0 54 0 57 33l3 32h-61c-47 0-62-4-67-16zM1061 2907c-1-14-10-17-53-16-84 3-91 1-86-19 3-11 0-19-8-19-7 0-11 4-8 9 3 4 0 8-5 8-6 0-11-4-11-10 0-14-27-12-33 3-3 7-6 5-6-5-1-22-21-24-21-3 0 8-5 15-11 15-5 0-7-4-4-10 7-12 3-12-155-19-41-2-50-5-35-11 11-5 14-9 7-9-7-1-21 5-33 12-17 10-22 9-30-5-11-21-39-24-39-5 0 7-3 8-8 2-8-12-25-16-64-17-26-1-34-12-29-41 1-4-7-3-18 2-10 6-21 7-25 3-4-3-4 2-1 13 6 19 6 19-5 1-9-13-9-20-1-25 6-4 13-32 15-62s5-56 7-59c1-3 3-9 4-15 7-50 18-91 25-95 5-3 11-23 14-45 2-22 6-42 7-45s3-9 4-15c6-32 19-74 30-100 7-16 13-41 13-55s12-54 26-89c15-35 25-66 22-69s-2-10 3-16c4-6 20-47 35-91s32-88 37-97c5-10 9-26 9-35 0-10 11-40 25-67 13-27 22-53 20-57-3-4 2-12 10-19s15-19 15-26c0-8 4-22 9-32 5-9 16-33 24-52 9-19 23-46 31-60s22-41 30-60c9-19 20-42 25-50 30-57 42-80 61-122 12-26 30-54 41-64 10-9 19-21 19-25s20-37 45-72c25-36 45-68 45-72s9-17 19-29c38-42 111-136 111-143 0-4 20-26 45-50 25-23 45-46 45-51 0-10 30-37 105-97 21-16 47-39 59-51 19-18 112-85 154-109 9-5 36-22 59-37 23-16 48-28 55-28 8 0 19-5 25-11 24-24 242-93 358-113 109-19 877-18 897 2 6 6 19 12 28 12 8 0 31 13 50 28 19 16 53 40 75 54 45 29 135 111 135 125 0 4 22 32 48 60 86 97 142 171 142 190 0 7 8 21 18 31 9 9 41 66 71 125 29 59 57 107 61 107s13-7 20-15 18-15 24-15c7 0 43-16 80-35l68-35-6 43c-3 23-9 85-12 137s-11 101-16 107c-6 7-7 28-4 47 4 19 3 37-2 40s-10 26-10 51c-1 25-3 49-6 53-2 4-7 57-11 117-4 61-11 115-16 121-5 7-7 28-5 48s0 38-5 41c-5 4-9 15-9 26 0 19-1 19-27 2-16-10-30-21-33-24-3-4-24-15-48-24-23-10-42-21-42-25 0-8-21-21-105-63-22-11-61-35-86-53-26-19-51-34-56-34-6 0-21-9-34-19-29-23-86-57-116-70-12-6-41-24-64-41-23-16-47-30-54-30-6 0-20-6-30-14-18-13-18-15 15-30 79-38 148-75 154-84 3-6-6-25-22-42-48-58-323-333-366-367-22-18-52-41-66-52s-45-38-70-59-57-43-72-50c-16-6-28-16-28-21s-10-11-23-15c-13-3-40-17-60-31-51-34-154-53-196-35-17 7-31 16-31 20 0 5-20 29-45 55-25 25-53 58-62 73-25 38-35 51-60 77-13 12-23 27-23 33s-6 15-12 19c-15 9-36 41-44 65-4 10-10 18-15 18s-14 10-19 23c-6 12-19 36-30 52-11 17-27 44-35 60-9 17-24 44-35 60-11 17-27 46-36 65s-20 42-25 50-14 26-19 40c-6 14-15 32-20 40-6 8-20 35-31 60-12 25-29 63-40 86-10 22-19 47-19 55s-5 20-12 27c-12 12-44 91-76 187-9 28-21 53-26 56-5 4-6 14-3 22s0 23-7 33c-16 25-56 132-56 150 0 9-9 35-20 60-12 24-18 49-15 54s1 11-5 15c-5 3-10 18-10 33s-7 40-15 56c-8 15-12 32-10 37 3 5-1 22-10 38-8 17-15 41-15 54 0 12-5 28-11 34s-13 26-14 45c-2 18-5 35-6 38s-3 10-4 15c-12 63-19 92-26 100-4 6-10 33-13 60-5 47-15 101-32 168-6 25-10 27-59 27-29 0-55-4-57-8-1-5-20-12-40-15-29-4-38-2-41 11-4 15-5 15-6-1zm-44-34c-4-3-10-3-14 0-3 4 0 7 7 7s10-3 7-7zm-422-53c3-5 4-10 1-10s-8 5-11 10c-3 6-4 10-1 10s8-4 11-10zm-68-27c-4-3-10-3-14 0-3 4 0 7 7 7s10-3 7-7zM2727 373c-4-3-10-3-14 0-3 4 0 7 7 7s10-3 7-7z"/>
    <path d="M1093 2913c9-2 25-2 35 0 9 3 1 5-18 5s-27-2-17-5zM190 2853c0-15 7-47 15-71 9-24 13-48 10-53-4-5 22-9 60-9 36 0 64 4 61 8-2 4-7 26-10 47-3 22-9 54-14 70-8 28-12 30-65 33-56 3-57 3-57-25zM1320 2846c0-19 5-38 10-41 6-4 10-14 9-23 0-10 2-27 6-39 7-20 14-23 67-23 32 0 57 4 54 8-2 4-7 28-10 53s-10 58-15 72c-10 25-15 27-66 27h-55v-34zM400 2790c0-5 5-10 10-10 6 0 10 5 10 10 0 6-4 10-10 10-5 0-10-4-10-10zM356 2232c-3-5 2-37 11-73l15-64 65 3c54 3 62 6 52 18-6 8-9 17-7 20 3 3-2 26-11 52-17 47-17 47-68 50-28 2-54-1-57-6zM1465 2231c-3-5-1-12 4-16 5-3 10-13 10-23 0-9 6-34 13-54l13-38h59c58 0 58 0 52 26-4 15-10 40-13 58-3 17-10 37-16 44-11 14-113 17-122 3zM610 1546c0-8 5-18 11-22 6-3 17-22 25-40 14-33 16-34 70-34 53 0 55 1 49 23-4 12-14 37-23 55-16 30-19 32-74 32-44 0-58-4-58-14zM1720 1555c0-3 12-28 26-55l26-50h59c52 0 57 2 51 18-45 100-36 92-102 92-33 0-60-2-60-5zM975 951l37-51h59c66 0 75 12 35 47-13 11-26 27-28 34-3 8-28 14-72 17l-68 4 37-51zM2020 994c0-4 12-26 28-50 27-43 28-43 85-44 31 0 57 3 57 7s-9 26-21 50l-21 43h-64c-35 0-64-3-64-6zM1487 494c36-21 53-24 105-22l63 3-45 22c-31 16-63 23-105 23h-60l42-26z"/>
  </g>
  <g fill="#f5d5cf">
    <path d="M219 3618c-1-22-2-29-9-53-1-5-3-28-5-50-1-22-7-76-14-120-6-44-13-97-16-117l-5-38h102l-7 64c-4 36-3 70 1 78 10 15 10 17 13 88l3 55 13-41c7-22 12-59 10-82-1-24 2-45 6-48 5-3 9-20 9-37 0-66 8-77 56-77 43 0 44 1 45 33 1 17 3 43 4 57s4 53 5 88c5 106 27 88 36-28 3-36 10-84 16-107 10-42 11-43 55-43 24 0 42 3 40 8-3 4-8 43-12 86-3 44-11 88-16 99-6 10-7 32-4 48 4 16 3 35-2 42-6 7-11 32-12 56-1 25-4 48-7 53-3 4-30 8-60 8-53 0-54-1-54-28 0-16-3-32-7-36s-9-22-10-39c-1-18-5-51-9-75-6-41-7-42-20-23-9 12-12 30-8 46 3 14 2 31-4 38s-12 35-14 62l-3 50-57 3c-54 3-58 2-59-20zm241-103c0-8-4-15-10-15-5 0-10 7-10 15s5 15 10 15c6 0 10-7 10-15zM610 3440v-200h170v34c0 33-2 35-37 38-36 3-38 5-41 41s-2 37 31 37c42 0 44 2 39 45-4 34-6 36-36 33-31-3-31-3-34 50l-3 52h45c46 0 46 0 46 35v35H610v-200zM820 3440v-202l83 3c101 5 128 24 135 99 4 41 1 48-22 63l-26 18 27 23c25 22 28 31 28 90 0 92-10 100-130 104l-95 4v-202zm128 128c17-17 15-93-3-108-30-25-45-4-45 60 0 51 3 60 18 60 10 0 23-5 30-12zm8-205c8-32-6-57-35-61-19-3-21 1-21 42 0 42 2 46 25 46 18 0 26-7 31-27zM1140 3629c-27-10-60-70-60-110 0-22 3-24 44-21 44 4 45 5 48 40 2 30 8 38 26 40 19 3 22-1 22-28 0-39-16-70-35-70-8 0-15-5-15-10 0-6-12-16-26-22-36-16-67-82-60-123 10-53 48-80 112-80 67 0 96 24 98 82 1 37 0 38-34 38-32 0-35-3-38-32-4-42-37-46-47-6-7 28 4 41 93 110 16 12 34 40 42 62 12 37 11 45-6 79-11 20-31 42-44 49-29 15-84 16-120 2zM1410 3629c-48-20-58-38-65-115-4-41-4-108 0-149 6-73 8-76 43-100 68-46 148-24 177 47 17 44 20 193 5 249-6 20-19 44-30 54-23 21-95 29-130 14zm65-189c0-127-2-140-17-140-10 0-18 3-18 8-1 13-1 257-1 265 1 4 9 7 19 7 15 0 17-13 17-140zM1685 3626c-53-23-59-38-63-167-2-65-1-130 2-144 4-14 24-37 46-51 35-23 46-26 92-20 59 8 94 40 90 85-1 13 3 30 9 37 18 22 0 34-53 34h-51l5-51c5-49 5-50-20-47l-26 3 1 135c1 125 2 135 19 135 16 0 20-9 22-52l3-53h49c47 0 71 12 51 25-5 3-10 23-9 44 1 53-16 78-60 91-48 13-70 12-107-4zM1900 3440v-200h100v65c0 36 3 65 8 65 9 0 52-93 52-114 0-12 10-16 40-16 22 0 40 2 40 5 0 2-11 30-25 62-14 31-26 73-26 93-1 42 10 101 22 115 4 6 11 31 15 55 4 25 11 51 17 58 8 11 1 13-38 10-49-3-49-4-57-43-5-22-13-44-18-49-6-6-10-18-10-28s-4-18-10-18-10 30-10 70v70h-100v-200zM2170 3440v-200h160v34c0 32-3 35-32 38-30 3-33 6-36 41l-3 37h82l-3 38c-3 35-5 37-38 37l-35 1-3 52-3 52h45c46 0 46 0 46 35v35h-180v-200zM2412 3476l3-166h-32c-31 0-33-2-33-35v-35h220v35c0 32-3 35-27 35h-28v325l-53 3-53 3 3-165zM2720 3440v-200h73c73 0 115 13 127 40 4 8 12 26 19 38 16 31-8 86-41 97-23 7-23 7 5 18 17 7 27 18 27 32 0 12 5 26 11 32 5 5 9 38 7 74l-3 64h-90l-1-80c-1-106-1-105-21-105-16 0-18 10-15 95l4 95h-102v-200zm135-95c0-35-3-40-24-43-19-3-22 0-17 13 3 9 6 30 6 47 0 23 4 29 18 26 13-2 17-13 17-43zM2984 3593c1-27 4-52 8-58 3-5 9-56 13-113 4-56 11-105 16-108s9-21 9-40v-34h64c72 0 71-1 81 102 3 29 10 67 15 83 5 17 12 59 15 95 4 36 11 70 15 75 4 6 7 18 7 28 0 14-9 17-48 17h-48l-3-37c-3-33-6-38-28-38s-25 5-28 38c-3 37-4 37-46 37h-43l1-47zm146-119c0-19-5-44-10-54-6-10-11-37-12-59-1-35-3-38-14-23-8 10-11 30-8 48s1 35-5 38c-12 8-15 68-4 79 3 4 17 7 30 7 20 0 23-5 23-36zM3250 3440v-200h90v400h-90v-200zM3390 3440v-200h90v330h30c28 0 30 3 30 35v35h-150v-200zM3628 3629c-16-6-28-17-28-24s-5-15-11-17-12-22-13-43c-1-40-1-40 41-43l42-3 3 38c2 30 7 38 23 38 15 0 21-8 23-32 3-27-3-39-29-62-18-17-44-35-59-41-32-13-54-73-45-123 12-61 101-97 164-64 27 13 59 62 60 89 1 11-9 20-23 24-43 10-61 1-64-34-4-36-30-44-53-16-17 21 7 62 53 86 43 23 78 64 78 92 0 12 5 27 11 33 8 8 8 13 0 17-6 4-11 17-11 30s-9 31-20 41c-24 21-103 29-142 14zM2563 3504c-12-32 11-49 68-49 54 0 54 0 57 33l3 32h-61c-47 0-62-4-67-16zM1061 2907c-1-14-10-17-53-16-84 3-91 1-86-19 3-11 0-19-8-19-7 0-11 4-8 9 3 4 0 8-5 8-6 0-11-4-11-10 0-14-27-12-33 3-3 7-6 5-6-5-1-22-21-24-21-3 0 8-5 15-11 15-5 0-7-4-4-10 7-12 3-12-155-19-41-2-50-5-35-11 11-5 14-9 7-9-7-1-21 5-33 12-17 10-22 9-30-5-11-21-39-24-39-5 0 7-3 8-8 2-8-12-25-16-64-17-26-1-34-12-29-41 1-4-7-3-18 2-10 6-21 7-25 3-4-3-4 2-1 13 6 19 6 19-5 1-9-13-9-20-1-25 6-4 13-32 15-62s5-56 7-59c1-3 3-9 4-15 7-50 18-91 25-95 5-3 11-23 14-45 2-22 6-42 7-45s3-9 4-15c6-32 19-74 30-100 7-16 13-41 13-55s12-54 26-89c15-35 25-66 22-69s-2-10 3-16c4-6 20-47 35-91s32-88 37-97c5-10 9-26 9-35 0-10 11-40 25-67 13-27 22-53 20-57-3-4 2-12 10-19s15-19 15-26c0-8 4-22 9-32 5-9 16-33 24-52 9-19 23-46 31-60s22-41 30-60c9-19 20-42 25-50 30-57 42-80 61-122 12-26 30-54 41-64 10-9 19-21 19-25s20-37 45-72c25-36 45-68 45-72s9-17 19-29c38-42 111-136 111-143 0-4 20-26 45-50 25-23 45-46 45-51 0-10 30-37 105-97 21-16 47-39 59-51 19-18 112-85 154-109 9-5 36-22 59-37 23-16 48-28 55-28 8 0 19-5 25-11 25-25 243-94 358-113 98-16 743-21 660-5-27 6-54 14-60 18-5 5-36 16-67 26-32 10-58 22-58 26 0 5-5 9-12 9-37 0-231 150-311 240-12 14-36 38-53 55s-39 44-50 60c-26 41-36 53-61 80-13 12-23 27-23 33s-6 15-12 19c-15 9-36 41-44 65-4 10-10 18-15 18s-14 10-19 23c-6 12-19 36-30 52-11 17-27 44-35 60-9 17-24 44-35 60-11 17-27 46-36 65s-20 42-25 50-14 26-19 40c-6 14-15 32-20 40-6 8-20 35-31 60-12 25-29 63-40 86-10 22-19 47-19 55s-5 20-12 27c-12 12-44 91-76 187-9 28-21 53-26 56-5 4-6 14-3 22s0 23-7 33c-16 25-56 132-56 150 0 9-9 35-20 60-12 24-18 49-15 54s1 11-5 15c-5 3-10 18-10 33s-7 40-15 56c-8 15-12 32-10 37 3 5-1 22-10 38-8 17-15 41-15 54 0 12-5 28-11 34s-13 26-14 45c-2 18-5 35-6 38s-3 10-4 15c-12 63-19 92-26 100-4 6-10 33-13 60-5 47-15 101-32 168-6 25-10 27-59 27-29 0-55-4-57-8-1-5-20-12-40-15-29-4-38-2-41 11-4 15-5 15-6-1zm-44-34c-4-3-10-3-14 0-3 4 0 7 7 7s10-3 7-7zm-422-53c3-5 4-10 1-10s-8 5-11 10c-3 6-4 10-1 10s8-4 11-10zm-68-27c-4-3-10-3-14 0-3 4 0 7 7 7s10-3 7-7z"/>
    <path d="M1093 2913c9-2 25-2 35 0 9 3 1 5-18 5s-27-2-17-5zM190 2853c0-15 7-47 15-71 9-24 13-48 10-53-4-5 22-9 60-9 36 0 64 4 61 8-2 4-7 26-10 47-3 22-9 54-14 70-8 28-12 30-65 33-56 3-57 3-57-25zM1320 2846c0-19 5-38 10-41 6-4 10-14 9-23 0-10 2-27 6-39 7-20 14-23 67-23 32 0 57 4 54 8-2 4-7 28-10 53s-10 58-15 72c-10 25-15 27-66 27h-55v-34zM400 2790c0-5 5-10 10-10 6 0 10 5 10 10 0 6-4 10-10 10-5 0-10-4-10-10zM356 2232c-3-5 2-37 11-73l15-64 65 3c54 3 62 6 52 18-6 8-9 17-7 20 3 3-2 26-11 52-17 47-17 47-68 50-28 2-54-1-57-6zM1465 2231c-3-5-1-12 4-16 5-3 10-13 10-23 0-9 6-34 13-54l13-38h59c58 0 58 0 52 26-4 15-10 40-13 58-3 17-10 37-16 44-11 14-113 17-122 3zM3650 1842c-14-9-27-20-30-23-3-4-24-15-48-24-23-10-42-21-42-25 0-8-21-21-105-63-22-11-61-35-86-53-26-19-51-34-56-34-6 0-21-9-34-19-29-23-86-57-116-70-12-6-41-24-64-41-23-16-47-30-54-30-6 0-20-6-30-14-18-13-18-15 15-30 79-38 148-75 154-84 3-6-6-25-22-42-48-58-323-333-366-367-22-18-52-41-66-52s-45-38-70-59c-59-50-111-87-132-95-10-3-18-11-18-16s41-50 90-100c50-50 90-93 90-97 0-3-20 6-44 20-35 20-58 26-105 26-34 0-61-4-61-10 0-5 18-21 39-36 36-23 48-25 119-23l79 3 39-43c63-68 96-84 158-77 29 4 65 13 80 21 16 8 31 13 35 10 4-2 23 9 42 24s52 39 74 53c45 29 135 111 135 125 0 4 22 32 48 60 86 97 142 171 142 190 0 7 8 21 18 31 9 9 41 66 71 125 29 59 57 107 61 107s13-7 20-15 18-15 24-15c7 0 43-16 80-35l68-35-6 43c-3 23-9 85-12 137s-11 101-16 107c-6 7-7 28-4 47 4 19 3 37-2 40s-10 26-10 51c-1 25-3 49-6 53-2 4-7 57-11 117-4 61-11 115-16 121s-7 26-5 45 0 39-4 44c-4 6-9 17-11 26-4 15-6 15-29 1zM610 1546c0-8 5-18 11-22 6-3 17-22 25-40 14-33 16-34 70-34 53 0 55 1 49 23-4 12-14 37-23 55-16 30-19 32-74 32-44 0-58-4-58-14zM1720 1555c0-3 12-28 26-55l26-50h59c52 0 57 2 51 18-45 100-36 92-102 92-33 0-60-2-60-5zM975 951l37-51h59c66 0 75 12 35 47-13 11-26 27-28 34-3 8-28 14-72 17l-68 4 37-51zM2020 994c0-4 12-26 28-50 27-43 28-43 85-44 31 0 57 3 57 7s-9 26-21 50l-21 43h-64c-35 0-64-3-64-6zM1487 494c36-21 53-24 105-22l63 3-45 22c-31 16-63 23-105 23h-60l42-26z"/>
  </g>
  <g fill="#dfe0e2">
    <path d="M219 3618c-1-22-2-29-9-53-1-5-3-28-5-50-1-22-7-76-14-120-6-44-13-97-16-117l-5-38h102l-7 64c-4 36-3 70 1 78 10 15 10 17 13 88l3 55 13-41c7-22 12-59 10-82-1-24 2-45 6-48 5-3 9-20 9-37 0-66 8-77 56-77 43 0 44 1 45 33 1 17 3 43 4 57s4 53 5 88c5 106 27 88 36-28 3-36 10-84 16-107 10-42 11-43 55-43 24 0 42 3 40 8-3 4-8 43-12 86-3 44-11 88-16 99-6 10-7 32-4 48 4 16 3 35-2 42-6 7-11 32-12 56-1 25-4 48-7 53-3 4-30 8-60 8-53 0-54-1-54-28 0-16-3-32-7-36s-9-22-10-39c-1-18-5-51-9-75-6-41-7-42-20-23-9 12-12 30-8 46 3 14 2 31-4 38s-12 35-14 62l-3 50-57 3c-54 3-58 2-59-20zm241-103c0-8-4-15-10-15-5 0-10 7-10 15s5 15 10 15c6 0 10-7 10-15zM610 3440v-200h170v34c0 33-2 35-37 38-36 3-38 5-41 41s-2 37 31 37c42 0 44 2 39 45-4 34-6 36-36 33-31-3-31-3-34 50l-3 52h45c46 0 46 0 46 35v35H610v-200zM820 3440v-202l83 3c101 5 128 24 135 99 4 41 1 48-22 63l-26 18 27 23c25 22 28 31 28 90 0 92-10 100-130 104l-95 4v-202zm128 128c17-17 15-93-3-108-30-25-45-4-45 60 0 51 3 60 18 60 10 0 23-5 30-12zm8-205c8-32-6-57-35-61-19-3-21 1-21 42 0 42 2 46 25 46 18 0 26-7 31-27zM1140 3629c-27-10-60-70-60-110 0-22 3-24 44-21 44 4 45 5 48 40 2 30 8 38 26 40 19 3 22-1 22-28 0-39-16-70-35-70-8 0-15-5-15-10 0-6-12-16-26-22-36-16-67-82-60-123 10-53 48-80 112-80 67 0 96 24 98 82 1 37 0 38-34 38-32 0-35-3-38-32-4-42-37-46-47-6-7 28 4 41 93 110 16 12 34 40 42 62 12 37 11 45-6 79-11 20-31 42-44 49-29 15-84 16-120 2zM1410 3629c-48-20-58-38-65-115-4-41-4-108 0-149 6-73 8-76 43-100 68-46 148-24 177 47 17 44 20 193 5 249-6 20-19 44-30 54-23 21-95 29-130 14zm65-189c0-127-2-140-17-140-10 0-18 3-18 8-1 13-1 257-1 265 1 4 9 7 19 7 15 0 17-13 17-140zM1685 3626c-53-23-59-38-63-167-2-65-1-130 2-144 4-14 24-37 46-51 35-23 46-26 92-20 59 8 94 40 90 85-1 13 3 30 9 37 18 22 0 34-53 34h-51l5-51c5-49 5-50-20-47l-26 3 1 135c1 125 2 135 19 135 16 0 20-9 22-52l3-53h49c47 0 71 12 51 25-5 3-10 23-9 44 1 53-16 78-60 91-48 13-70 12-107-4zM1900 3440v-200h100v65c0 36 3 65 8 65 9 0 52-93 52-114 0-12 10-16 40-16 22 0 40 2 40 5 0 2-11 30-25 62-14 31-26 73-26 93-1 42 10 101 22 115 4 6 11 31 15 55 4 25 11 51 17 58 8 11 1 13-38 10-49-3-49-4-57-43-5-22-13-44-18-49-6-6-10-18-10-28s-4-18-10-18-10 30-10 70v70h-100v-200zM2170 3440v-200h160v34c0 32-3 35-32 38-30 3-33 6-36 41l-3 37h82l-3 38c-3 35-5 37-38 37l-35 1-3 52-3 52h45c46 0 46 0 46 35v35h-180v-200zM2412 3476l3-166h-32c-31 0-33-2-33-35v-35h220v35c0 32-3 35-27 35h-28v325l-53 3-53 3 3-165zM2720 3440v-200h73c73 0 115 13 127 40 4 8 12 26 19 38 16 31-8 86-41 97-23 7-23 7 5 18 17 7 27 18 27 32 0 12 5 26 11 32 5 5 9 38 7 74l-3 64h-90l-1-80c-1-106-1-105-21-105-16 0-18 10-15 95l4 95h-102v-200zm135-95c0-35-3-40-24-43-19-3-22 0-17 13 3 9 6 30 6 47 0 23 4 29 18 26 13-2 17-13 17-43zM2984 3593c1-27 4-52 8-58 3-5 9-56 13-113 4-56 11-105 16-108s9-21 9-40v-34h64c72 0 71-1 81 102 3 29 10 67 15 83 5 17 12 59 15 95 4 36 11 70 15 75 4 6 7 18 7 28 0 14-9 17-48 17h-48l-3-37c-3-33-6-38-28-38s-25 5-28 38c-3 37-4 37-46 37h-43l1-47zm146-119c0-19-5-44-10-54-6-10-11-37-12-59-1-35-3-38-14-23-8 10-11 30-8 48s1 35-5 38c-12 8-15 68-4 79 3 4 17 7 30 7 20 0 23-5 23-36zM3250 3440v-200h90v400h-90v-200zM3390 3440v-200h90v330h30c28 0 30 3 30 35v35h-150v-200zM3628 3629c-16-6-28-17-28-24s-5-15-11-17-12-22-13-43c-1-40-1-40 41-43l42-3 3 38c2 30 7 38 23 38 15 0 21-8 23-32 3-27-3-39-29-62-18-17-44-35-59-41-32-13-54-73-45-123 12-61 101-97 164-64 27 13 59 62 60 89 1 11-9 20-23 24-43 10-61 1-64-34-4-36-30-44-53-16-17 21 7 62 53 86 43 23 78 64 78 92 0 12 5 27 11 33 8 8 8 13 0 17-6 4-11 17-11 30s-9 31-20 41c-24 21-103 29-142 14zM2563 3504c-12-32 11-49 68-49 54 0 54 0 57 33l3 32h-61c-47 0-62-4-67-16zM190 2852c0-15 4-32 10-38 5-5 10-28 12-52l3-42h123l-8 37c-5 20-7 40-4 44 2 4 0 10-5 13-4 3-11 19-14 36-6 29-8 30-62 30s-55-1-55-28zM1320 2851c0-17 5-33 11-36 5-4 9-17 9-28-1-12 1-32 5-44 7-20 14-23 65-23h58l-8 37c-5 20-7 40-4 44 2 4 0 10-5 13-4 3-11 19-14 36-6 29-8 30-62 30s-55 0-55-29zM1403 2243c4-3 10-3 14 0 3 4 0 7-7 7s-10-3-7-7zM357 2233c-3-4 3-37 12-73l16-65 57 3c56 3 57 4 53 30-2 15-11 45-19 67-14 39-16 40-64 43-28 2-52-1-55-5zM1467 2234c-3-4 1-17 9-29s14-27 13-31c-1-5 2-24 6-41 7-33 8-33 66-33 33 0 59 3 59 6 0 23-26 102-38 117-15 17-101 25-115 11zM1223 2223c4-3 10-3 14 0 3 4 0 7-7 7s-10-3-7-7zM1263 2223c4-3 10-3 14 0 3 4 0 7-7 7s-10-3-7-7zM1168 2213c6-2 18-2 25 0 6 3 1 5-13 5s-19-2-12-5z"/>
    <path d="M1340 2211c0-6-22-13-50-17-27-4-50-11-50-15 0-5-17-8-37-6-21 2-51-1-68-5-28-8-71-16-120-21-11-1-19 3-18 11 2 6-2 12-7 12-6 0-10-6-10-14 0-10-21-16-72-21-49-5-67-10-53-15s0-10-45-14c-36-4-78-9-95-11-16-1-43-3-58-4-17-1-26-5-22-12 5-7-5-8-29-4-25 5-36 4-36-4 0-7 4-9 10-6 5 3 7 0 4-8-6-16 20-113 41-154 8-15 20-49 26-75 7-26 16-48 20-48s10-12 14-27c6-26 17-51 105-238 21-44 43-91 49-105 22-47 44-85 73-124 15-21 28-45 28-52s3-14 8-16c6-3 27-33 122-172 22-33 151-189 170-206 9-8 20-23 23-33 4-9 13-17 21-17s19-6 23-14c14-24 164-145 248-200 79-51 186-106 235-121 14-4 30-11 36-16 12-10 151-46 248-64 46-8 172-13 385-13 232 0 303 2 266 9-27 6-55 15-62 20-7 6-17 8-23 4-5-3-10-2-10 2 0 5-20 15-45 22s-45 17-45 22-5 9-12 9c-29 0-253 166-265 196-3 8-11 14-17 14-7 0-27 20-45 45s-36 45-40 45c-10 0-111 126-128 162-8 15-18 28-22 28-8 0-71 93-71 106 0 4-8 17-19 28-31 35-184 325-242 459-17 40-39 90-50 113-10 22-19 44-19 48s-6 22-14 39c-27 59-86 216-86 230 0 7-4 17-9 22-12 13-71 203-68 217 1 8-16 13-45 15-28 2-48 0-48-6zm-363-98c-4-3-10-3-14 0-3 4 0 7 7 7s10-3 7-7zM813 2143c4-3 10-3 14 0 3 4 0 7-7 7s-10-3-7-7zM720 2136c0-2 14-6 30-8 17-3 30-1 30 4 0 4-13 8-30 8-16 0-30-2-30-4zM658 2123c12-2 30-2 40 0 9 3-1 5-23 4-22 0-30-2-17-4z"/>
    <path d="M3625 1820c-28-14-75-43-107-63-31-20-75-44-97-53-23-9-41-20-41-24 0-8-13-16-92-57-18-9-46-27-61-40-16-12-34-23-41-23s-21-9-31-20-21-20-26-20c-12 0-133-76-136-86-2-5 31-27 73-49 41-22 80-45 85-51 6-8 0-23-18-45-42-50-341-348-396-394-27-22-56-47-65-55-32-28-157-116-174-123-10-3-18-11-18-16s41-50 90-100c50-50 90-93 90-97 0-3-20 6-44 20-35 20-58 26-105 26-34 0-61-4-61-10 0-5 18-21 39-36 36-23 48-25 119-23l79 3 39-43c63-68 96-84 158-77 29 4 65 13 80 21 16 8 32 13 36 10s10 2 14 10c3 8 10 15 17 15 10 0 55 32 90 65 9 8 21 15 27 15 5 0 12 4 14 9s42 50 89 99c48 49 94 103 103 120 9 18 21 32 26 32 6 0 10 5 10 10 0 9 48 86 77 125 8 10 13 19 78 148 19 37 37 67 40 67 4 0 26-11 51-25s51-25 58-25c8 0 19-6 25-14s23-16 37-19c22-4 24-2 19 27-2 17-7 67-10 111s-10 95-16 113c-6 19-9 47-5 63 3 15 1 31-5 35-6 3-9 16-8 27 1 12-1 49-4 82-4 33-9 83-12 112-2 28-9 72-15 97-6 26-9 61-7 79 2 17-1 42-7 53l-12 21-49-27zM612 1553c2-5 14-29 26-55l23-48h55c54 0 54 0 48 28-4 15-16 39-26 55-17 24-26 27-75 27-30 0-53-3-51-7zM1730 1548c0-6 9-31 21-55l21-43h118l-27 55-27 55h-53c-34 0-53-4-53-12zM956 978c11-13 28-35 37-50 16-25 23-28 73-28 53 0 55 1 48 23-3 12-20 34-37 50-26 22-40 27-86 27h-54l19-22zM2039 971c12-16 21-34 21-40 0-18 36-31 84-31 25 0 46 3 46 6 0 4-12 26-27 50-28 44-28 44-86 44h-58l20-29zM1499 494c40-19 67-24 105-22 38 3 46 6 31 12-11 4-32 14-47 22s-52 14-85 13l-58-1 54-24z"/>
  </g>
  <g fill="#f2e2df">
    <path d="M219 3618c-1-22-2-29-9-53-1-5-3-28-5-50-1-22-7-76-14-120-6-44-13-97-16-117l-5-38h99l-1 78c-1 42 3 106 8 142 8 54 11 61 18 40 5-13 9-50 10-82 1-31 5-60 9-64s7-21 7-38c0-65 8-76 56-76 43 0 44 1 45 33 1 17 3 43 4 57s4 53 5 88c5 105 27 88 36-28 3-36 11-84 17-107 11-42 12-43 54-43 29 0 41 4 38 13-2 6-6 35-8 62-3 28-10 72-16 98s-8 59-5 72c3 14 2 31-3 38-5 6-11 32-12 56-1 25-4 48-7 53-3 4-30 8-60 8-53 0-54-1-54-28 0-16-3-32-7-36s-9-22-10-39c-1-18-5-51-9-74-5-37-8-41-21-28-9 10-12 25-8 49 4 20 2 36-4 40s-11 22-11 39c0 69-7 77-66 77-49 0-54-2-55-22zm241-103c0-8-4-15-10-15-5 0-10 7-10 15s5 15 10 15c6 0 10-7 10-15zM610 3440v-200h170v35c0 34-1 35-40 35h-40v40c0 39 1 40 33 40 42 0 44 2 39 45-4 34-6 36-36 33-31-3-31-3-34 50l-3 52h35c34 0 36 2 36 35v35H610v-200zM820 3441v-201h68c89 0 103 5 130 44 31 45 30 99-3 120l-25 17 27 23c25 22 28 31 28 90 0 92-10 100-130 104l-95 4v-201zm138 95c5-61-5-88-31-84-20 3-22 10-25 66l-3 63 28-3c25-3 28-8 31-42zm0-179c4-33-13-57-39-57-16 0-19 8-19 46 0 44 1 45 28 42 21-2 28-9 30-31zM1145 3631c-11-5-26-22-34-37-7-16-17-37-22-46-21-41-12-53 35-50 44 4 45 5 48 40 2 30 8 38 26 40 19 3 22-1 22-28 0-39-16-70-35-70-8 0-15-4-15-10 0-5-13-16-28-24-35-18-67-85-58-120 3-14 17-38 30-53 21-24 31-28 80-28 69 0 98 24 100 82 1 37 0 38-34 38-32 0-35-3-38-32-4-41-36-46-46-8-8 30 8 65 29 65 8 0 15 3 15 8 0 4 14 15 30 24 17 9 35 30 41 45s16 38 21 49c7 15 6 29-3 45-6 13-15 31-19 39-16 34-95 51-145 31zM1410 3629c-48-20-58-38-65-115-4-41-4-108 0-149 7-74 8-76 46-102 67-44 149-17 178 60 12 30 15 175 5 224-10 53-44 84-94 89-25 2-56-1-70-7zm74-71c8-30 7-206 0-236-5-16-13-22-27-20-19 3-20 10-19 136 0 72 1 134 1 137 2 16 40 2 45-17zM1685 3626c-54-24-59-37-63-182l-4-134 31-29c54-50 133-51 181-2 22 22 25 33 22 74l-4 47h-91l5-51c5-49 5-50-20-47l-26 3 1 135c1 125 2 135 19 135 16 0 20-9 22-52l3-53h87l4 41c6 64-11 102-52 116-46 15-78 15-115-1zM1900 3440v-200h100v65c0 36 3 65 8 65 9 0 52-93 52-114 0-12 10-16 40-16 22 0 40 2 40 5 0 2-11 30-25 62-34 77-34 152 1 230 8 17 14 42 14 55s6 30 13 37c10 10 2 12-38 9-49-3-49-3-57-43-5-22-13-44-18-49-6-6-10-18-10-28s-4-18-10-18-10 30-10 70v70h-100v-200zM2180 3440v-200h150v34c0 32-3 35-32 38-30 3-33 6-36 41l-3 37h82l-3 38c-3 35-5 37-38 37l-35 1-3 52-3 52h45c46 0 46 0 46 35v35h-170v-200zM2412 3476l3-166h-32c-31 0-33-2-33-35v-35h220v35c0 32-3 35-27 35h-28v325l-53 3-53 3 3-165zM2720 3440v-200h73c73 0 115 13 127 40 4 8 12 26 19 38 16 31-8 86-41 96-23 7-23 7-2 17 33 17 55 80 52 146l-3 58h-90l-1-80c-1-106-1-105-21-105-16 0-18 10-15 95l4 95h-102v-200zm135-95c0-35-3-40-24-43-19-3-22 0-17 13 3 9 6 30 6 47 0 23 4 29 18 26 13-2 17-13 17-43zM2984 3593c1-27 4-52 7-58 4-5 10-54 14-107 4-54 11-100 16-104 5-3 9-23 9-45v-39h64c73 0 72-1 82 113 3 34 9 68 14 77 4 8 11 49 15 90s10 80 13 85c17 28 9 35-40 35h-50l4-37c3-36 2-38-29-41-32-3-33-2-33 37v41h-87l1-47zm146-113c0-16-5-53-12-82-6-29-11-60-9-68 2-10-3-8-13 5s-13 31-10 51c3 18 1 35-5 38-12 8-15 68-4 79 3 4 17 7 30 7 19 0 23-5 23-30zM3250 3440v-200h90v400h-90v-200zM3390 3440v-200h90v330h30c28 0 30 3 30 35v35h-150v-200zM3628 3629c-16-6-28-17-28-24s-5-15-11-17-12-22-13-43l-1-40 43-3c42-3 42-3 42 30 0 41 17 63 37 47 36-31 2-98-68-135-37-19-62-76-54-122 15-94 156-112 206-27 25 42 23 64-5 71-43 10-61 1-64-34-4-36-30-44-52-17-19 23 4 59 62 96 61 39 68 53 68 127 0 46-4 63-20 77-24 21-103 29-142 14zM2563 3504c-12-32 11-49 68-49 54 0 54 0 57 33l3 32h-61c-47 0-62-4-67-16zM190 2852c0-15 4-32 10-38 5-5 10-28 12-52l3-42h123l-8 37c-5 20-7 40-4 44 2 4 0 10-5 13-4 3-11 19-14 36-6 29-8 30-62 30s-55-1-55-28zM1320 2851c0-17 5-33 11-36 5-4 9-17 9-28-1-12 1-32 5-44 7-20 14-23 65-23h58l-8 37c-5 20-7 40-4 44 2 4 0 10-5 13-4 3-11 19-14 36-6 29-8 30-62 30s-55 0-55-29zM1403 2243c4-3 10-3 14 0 3 4 0 7-7 7s-10-3-7-7zM357 2233c-3-4 3-37 12-73l16-65 57 3c56 3 57 4 53 30-2 15-11 45-19 67-14 39-16 40-64 43-28 2-52-1-55-5zM1467 2234c-3-4 1-17 9-29s14-27 13-31c-1-5 2-24 6-41 7-33 8-33 66-33 33 0 59 3 59 6 0 23-26 102-38 117-15 17-101 25-115 11zM1223 2223c4-3 10-3 14 0 3 4 0 7-7 7s-10-3-7-7zM1263 2223c4-3 10-3 14 0 3 4 0 7-7 7s-10-3-7-7zM1168 2213c6-2 18-2 25 0 6 3 1 5-13 5s-19-2-12-5z"/>
    <path d="M1340 2211c0-6-22-13-50-17-27-4-50-11-50-15 0-5-17-8-37-6-21 2-51-1-68-5-28-8-71-16-120-21-11-1-19 3-18 11 2 6-2 12-7 12-6 0-10-6-10-14 0-10-21-16-72-21-49-5-67-10-53-15s0-10-45-14c-36-4-78-9-95-11-16-1-43-3-58-4-17-1-26-5-22-12 5-7-5-8-29-4-25 5-36 4-36-4 0-7 4-9 10-6 5 3 7 0 4-8-6-16 20-113 41-154 8-15 20-49 26-75 7-26 16-48 20-48s10-12 14-27c6-26 17-51 105-238 21-44 43-91 49-105 22-47 44-85 73-124 15-21 28-45 28-52s3-14 8-16c6-3 27-33 122-172 22-33 151-189 170-206 9-8 20-23 23-33 4-9 13-17 21-17s19-6 23-14c14-24 164-145 248-200 79-51 186-106 235-121 14-4 30-11 36-16 12-10 151-46 248-64 46-8 173-13 385-13 295-1 311 0 248 13-38 8-74 18-80 23-7 5-31 16-55 25-94 37-312 193-312 224 0 7-6 13-13 13-8 0-28 20-46 45s-36 45-40 45c-10 0-111 126-128 162-8 15-18 28-22 28-8 0-71 93-71 106 0 4-8 17-19 28-31 35-184 325-242 459-17 40-39 90-50 113-10 22-19 44-19 48s-6 22-14 39c-27 59-86 216-86 230 0 7-4 17-9 22-12 13-71 203-68 217 1 8-16 13-45 15-28 2-48 0-48-6zm-363-98c-4-3-10-3-14 0-3 4 0 7 7 7s10-3 7-7zM813 2143c4-3 10-3 14 0 3 4 0 7-7 7s-10-3-7-7zM720 2136c0-2 14-6 30-8 17-3 30-1 30 4 0 4-13 8-30 8-16 0-30-2-30-4zM658 2123c12-2 30-2 40 0 9 3-1 5-23 4-22 0-30-2-17-4zM3625 1820c-28-14-75-43-107-63-31-20-75-44-97-53-23-9-41-20-41-24 0-8-13-16-92-57-18-9-46-27-61-40-16-12-34-23-41-23s-21-9-31-20-21-20-26-20c-12 0-133-76-136-86-2-5 31-27 73-49 41-22 80-45 85-51 6-8 0-23-18-45-41-50-341-348-396-394-26-22-61-52-78-66l-30-26 32-34c18-19 29-27 25-19s2 4 13-10 21-29 21-33c0-5 5-5 10-2 6 3 10 2 10-3s16-24 35-43c117-113 225-223 225-230 0-5 9-9 21-9 19 0 57 25 100 65 9 8 21 15 27 15 5 0 12 4 14 9s42 50 89 99c48 49 94 103 103 120 9 18 21 32 26 32 6 0 10 5 10 10 0 9 48 86 77 125 8 10 13 19 78 148 19 37 37 67 40 67 4 0 26-11 51-25s51-25 58-25c8 0 19-6 25-14s23-16 37-19c22-4 24-2 19 27-2 17-7 67-10 111s-10 95-16 113c-6 19-9 47-5 63 3 15 1 31-5 35-6 3-9 16-8 27 1 12-1 49-4 82-4 33-9 83-12 112-2 28-9 72-15 97-6 26-9 61-7 79 2 17-1 42-7 53l-12 21-49-27zM612 1553c2-5 14-29 26-55l23-48h55c54 0 54 0 48 28-4 15-16 39-26 55-17 24-26 27-75 27-30 0-53-3-51-7z"/>
    <path d="M1730 1548c0-6 9-31 21-55l21-43h118l-27 55-27 55h-53c-34 0-53-4-53-12zM956 978c11-13 28-35 37-50 16-25 23-28 73-28 53 0 55 1 48 23-3 12-20 34-37 50-26 22-40 27-86 27h-54l19-22zM2039 971c12-16 21-34 21-40 0-18 36-31 84-31 25 0 46 3 46 6 0 4-12 26-27 50-28 44-28 44-86 44h-58l20-29zM2460 533c0-5 18-18 40-30 48-28 162-34 140-8-22 27-73 45-127 45-29 0-53-3-53-7zM1499 494c40-19 67-24 105-22 38 3 46 6 31 12-11 4-32 14-47 22s-52 14-85 13l-58-1 54-24z"/>
  </g>
  <g fill="#f4f3f3">
    <path d="M219 3618c-1-13-1-27 0-32s-1-16-5-25-6-28-5-44c2-15-4-64-13-110-8-45-17-101-20-124l-4-43h100l-7 60c-8 69 12 237 27 222 5-5 11-38 13-73s8-93 14-129 11-68 11-72c0-5 18-8 40-8 38 0 40 1 40 33 0 17 4 48 10 66 5 19 10 59 11 88 1 30 6 56 10 59 12 7 29-64 29-123 0-28 5-55 10-58 6-3 10-19 10-36 0-28 2-29 43-29h44l-9 48c-19 100-28 178-22 195 3 10 1 23-4 30s-10 29-10 51c-2 71-7 76-68 76h-54v-33c0-19-3-36-6-40-3-3-7-29-9-57-6-75-13-94-32-79-10 9-13 23-8 45 3 18 1 35-5 39-5 3-10 23-10 43 0 75-6 82-66 82-49 0-54-2-55-22zm241-103c0-8-4-15-10-15-5 0-10 7-10 15s5 15 10 15c6 0 10-7 10-15zM610 3440v-200h170v35c0 34-1 35-41 35h-40l3 43c3 39 5 42 36 45 30 3 32 6 32 39 0 35 0 36-35 30l-35-6v109h35c33 0 35 2 35 35v35H610v-200zM820 3440v-200h63c75 0 121 20 142 60 22 43 19 76-11 99l-26 20 27 24c35 30 45 99 20 150-19 41-35 47-137 47h-78v-200zm129 136c7-8 11-37 9-68-3-50-5-53-30-56-28-3-28-3-28 61 0 35 3 67 7 70 11 11 30 8 42-7zm-1-185c8-5 12-23 10-47-3-34-6-39-30-42-27-3-28-2-28 42 0 39 7 52 30 55 3 0 11-3 18-8zM1150 3633c-30-13-49-48-50-90 0-42 0-43 35-43 32 0 35 2 35 29 0 42 10 61 31 61 16 0 19-7 19-47 0-44-4-50-39-75-22-16-44-28-49-28s-19-21-31-46c-30-63-15-108 46-137 38-19 46-19 83-7 51 17 60 28 63 76 2 38 1 39-33 39-32 0-35-3-38-32-3-27-8-33-27-33-60 0-42 58 34 109 67 46 71 53 71 124-1 71-24 99-88 103-26 2-54 1-62-3zM1424 3633c-12-2-33-17-48-32-24-25-28-38-33-117-3-53-1-112 6-145 11-54 14-57 62-79l50-24 45 22c60 29 74 64 74 182 0 95-13 142-46 172-20 18-76 29-110 21zm54-55c14-14 17-245 3-266-5-8-16-12-26-10-15 3-17 19-19 141-1 125 2 143 25 146 3 1 10-4 17-11zM1705 3634c-12-3-34-15-50-28-28-23-29-25-33-145-5-146 5-176 72-204 52-21 53-21 104 3 51 25 58 37 54 94l-4 46h-91l5-50c5-48 4-50-21-50h-26v140c0 142 4 157 38 144 10-3 12-20 9-59l-4-55h92l1 38c2 57 0 65-29 94-27 26-77 40-117 32zM1900 3440v-200h102l-4 80c-3 75 5 103 18 63 3-10 12-31 20-48 7-16 17-43 22-60 7-24 15-31 40-33 39-4 41 10 11 75-25 55-34 106-24 130 4 10 9 31 11 47 3 17 8 32 13 35 4 4 11 24 15 46s13 46 19 53c8 11 1 13-39 10l-49-3-8-50c-4-27-12-52-17-55-4-3-10-16-11-29-2-14-8-26-14-28s-9 28-6 82l3 85h-102v-200zM2180 3440v-200h150v35c0 33-2 35-36 35h-35l3 43c3 40 5 42 38 47 31 4 35 8 35 35 0 28-2 30-37 29l-38-1v107h35c33 0 35 2 35 35v35h-150v-200zM2430 3476v-166h-30c-28 0-30-3-30-35v-35h200v35c0 32-3 35-27 35h-28v325l-42 3-43 3v-165zM2720 3440v-200h75c43 0 75 4 75 10s8 10 18 10c24 0 42 19 42 46 0 13 4 26 10 29 6 4 6 12 1 23-5 9-12 25-15 35-3 9-15 17-26 17-25 0-26 12-1 27 34 21 52 75 49 139l-3 59h-90v-180l-27-3-28-3v191h-80v-200zm127-48c7-4 11-25 10-47-2-36-5-40-29-43-27-3-28-2-28 42 0 39 7 52 30 55 3 0 10-3 17-7zM2985 3593c0-27 3-52 7-58 3-5 9-48 13-95s11-90 15-95c5-6 10-31 12-55l3-45 61-3 61-3 7 33c4 18 10 60 13 93s9 67 13 75c5 9 12 49 15 90 4 41 12 83 17 93 8 15 3 17-43 17h-52l6-40c5-40 5-40-29-40-33 0-34 1-34 40v40h-85v-47zm141-165c-4-46-9-91-12-101-6-18-7-18-20 2-10 14-13 32-9 55 4 20 2 36-4 40-12 8-15 68-4 79 3 4 17 7 31 7h25l-7-82zM3260 3440v-200h80v400h-80v-200zM3390 3440v-200h90v330h30c28 0 30 3 30 35v35h-150v-200zM3640 3633c-20-8-49-45-50-63 0-9-5-21-11-27-21-21-2-43 36-43 32 0 35 2 35 31 0 35 23 64 45 55 10-3 15-20 15-48 0-37-4-46-33-65-17-12-40-25-49-28-9-4-27-27-38-51-29-60-15-106 40-134 22-11 45-20 53-20 26 0 97 41 97 55 0 9 6 24 13 35 15 26-4 41-48 38-26-3-30-7-33-36s-6-33-30-30c-21 2-28 9-30 30-3 23 5 33 44 60 87 59 94 70 94 137 0 54-3 62-31 85-30 25-81 33-119 19zM2563 3504c-12-32 11-49 68-49 54 0 54 0 57 33l3 32h-61c-47 0-62-4-67-16zM190 2862c0-10 4-22 10-28 5-5 10-33 12-61l3-53h122l-5 30c-2 17-8 33-13 36s-9 18-9 34c0 53-8 60-66 60-45 0-54-3-54-18zM1320 2865c0-8 4-23 9-33 6-9 13-38 16-64l6-48h117l-8 33c-5 17-11 41-14 52s-7 32-11 48c-5 25-8 27-60 27-42 0-55-3-55-15zM357 2233c-2-5 3-35 12-68l16-60 59-3c49-3 58-1 53 12-3 8-11 34-17 58-7 24-17 49-22 56-11 13-94 17-101 5zM1484 2226c-3-9-1-30 5-47 6-18 11-43 11-55 0-23 4-24 60-24h60l-6 33c-4 17-14 48-24 67-15 31-22 35-59 38-30 2-43-1-47-12zM3652 1834c-12-8-32-21-45-28-20-10-90-52-165-97-15-9-114-68-220-132-107-65-196-117-198-117-3 0-11-6-18-13-10-9-10-15-1-22 11-10 15-13 100-59 63-35 59-30 44-58-30-58-355-378-492-484l-27-22 32-33c17-19 28-27 24-19s2 4 13-10 21-29 21-33c0-5 5-5 10-2 6 3 10 2 10-3s16-24 35-43c117-113 225-223 225-230 0-5 9-9 20-9s20 3 20 8c0 4 17 16 37 27s80 64 132 117c117 119 118 120 172 199 24 35 47 66 52 67 4 2 7 7 7 12 0 8 63 117 78 135 5 6 17 32 27 58 25 65 39 75 78 54 18-8 60-29 94-46l61-30-4 42c-3 23-12 88-20 145-9 57-14 114-11 128 2 13 0 27-4 30-5 3-9 22-8 42 0 39-12 139-31 261-6 41-9 82-7 92 3 10-1 34-7 53-12 34-13 35-34 20zM1563 1643c4-3 10-3 14 0 3 4 0 7-7 7s-10-3-7-7zM1593 1643c4-3 10-3 14 0 3 4 0 7-7 7s-10-3-7-7zM1515 1623c-38-2-75-8-81-14-8-7-13-6-16 1-2 6-11 8-22 4-14-5-15-9-4-15 9-6 6-8-9-6-12 0-19 5-17 9 3 4-4 8-15 8-12 0-20-5-18-12 1-7-5-13-13-14-8 0-17-2-20-3-3-2-27-4-55-6-27-2-88-7-135-11-70-6-79-9-50-15l35-6-30-3c-70-6-90-10-93-20-2-5-19-10-38-10-24 0-33 4-28 12 4 7 3 8-5 4-6-4-9-11-6-16s-10-9-30-8c-47 2-68-18-34-31 16-6 18-10 7-10-14-1-15-5-5-31 6-16 14-30 18-30 3 0 14-19 25-42 10-24 21-45 25-48 3-3 14-20 23-37 9-18 28-49 41-70 14-21 31-46 38-57 25-38 134-184 161-217 78-94 235-244 306-291 14-10 45-32 70-49 104-74 304-163 410-183 19-4 44-11 55-16 46-20 152-27 447-28 290-1 308 0 250 13-80 18-227 91-317 157-118 88-273 254-376 403-19 27-37 54-42 60-4 5-21 31-37 58-17 26-43 68-60 94-16 25-30 51-30 56 0 6-6 18-13 26-8 9-20 32-27 51-8 19-20 41-27 48s-13 20-13 29c0 8-8 27-18 41-20 30-63 118-83 172-16 44-32 61-56 58-10-1-49-4-88-5zm-5-33c0-5-4-10-10-10-5 0-10 5-10 10 0 6 5 10 10 10 6 0 10-4 10-10zm78 3c-10-2-26-2-35 0-10 3-2 5 17 5s27-2 18-5zm-251-39c-3-3-12-4-19-1-8 3-5 6 6 6 11 1 17-2 13-5zm-54-11c-13-2-35-2-50 0-16 2-5 4 22 4 28 0 40-2 28-4zm-124-27c-2-2-31-7-64-10-42-5-56-4-45 3 13 10 119 16 109 7zm-139-16c0-5-17-9-37-9-38 1-38 1-8 9 43 11 45 11 45 0zM612 1553c2-5 14-29 28-55l24-48h53c53 0 53 0 47 28-4 15-16 39-28 55-17 24-26 27-74 27-29 0-52-3-50-7z"/>
    <path d="M1735 1539c4-12 16-37 27-55 19-32 23-34 73-34h54l-27 55-27 55h-53c-50 0-53-1-47-21zM943 1523c4-3 10-3 14 0 3 4 0 7-7 7s-10-3-7-7zM966 968c41-50 60-59 110-56l45 3-36 43c-35 40-39 42-92 42h-55l28-32zM2051 955c29-43 32-45 80-45 57 0 60 8 23 57-23 30-30 33-79 33h-54l30-45zM2460 533c0-5 18-18 40-30 48-28 162-34 140-8-22 27-73 45-127 45-29 0-53-3-53-7zM1484 505c21-7 43-18 49-24s36-11 66-11h54l-49 25c-35 18-65 25-104 25l-55-1 39-14z"/>
  </g>
</svg>
