<?xml version="1.0" standalone="no"?><!DOCTYPE svg PUBLIC "-//W3C//DTD SVG 1.1//EN" "http://www.w3.org/Graphics/SVG/1.1/DTD/svg11.dtd"><svg class="icon" height="512" viewBox="0 0 1024 1024" version="1.1" xmlns="http://www.w3.org/2000/svg"><path d="M512 0a512 512 0 1 0 0 1024A512 512 0 0 0 512 0z m264.32 666.24a52.288 52.288 0 0 1-52.864 51.328H300.544a52.288 52.288 0 0 1-52.864-51.392l0.256-253.888L505.6 548.992a13.568 13.568 0 0 0 12.672 0L776.32 412.16v254.08zM512.128 500.672l-264.192-143.36a52.096 52.096 0 0 1 52.608-50.944h422.912c28.864 0 52.48 22.784 52.864 50.752L512.128 500.736z" fill="#87C2F5" /></svg>